<?xml version="1.0" encoding="UTF-8"?><svg xmlns="http://www.w3.org/2000/svg" xmlns:xlink="http://www.w3.org/1999/xlink" contentStyleType="text/css" height="629px" preserveAspectRatio="none" style="width:2077px;height:629px;background:#FFFFFF;" version="1.1" viewBox="0 0 2077 629" width="2077px" zoomAndPan="magnify">
    <defs/>
    <g>
        <!--cluster java-->
        <g id="cluster_java">
            <path d="M1433.5,50 L1463.5,50 A3.75,3.75 0 0 1 1466,52.5 L1473,73.6094 L2067.5,73.6094 A2.5,2.5 0 0 1 2070,76.1094 L2070,215.5 A2.5,2.5 0 0 1 2067.5,218 L1433.5,218 A2.5,2.5 0 0 1 1431,215.5 L1431,52.5 A2.5,2.5 0 0 1 1433.5,50 " fill="none" style="stroke:#000000;stroke-width:1.5;"/>
            <line style="stroke:#000000;stroke-width:1.5;" x1="1431" x2="1473" y1="73.6094" y2="73.6094"/>
            <text fill="#000000" font-family="sans-serif" font-size="14" font-weight="bold" lengthAdjust="spacing" textLength="29" x="1435" y="66.5332">java</text>
        </g>
        <!--cluster math-->
        <g id="cluster_math">
            <path d="M1751.5,94 L1786.5,94 A3.75,3.75 0 0 1 1789,96.5 L1796,117.6094 L2043.5,117.6094 A2.5,2.5 0 0 1 2046,120.1094 L2046,191.5 A2.5,2.5 0 0 1 2043.5,194 L1751.5,194 A2.5,2.5 0 0 1 1749,191.5 L1749,96.5 A2.5,2.5 0 0 1 1751.5,94 " fill="none" style="stroke:#000000;stroke-width:1.5;"/>
            <line style="stroke:#000000;stroke-width:1.5;" x1="1749" x2="1796" y1="117.6094" y2="117.6094"/>
            <text fill="#000000" font-family="sans-serif" font-size="14" font-weight="bold" lengthAdjust="spacing" textLength="34" x="1753" y="110.5332">math</text>
        </g>
        <!--cluster time-->
        <g id="cluster_time">
            <path d="M1457.5,94 L1488.5,94 A3.75,3.75 0 0 1 1491,96.5 L1498,117.6094 L1612.5,117.6094 A2.5,2.5 0 0 1 1615,120.1094 L1615,191.5 A2.5,2.5 0 0 1 1612.5,194 L1457.5,194 A2.5,2.5 0 0 1 1455,191.5 L1455,96.5 A2.5,2.5 0 0 1 1457.5,94 " fill="none" style="stroke:#000000;stroke-width:1.5;"/>
            <line style="stroke:#000000;stroke-width:1.5;" x1="1455" x2="1498" y1="117.6094" y2="117.6094"/>
            <text fill="#000000" font-family="sans-serif" font-size="14" font-weight="bold" lengthAdjust="spacing" textLength="30" x="1459" y="110.5332">time</text>
        </g>
        <!--cluster util-->
        <g id="cluster_util">
            <path d="M1641.5,94 L1664.5,94 A3.75,3.75 0 0 1 1667,96.5 L1674,117.6094 L1722.5,117.6094 A2.5,2.5 0 0 1 1725,120.1094 L1725,191.5 A2.5,2.5 0 0 1 1722.5,194 L1641.5,194 A2.5,2.5 0 0 1 1639,191.5 L1639,96.5 A2.5,2.5 0 0 1 1641.5,94 " fill="none" style="stroke:#000000;stroke-width:1.5;"/>
            <line style="stroke:#000000;stroke-width:1.5;" x1="1639" x2="1674" y1="117.6094" y2="117.6094"/>
            <text fill="#000000" font-family="sans-serif" font-size="14" font-weight="bold" lengthAdjust="spacing" textLength="22" x="1643" y="110.5332">util</text>
        </g>
        <!--cluster org-->
        <g id="cluster_org">
            <path d="M8.5,6 L33.5,6 A3.75,3.75 0 0 1 36,8.5 L43,29.6094 L1404.5,29.6094 A2.5,2.5 0 0 1 1407,32.1094 L1407,619.5 A2.5,2.5 0 0 1 1404.5,622 L8.5,622 A2.5,2.5 0 0 1 6,619.5 L6,8.5 A2.5,2.5 0 0 1 8.5,6 " fill="none" style="stroke:#000000;stroke-width:1.5;"/>
            <line style="stroke:#000000;stroke-width:1.5;" x1="6" x2="43" y1="29.6094" y2="29.6094"/>
            <text fill="#000000" font-family="sans-serif" font-size="14" font-weight="bold" lengthAdjust="spacing" textLength="24" x="10" y="22.5332">org</text>
        </g>
        <!--cluster bootcamp-->
        <g id="cluster_bootcamp">
            <path d="M32.5,50 L102.5,50 A3.75,3.75 0 0 1 105,52.5 L112,73.6094 L1380.5,73.6094 A2.5,2.5 0 0 1 1383,76.1094 L1383,595.5 A2.5,2.5 0 0 1 1380.5,598 L32.5,598 A2.5,2.5 0 0 1 30,595.5 L30,52.5 A2.5,2.5 0 0 1 32.5,50 " fill="none" style="stroke:#000000;stroke-width:1.5;"/>
            <line style="stroke:#000000;stroke-width:1.5;" x1="30" x2="112" y1="73.6094" y2="73.6094"/>
            <text fill="#000000" font-family="sans-serif" font-size="14" font-weight="bold" lengthAdjust="spacing" textLength="69" x="34" y="66.5332">bootcamp</text>
        </g>
        <!--cluster controllers-->
        <g id="cluster_controllers">
            <path d="M867.5,242 L945.5,242 A3.75,3.75 0 0 1 948,244.5 L955,265.6094 L1356.5,265.6094 A2.5,2.5 0 0 1 1359,268.1094 L1359,463.5 A2.5,2.5 0 0 1 1356.5,466 L867.5,466 A2.5,2.5 0 0 1 865,463.5 L865,244.5 A2.5,2.5 0 0 1 867.5,242 " fill="none" style="stroke:#000000;stroke-width:1.5;"/>
            <line style="stroke:#000000;stroke-width:1.5;" x1="865" x2="955" y1="265.6094" y2="265.6094"/>
            <text fill="#000000" font-family="sans-serif" font-size="14" font-weight="bold" lengthAdjust="spacing" textLength="77" x="869" y="258.5332">controllers</text>
        </g>
        <!--cluster models-->
        <g id="cluster_models">
            <path d="M556.5,94 L608.5,94 A3.75,3.75 0 0 1 611,96.5 L618,117.6094 L838.5,117.6094 A2.5,2.5 0 0 1 841,120.1094 L841,339.5 A2.5,2.5 0 0 1 838.5,342 L556.5,342 A2.5,2.5 0 0 1 554,339.5 L554,96.5 A2.5,2.5 0 0 1 556.5,94 " fill="none" style="stroke:#000000;stroke-width:1.5;"/>
            <line style="stroke:#000000;stroke-width:1.5;" x1="554" x2="618" y1="117.6094" y2="117.6094"/>
            <text fill="#000000" font-family="sans-serif" font-size="14" font-weight="bold" lengthAdjust="spacing" textLength="51" x="558" y="110.5332">models</text>
        </g>
        <!--cluster services-->
        <g id="cluster_services">
            <path d="M143.5,94 L205.5,94 A3.75,3.75 0 0 1 208,96.5 L215,117.6094 L527.5,117.6094 A2.5,2.5 0 0 1 530,120.1094 L530,339.5 A2.5,2.5 0 0 1 527.5,342 L143.5,342 A2.5,2.5 0 0 1 141,339.5 L141,96.5 A2.5,2.5 0 0 1 143.5,94 " fill="none" style="stroke:#000000;stroke-width:1.5;"/>
            <line style="stroke:#000000;stroke-width:1.5;" x1="141" x2="215" y1="117.6094" y2="117.6094"/>
            <text fill="#000000" font-family="sans-serif" font-size="14" font-weight="bold" lengthAdjust="spacing" textLength="61" x="145" y="110.5332">services</text>
        </g>
        <!--cluster views-->
        <g id="cluster_views">
            <path d="M100.5,366 L142.5,366 A3.75,3.75 0 0 1 145,368.5 L152,389.6094 L838.5,389.6094 A2.5,2.5 0 0 1 841,392.1094 L841,571.5 A2.5,2.5 0 0 1 838.5,574 L100.5,574 A2.5,2.5 0 0 1 98,571.5 L98,368.5 A2.5,2.5 0 0 1 100.5,366 " fill="none" style="stroke:#000000;stroke-width:1.5;"/>
            <line style="stroke:#000000;stroke-width:1.5;" x1="98" x2="152" y1="389.6094" y2="389.6094"/>
            <text fill="#000000" font-family="sans-serif" font-size="14" font-weight="bold" lengthAdjust="spacing" textLength="41" x="102" y="382.5332">views</text>
        </g>
        <!--class BigDecimal-->
        <g id="elem_BigDecimal">
            <rect codeLine="1" fill="#F1F1F1" height="48" id="BigDecimal" rx="2.5" ry="2.5" style="stroke:#181818;stroke-width:0.5;" width="102" x="1928" y="130"/>
            <ellipse cx="1943" cy="146" fill="#ADD1B2" rx="11" ry="11" style="stroke:#181818;stroke-width:1.0;"/>
            <path d="M1945.7656,141.875 Q1945.9219,141.6563 1946.1094,141.5469 Q1946.2969,141.4375 1946.5156,141.4375 Q1946.8906,141.4375 1947.125,141.7031 Q1947.3594,141.9531 1947.3594,142.5625 L1947.3594,144.0156 Q1947.3594,144.625 1947.125,144.8906 Q1946.8906,145.1563 1946.5156,145.1563 Q1946.1719,145.1563 1945.9688,144.9531 Q1945.7656,144.7656 1945.6563,144.25 Q1945.6094,143.8906 1945.4219,143.7031 Q1945.0938,143.3281 1944.4844,143.1094 Q1943.875,142.8906 1943.25,142.8906 Q1942.4844,142.8906 1941.8438,143.2188 Q1941.2188,143.5469 1940.7188,144.2969 Q1940.2344,145.0469 1940.2344,146.0781 L1940.2344,147.1719 Q1940.2344,148.4063 1941.125,149.2344 Q1942.0156,150.0469 1943.6094,150.0469 Q1944.5469,150.0469 1945.2031,149.7969 Q1945.5938,149.6406 1946.0156,149.2031 Q1946.2813,148.9375 1946.4219,148.8594 Q1946.5781,148.7813 1946.7813,148.7813 Q1947.1094,148.7813 1947.3594,149.0469 Q1947.625,149.2969 1947.625,149.6406 Q1947.625,149.9844 1947.2813,150.3906 Q1946.7813,150.9688 1945.9844,151.2969 Q1944.9063,151.75 1943.6094,151.75 Q1942.0938,151.75 1940.8906,151.125 Q1939.9063,150.625 1939.2188,149.5625 Q1938.5313,148.4844 1938.5313,147.2031 L1938.5313,146.0469 Q1938.5313,144.7188 1939.1406,143.5781 Q1939.7656,142.4219 1940.8594,141.8125 Q1941.9531,141.1875 1943.1875,141.1875 Q1943.9219,141.1875 1944.5625,141.3594 Q1945.2188,141.5156 1945.7656,141.875 Z " fill="#000000"/>
            <text fill="#000000" font-family="sans-serif" font-size="14" lengthAdjust="spacing" textLength="70" x="1957" y="151.7285">BigDecimal</text>
            <line style="stroke:#181818;stroke-width:0.5;" x1="1929" x2="2029" y1="162" y2="162"/>
            <line style="stroke:#181818;stroke-width:0.5;" x1="1929" x2="2029" y1="170" y2="170"/>
        </g>
        <!--class RoundingMode-->
        <g id="elem_RoundingMode">
            <rect codeLine="2" fill="#F1F1F1" height="48" id="RoundingMode" rx="2.5" ry="2.5" style="stroke:#181818;stroke-width:0.5;" width="128" x="1765" y="130"/>
            <ellipse cx="1780" cy="146" fill="#ADD1B2" rx="11" ry="11" style="stroke:#181818;stroke-width:1.0;"/>
            <path d="M1782.7656,141.875 Q1782.9219,141.6563 1783.1094,141.5469 Q1783.2969,141.4375 1783.5156,141.4375 Q1783.8906,141.4375 1784.125,141.7031 Q1784.3594,141.9531 1784.3594,142.5625 L1784.3594,144.0156 Q1784.3594,144.625 1784.125,144.8906 Q1783.8906,145.1563 1783.5156,145.1563 Q1783.1719,145.1563 1782.9688,144.9531 Q1782.7656,144.7656 1782.6563,144.25 Q1782.6094,143.8906 1782.4219,143.7031 Q1782.0938,143.3281 1781.4844,143.1094 Q1780.875,142.8906 1780.25,142.8906 Q1779.4844,142.8906 1778.8438,143.2188 Q1778.2188,143.5469 1777.7188,144.2969 Q1777.2344,145.0469 1777.2344,146.0781 L1777.2344,147.1719 Q1777.2344,148.4063 1778.125,149.2344 Q1779.0156,150.0469 1780.6094,150.0469 Q1781.5469,150.0469 1782.2031,149.7969 Q1782.5938,149.6406 1783.0156,149.2031 Q1783.2813,148.9375 1783.4219,148.8594 Q1783.5781,148.7813 1783.7813,148.7813 Q1784.1094,148.7813 1784.3594,149.0469 Q1784.625,149.2969 1784.625,149.6406 Q1784.625,149.9844 1784.2813,150.3906 Q1783.7813,150.9688 1782.9844,151.2969 Q1781.9063,151.75 1780.6094,151.75 Q1779.0938,151.75 1777.8906,151.125 Q1776.9063,150.625 1776.2188,149.5625 Q1775.5313,148.4844 1775.5313,147.2031 L1775.5313,146.0469 Q1775.5313,144.7188 1776.1406,143.5781 Q1776.7656,142.4219 1777.8594,141.8125 Q1778.9531,141.1875 1780.1875,141.1875 Q1780.9219,141.1875 1781.5625,141.3594 Q1782.2188,141.5156 1782.7656,141.875 Z " fill="#000000"/>
            <text fill="#000000" font-family="sans-serif" font-size="14" lengthAdjust="spacing" textLength="96" x="1794" y="151.7285">RoundingMode</text>
            <line style="stroke:#181818;stroke-width:0.5;" x1="1766" x2="1892" y1="162" y2="162"/>
            <line style="stroke:#181818;stroke-width:0.5;" x1="1766" x2="1892" y1="170" y2="170"/>
        </g>
        <!--class LocalDateTime-->
        <g id="elem_LocalDateTime">
            <rect codeLine="3" fill="#F1F1F1" height="48" id="LocalDateTime" rx="2.5" ry="2.5" style="stroke:#181818;stroke-width:0.5;" width="127" x="1471.5" y="130"/>
            <ellipse cx="1486.5" cy="146" fill="#ADD1B2" rx="11" ry="11" style="stroke:#181818;stroke-width:1.0;"/>
            <path d="M1489.2656,141.875 Q1489.4219,141.6563 1489.6094,141.5469 Q1489.7969,141.4375 1490.0156,141.4375 Q1490.3906,141.4375 1490.625,141.7031 Q1490.8594,141.9531 1490.8594,142.5625 L1490.8594,144.0156 Q1490.8594,144.625 1490.625,144.8906 Q1490.3906,145.1563 1490.0156,145.1563 Q1489.6719,145.1563 1489.4688,144.9531 Q1489.2656,144.7656 1489.1563,144.25 Q1489.1094,143.8906 1488.9219,143.7031 Q1488.5938,143.3281 1487.9844,143.1094 Q1487.375,142.8906 1486.75,142.8906 Q1485.9844,142.8906 1485.3438,143.2188 Q1484.7188,143.5469 1484.2188,144.2969 Q1483.7344,145.0469 1483.7344,146.0781 L1483.7344,147.1719 Q1483.7344,148.4063 1484.625,149.2344 Q1485.5156,150.0469 1487.1094,150.0469 Q1488.0469,150.0469 1488.7031,149.7969 Q1489.0938,149.6406 1489.5156,149.2031 Q1489.7813,148.9375 1489.9219,148.8594 Q1490.0781,148.7813 1490.2813,148.7813 Q1490.6094,148.7813 1490.8594,149.0469 Q1491.125,149.2969 1491.125,149.6406 Q1491.125,149.9844 1490.7813,150.3906 Q1490.2813,150.9688 1489.4844,151.2969 Q1488.4063,151.75 1487.1094,151.75 Q1485.5938,151.75 1484.3906,151.125 Q1483.4063,150.625 1482.7188,149.5625 Q1482.0313,148.4844 1482.0313,147.2031 L1482.0313,146.0469 Q1482.0313,144.7188 1482.6406,143.5781 Q1483.2656,142.4219 1484.3594,141.8125 Q1485.4531,141.1875 1486.6875,141.1875 Q1487.4219,141.1875 1488.0625,141.3594 Q1488.7188,141.5156 1489.2656,141.875 Z " fill="#000000"/>
            <text fill="#000000" font-family="sans-serif" font-size="14" lengthAdjust="spacing" textLength="95" x="1500.5" y="151.7285">LocalDateTime</text>
            <line style="stroke:#181818;stroke-width:0.5;" x1="1472.5" x2="1597.5" y1="162" y2="162"/>
            <line style="stroke:#181818;stroke-width:0.5;" x1="1472.5" x2="1597.5" y1="170" y2="170"/>
        </g>
        <!--class List-->
        <g id="elem_List">
            <rect codeLine="4" fill="#F1F1F1" height="48" id="List" rx="2.5" ry="2.5" style="stroke:#181818;stroke-width:0.5;" width="54" x="1655" y="130"/>
            <ellipse cx="1670" cy="146" fill="#ADD1B2" rx="11" ry="11" style="stroke:#181818;stroke-width:1.0;"/>
            <path d="M1672.7656,141.875 Q1672.9219,141.6563 1673.1094,141.5469 Q1673.2969,141.4375 1673.5156,141.4375 Q1673.8906,141.4375 1674.125,141.7031 Q1674.3594,141.9531 1674.3594,142.5625 L1674.3594,144.0156 Q1674.3594,144.625 1674.125,144.8906 Q1673.8906,145.1563 1673.5156,145.1563 Q1673.1719,145.1563 1672.9688,144.9531 Q1672.7656,144.7656 1672.6563,144.25 Q1672.6094,143.8906 1672.4219,143.7031 Q1672.0938,143.3281 1671.4844,143.1094 Q1670.875,142.8906 1670.25,142.8906 Q1669.4844,142.8906 1668.8438,143.2188 Q1668.2188,143.5469 1667.7188,144.2969 Q1667.2344,145.0469 1667.2344,146.0781 L1667.2344,147.1719 Q1667.2344,148.4063 1668.125,149.2344 Q1669.0156,150.0469 1670.6094,150.0469 Q1671.5469,150.0469 1672.2031,149.7969 Q1672.5938,149.6406 1673.0156,149.2031 Q1673.2813,148.9375 1673.4219,148.8594 Q1673.5781,148.7813 1673.7813,148.7813 Q1674.1094,148.7813 1674.3594,149.0469 Q1674.625,149.2969 1674.625,149.6406 Q1674.625,149.9844 1674.2813,150.3906 Q1673.7813,150.9688 1672.9844,151.2969 Q1671.9063,151.75 1670.6094,151.75 Q1669.0938,151.75 1667.8906,151.125 Q1666.9063,150.625 1666.2188,149.5625 Q1665.5313,148.4844 1665.5313,147.2031 L1665.5313,146.0469 Q1665.5313,144.7188 1666.1406,143.5781 Q1666.7656,142.4219 1667.8594,141.8125 Q1668.9531,141.1875 1670.1875,141.1875 Q1670.9219,141.1875 1671.5625,141.3594 Q1672.2188,141.5156 1672.7656,141.875 Z " fill="#000000"/>
            <text fill="#000000" font-family="sans-serif" font-size="14" lengthAdjust="spacing" textLength="22" x="1684" y="151.7285">List</text>
            <line style="stroke:#181818;stroke-width:0.5;" x1="1656" x2="1708" y1="162" y2="162"/>
            <line style="stroke:#181818;stroke-width:0.5;" x1="1656" x2="1708" y1="170" y2="170"/>
        </g>
        <!--class Router-->
        <g id="elem_Router">
            <rect codeLine="5" fill="#F1F1F1" height="48" id="Router" rx="2.5" ry="2.5" style="stroke:#181818;stroke-width:0.5;" width="75" x="46.5" y="130"/>
            <ellipse cx="61.5" cy="146" fill="#ADD1B2" rx="11" ry="11" style="stroke:#181818;stroke-width:1.0;"/>
            <path d="M64.2656,141.875 Q64.4219,141.6563 64.6094,141.5469 Q64.7969,141.4375 65.0156,141.4375 Q65.3906,141.4375 65.625,141.7031 Q65.8594,141.9531 65.8594,142.5625 L65.8594,144.0156 Q65.8594,144.625 65.625,144.8906 Q65.3906,145.1563 65.0156,145.1563 Q64.6719,145.1563 64.4688,144.9531 Q64.2656,144.7656 64.1563,144.25 Q64.1094,143.8906 63.9219,143.7031 Q63.5938,143.3281 62.9844,143.1094 Q62.375,142.8906 61.75,142.8906 Q60.9844,142.8906 60.3438,143.2188 Q59.7188,143.5469 59.2188,144.2969 Q58.7344,145.0469 58.7344,146.0781 L58.7344,147.1719 Q58.7344,148.4063 59.625,149.2344 Q60.5156,150.0469 62.1094,150.0469 Q63.0469,150.0469 63.7031,149.7969 Q64.0938,149.6406 64.5156,149.2031 Q64.7813,148.9375 64.9219,148.8594 Q65.0781,148.7813 65.2813,148.7813 Q65.6094,148.7813 65.8594,149.0469 Q66.125,149.2969 66.125,149.6406 Q66.125,149.9844 65.7813,150.3906 Q65.2813,150.9688 64.4844,151.2969 Q63.4063,151.75 62.1094,151.75 Q60.5938,151.75 59.3906,151.125 Q58.4063,150.625 57.7188,149.5625 Q57.0313,148.4844 57.0313,147.2031 L57.0313,146.0469 Q57.0313,144.7188 57.6406,143.5781 Q58.2656,142.4219 59.3594,141.8125 Q60.4531,141.1875 61.6875,141.1875 Q62.4219,141.1875 63.0625,141.3594 Q63.7188,141.5156 64.2656,141.875 Z " fill="#000000"/>
            <text fill="#000000" font-family="sans-serif" font-size="14" lengthAdjust="spacing" textLength="43" x="75.5" y="151.7285">Router</text>
            <line style="stroke:#181818;stroke-width:0.5;" x1="47.5" x2="120.5" y1="162" y2="162"/>
            <line style="stroke:#181818;stroke-width:0.5;" x1="47.5" x2="120.5" y1="170" y2="170"/>
        </g>
        <!--class HomeController-->
        <g id="elem_HomeController">
            <rect codeLine="6" fill="#F1F1F1" height="48" id="HomeController" rx="2.5" ry="2.5" style="stroke:#181818;stroke-width:0.5;" width="130" x="1054" y="278"/>
            <ellipse cx="1069" cy="294" fill="#ADD1B2" rx="11" ry="11" style="stroke:#181818;stroke-width:1.0;"/>
            <path d="M1071.7656,289.875 Q1071.9219,289.6563 1072.1094,289.5469 Q1072.2969,289.4375 1072.5156,289.4375 Q1072.8906,289.4375 1073.125,289.7031 Q1073.3594,289.9531 1073.3594,290.5625 L1073.3594,292.0156 Q1073.3594,292.625 1073.125,292.8906 Q1072.8906,293.1563 1072.5156,293.1563 Q1072.1719,293.1563 1071.9688,292.9531 Q1071.7656,292.7656 1071.6563,292.25 Q1071.6094,291.8906 1071.4219,291.7031 Q1071.0938,291.3281 1070.4844,291.1094 Q1069.875,290.8906 1069.25,290.8906 Q1068.4844,290.8906 1067.8438,291.2188 Q1067.2188,291.5469 1066.7188,292.2969 Q1066.2344,293.0469 1066.2344,294.0781 L1066.2344,295.1719 Q1066.2344,296.4063 1067.125,297.2344 Q1068.0156,298.0469 1069.6094,298.0469 Q1070.5469,298.0469 1071.2031,297.7969 Q1071.5938,297.6406 1072.0156,297.2031 Q1072.2813,296.9375 1072.4219,296.8594 Q1072.5781,296.7813 1072.7813,296.7813 Q1073.1094,296.7813 1073.3594,297.0469 Q1073.625,297.2969 1073.625,297.6406 Q1073.625,297.9844 1073.2813,298.3906 Q1072.7813,298.9688 1071.9844,299.2969 Q1070.9063,299.75 1069.6094,299.75 Q1068.0938,299.75 1066.8906,299.125 Q1065.9063,298.625 1065.2188,297.5625 Q1064.5313,296.4844 1064.5313,295.2031 L1064.5313,294.0469 Q1064.5313,292.7188 1065.1406,291.5781 Q1065.7656,290.4219 1066.8594,289.8125 Q1067.9531,289.1875 1069.1875,289.1875 Q1069.9219,289.1875 1070.5625,289.3594 Q1071.2188,289.5156 1071.7656,289.875 Z " fill="#000000"/>
            <text fill="#000000" font-family="sans-serif" font-size="14" lengthAdjust="spacing" textLength="98" x="1083" y="299.7285">HomeController</text>
            <line style="stroke:#181818;stroke-width:0.5;" x1="1055" x2="1183" y1="310" y2="310"/>
            <line style="stroke:#181818;stroke-width:0.5;" x1="1055" x2="1183" y1="318" y2="318"/>
        </g>
        <!--class MarketController-->
        <g id="elem_MarketController">
            <rect codeLine="7" fill="#F1F1F1" height="48" id="MarketController" rx="2.5" ry="2.5" style="stroke:#181818;stroke-width:0.5;" width="137" x="881.5" y="278"/>
            <ellipse cx="896.5" cy="294" fill="#ADD1B2" rx="11" ry="11" style="stroke:#181818;stroke-width:1.0;"/>
            <path d="M899.2656,289.875 Q899.4219,289.6563 899.6094,289.5469 Q899.7969,289.4375 900.0156,289.4375 Q900.3906,289.4375 900.625,289.7031 Q900.8594,289.9531 900.8594,290.5625 L900.8594,292.0156 Q900.8594,292.625 900.625,292.8906 Q900.3906,293.1563 900.0156,293.1563 Q899.6719,293.1563 899.4688,292.9531 Q899.2656,292.7656 899.1563,292.25 Q899.1094,291.8906 898.9219,291.7031 Q898.5938,291.3281 897.9844,291.1094 Q897.375,290.8906 896.75,290.8906 Q895.9844,290.8906 895.3438,291.2188 Q894.7188,291.5469 894.2188,292.2969 Q893.7344,293.0469 893.7344,294.0781 L893.7344,295.1719 Q893.7344,296.4063 894.625,297.2344 Q895.5156,298.0469 897.1094,298.0469 Q898.0469,298.0469 898.7031,297.7969 Q899.0938,297.6406 899.5156,297.2031 Q899.7813,296.9375 899.9219,296.8594 Q900.0781,296.7813 900.2813,296.7813 Q900.6094,296.7813 900.8594,297.0469 Q901.125,297.2969 901.125,297.6406 Q901.125,297.9844 900.7813,298.3906 Q900.2813,298.9688 899.4844,299.2969 Q898.4063,299.75 897.1094,299.75 Q895.5938,299.75 894.3906,299.125 Q893.4063,298.625 892.7188,297.5625 Q892.0313,296.4844 892.0313,295.2031 L892.0313,294.0469 Q892.0313,292.7188 892.6406,291.5781 Q893.2656,290.4219 894.3594,289.8125 Q895.4531,289.1875 896.6875,289.1875 Q897.4219,289.1875 898.0625,289.3594 Q898.7188,289.5156 899.2656,289.875 Z " fill="#000000"/>
            <text fill="#000000" font-family="sans-serif" font-size="14" lengthAdjust="spacing" textLength="105" x="910.5" y="299.7285">MarketController</text>
            <line style="stroke:#181818;stroke-width:0.5;" x1="882.5" x2="1017.5" y1="310" y2="310"/>
            <line style="stroke:#181818;stroke-width:0.5;" x1="882.5" x2="1017.5" y1="318" y2="318"/>
        </g>
        <!--class RootController-->
        <g id="elem_RootController">
            <rect codeLine="8" fill="#F1F1F1" height="48" id="RootController" rx="2.5" ry="2.5" style="stroke:#181818;stroke-width:0.5;" width="124" x="1219" y="278"/>
            <ellipse cx="1234" cy="294" fill="#ADD1B2" rx="11" ry="11" style="stroke:#181818;stroke-width:1.0;"/>
            <path d="M1236.7656,289.875 Q1236.9219,289.6563 1237.1094,289.5469 Q1237.2969,289.4375 1237.5156,289.4375 Q1237.8906,289.4375 1238.125,289.7031 Q1238.3594,289.9531 1238.3594,290.5625 L1238.3594,292.0156 Q1238.3594,292.625 1238.125,292.8906 Q1237.8906,293.1563 1237.5156,293.1563 Q1237.1719,293.1563 1236.9688,292.9531 Q1236.7656,292.7656 1236.6563,292.25 Q1236.6094,291.8906 1236.4219,291.7031 Q1236.0938,291.3281 1235.4844,291.1094 Q1234.875,290.8906 1234.25,290.8906 Q1233.4844,290.8906 1232.8438,291.2188 Q1232.2188,291.5469 1231.7188,292.2969 Q1231.2344,293.0469 1231.2344,294.0781 L1231.2344,295.1719 Q1231.2344,296.4063 1232.125,297.2344 Q1233.0156,298.0469 1234.6094,298.0469 Q1235.5469,298.0469 1236.2031,297.7969 Q1236.5938,297.6406 1237.0156,297.2031 Q1237.2813,296.9375 1237.4219,296.8594 Q1237.5781,296.7813 1237.7813,296.7813 Q1238.1094,296.7813 1238.3594,297.0469 Q1238.625,297.2969 1238.625,297.6406 Q1238.625,297.9844 1238.2813,298.3906 Q1237.7813,298.9688 1236.9844,299.2969 Q1235.9063,299.75 1234.6094,299.75 Q1233.0938,299.75 1231.8906,299.125 Q1230.9063,298.625 1230.2188,297.5625 Q1229.5313,296.4844 1229.5313,295.2031 L1229.5313,294.0469 Q1229.5313,292.7188 1230.1406,291.5781 Q1230.7656,290.4219 1231.8594,289.8125 Q1232.9531,289.1875 1234.1875,289.1875 Q1234.9219,289.1875 1235.5625,289.3594 Q1236.2188,289.5156 1236.7656,289.875 Z " fill="#000000"/>
            <text fill="#000000" font-family="sans-serif" font-size="14" lengthAdjust="spacing" textLength="92" x="1248" y="299.7285">RootController</text>
            <line style="stroke:#181818;stroke-width:0.5;" x1="1220" x2="1342" y1="310" y2="310"/>
            <line style="stroke:#181818;stroke-width:0.5;" x1="1220" x2="1342" y1="318" y2="318"/>
        </g>
        <!--class Controller-->
        <g id="elem_Controller">
            <rect codeLine="19" fill="#F1F1F1" height="48" id="Controller" rx="2.5" ry="2.5" style="stroke:#181818;stroke-width:0.5;" width="94" x="1072" y="402"/>
            <ellipse cx="1087" cy="418" fill="#B4A7E5" rx="11" ry="11" style="stroke:#181818;stroke-width:1.0;"/>
            <path d="M1087.9531,414.6406 L1087.9531,421.2969 L1089.6719,421.2969 Q1090.2813,421.2969 1090.5469,421.5313 Q1090.8125,421.7656 1090.8125,422.1563 Q1090.8125,422.5313 1090.5469,422.7656 Q1090.2813,423 1089.6719,423 L1084.5313,423 Q1083.9219,423 1083.6563,422.7656 Q1083.3906,422.5313 1083.3906,422.1406 Q1083.3906,421.7656 1083.6563,421.5313 Q1083.9219,421.2969 1084.5313,421.2969 L1086.25,421.2969 L1086.25,414.6406 L1084.5313,414.6406 Q1083.9219,414.6406 1083.6563,414.4063 Q1083.3906,414.1719 1083.3906,413.7813 Q1083.3906,413.4063 1083.6563,413.1719 Q1083.9219,412.9375 1084.5313,412.9375 L1089.6719,412.9375 Q1090.2813,412.9375 1090.5469,413.1719 Q1090.8125,413.4063 1090.8125,413.7813 Q1090.8125,414.1719 1090.5469,414.4063 Q1090.2813,414.6406 1089.6719,414.6406 L1087.9531,414.6406 Z " fill="#000000"/>
            <text fill="#000000" font-family="sans-serif" font-size="14" font-style="italic" lengthAdjust="spacing" textLength="62" x="1101" y="423.7285">Controller</text>
            <line style="stroke:#181818;stroke-width:0.5;" x1="1073" x2="1165" y1="434" y2="434"/>
            <line style="stroke:#181818;stroke-width:0.5;" x1="1073" x2="1165" y1="442" y2="442"/>
        </g>
        <!--class MarketOrder-->
        <g id="elem_MarketOrder">
            <rect codeLine="9" fill="#F1F1F1" height="48" id="MarketOrder" rx="2.5" ry="2.5" style="stroke:#181818;stroke-width:0.5;" width="112" x="570" y="130"/>
            <ellipse cx="585" cy="146" fill="#ADD1B2" rx="11" ry="11" style="stroke:#181818;stroke-width:1.0;"/>
            <path d="M587.7656,141.875 Q587.9219,141.6563 588.1094,141.5469 Q588.2969,141.4375 588.5156,141.4375 Q588.8906,141.4375 589.125,141.7031 Q589.3594,141.9531 589.3594,142.5625 L589.3594,144.0156 Q589.3594,144.625 589.125,144.8906 Q588.8906,145.1563 588.5156,145.1563 Q588.1719,145.1563 587.9688,144.9531 Q587.7656,144.7656 587.6563,144.25 Q587.6094,143.8906 587.4219,143.7031 Q587.0938,143.3281 586.4844,143.1094 Q585.875,142.8906 585.25,142.8906 Q584.4844,142.8906 583.8438,143.2188 Q583.2188,143.5469 582.7188,144.2969 Q582.2344,145.0469 582.2344,146.0781 L582.2344,147.1719 Q582.2344,148.4063 583.125,149.2344 Q584.0156,150.0469 585.6094,150.0469 Q586.5469,150.0469 587.2031,149.7969 Q587.5938,149.6406 588.0156,149.2031 Q588.2813,148.9375 588.4219,148.8594 Q588.5781,148.7813 588.7813,148.7813 Q589.1094,148.7813 589.3594,149.0469 Q589.625,149.2969 589.625,149.6406 Q589.625,149.9844 589.2813,150.3906 Q588.7813,150.9688 587.9844,151.2969 Q586.9063,151.75 585.6094,151.75 Q584.0938,151.75 582.8906,151.125 Q581.9063,150.625 581.2188,149.5625 Q580.5313,148.4844 580.5313,147.2031 L580.5313,146.0469 Q580.5313,144.7188 581.1406,143.5781 Q581.7656,142.4219 582.8594,141.8125 Q583.9531,141.1875 585.1875,141.1875 Q585.9219,141.1875 586.5625,141.3594 Q587.2188,141.5156 587.7656,141.875 Z " fill="#000000"/>
            <text fill="#000000" font-family="sans-serif" font-size="14" lengthAdjust="spacing" textLength="80" x="599" y="151.7285">MarketOrder</text>
            <line style="stroke:#181818;stroke-width:0.5;" x1="571" x2="681" y1="162" y2="162"/>
            <line style="stroke:#181818;stroke-width:0.5;" x1="571" x2="681" y1="170" y2="170"/>
        </g>
        <!--class Transaction-->
        <g id="elem_Transaction">
            <rect codeLine="10" fill="#F1F1F1" height="48" id="Transaction" rx="2.5" ry="2.5" style="stroke:#181818;stroke-width:0.5;" width="107" x="717.5" y="130"/>
            <ellipse cx="732.5" cy="146" fill="#ADD1B2" rx="11" ry="11" style="stroke:#181818;stroke-width:1.0;"/>
            <path d="M735.2656,141.875 Q735.4219,141.6563 735.6094,141.5469 Q735.7969,141.4375 736.0156,141.4375 Q736.3906,141.4375 736.625,141.7031 Q736.8594,141.9531 736.8594,142.5625 L736.8594,144.0156 Q736.8594,144.625 736.625,144.8906 Q736.3906,145.1563 736.0156,145.1563 Q735.6719,145.1563 735.4688,144.9531 Q735.2656,144.7656 735.1563,144.25 Q735.1094,143.8906 734.9219,143.7031 Q734.5938,143.3281 733.9844,143.1094 Q733.375,142.8906 732.75,142.8906 Q731.9844,142.8906 731.3438,143.2188 Q730.7188,143.5469 730.2188,144.2969 Q729.7344,145.0469 729.7344,146.0781 L729.7344,147.1719 Q729.7344,148.4063 730.625,149.2344 Q731.5156,150.0469 733.1094,150.0469 Q734.0469,150.0469 734.7031,149.7969 Q735.0938,149.6406 735.5156,149.2031 Q735.7813,148.9375 735.9219,148.8594 Q736.0781,148.7813 736.2813,148.7813 Q736.6094,148.7813 736.8594,149.0469 Q737.125,149.2969 737.125,149.6406 Q737.125,149.9844 736.7813,150.3906 Q736.2813,150.9688 735.4844,151.2969 Q734.4063,151.75 733.1094,151.75 Q731.5938,151.75 730.3906,151.125 Q729.4063,150.625 728.7188,149.5625 Q728.0313,148.4844 728.0313,147.2031 L728.0313,146.0469 Q728.0313,144.7188 728.6406,143.5781 Q729.2656,142.4219 730.3594,141.8125 Q731.4531,141.1875 732.6875,141.1875 Q733.4219,141.1875 734.0625,141.3594 Q734.7188,141.5156 735.2656,141.875 Z " fill="#000000"/>
            <text fill="#000000" font-family="sans-serif" font-size="14" lengthAdjust="spacing" textLength="75" x="746.5" y="151.7285">Transaction</text>
            <line style="stroke:#181818;stroke-width:0.5;" x1="718.5" x2="823.5" y1="162" y2="162"/>
            <line style="stroke:#181818;stroke-width:0.5;" x1="718.5" x2="823.5" y1="170" y2="170"/>
        </g>
        <!--class User-->
        <g id="elem_User">
            <rect codeLine="11" fill="#F1F1F1" height="48" id="User" rx="2.5" ry="2.5" style="stroke:#181818;stroke-width:0.5;" width="61" x="582.5" y="278"/>
            <ellipse cx="597.5" cy="294" fill="#ADD1B2" rx="11" ry="11" style="stroke:#181818;stroke-width:1.0;"/>
            <path d="M600.2656,289.875 Q600.4219,289.6563 600.6094,289.5469 Q600.7969,289.4375 601.0156,289.4375 Q601.3906,289.4375 601.625,289.7031 Q601.8594,289.9531 601.8594,290.5625 L601.8594,292.0156 Q601.8594,292.625 601.625,292.8906 Q601.3906,293.1563 601.0156,293.1563 Q600.6719,293.1563 600.4688,292.9531 Q600.2656,292.7656 600.1563,292.25 Q600.1094,291.8906 599.9219,291.7031 Q599.5938,291.3281 598.9844,291.1094 Q598.375,290.8906 597.75,290.8906 Q596.9844,290.8906 596.3438,291.2188 Q595.7188,291.5469 595.2188,292.2969 Q594.7344,293.0469 594.7344,294.0781 L594.7344,295.1719 Q594.7344,296.4063 595.625,297.2344 Q596.5156,298.0469 598.1094,298.0469 Q599.0469,298.0469 599.7031,297.7969 Q600.0938,297.6406 600.5156,297.2031 Q600.7813,296.9375 600.9219,296.8594 Q601.0781,296.7813 601.2813,296.7813 Q601.6094,296.7813 601.8594,297.0469 Q602.125,297.2969 602.125,297.6406 Q602.125,297.9844 601.7813,298.3906 Q601.2813,298.9688 600.4844,299.2969 Q599.4063,299.75 598.1094,299.75 Q596.5938,299.75 595.3906,299.125 Q594.4063,298.625 593.7188,297.5625 Q593.0313,296.4844 593.0313,295.2031 L593.0313,294.0469 Q593.0313,292.7188 593.6406,291.5781 Q594.2656,290.4219 595.3594,289.8125 Q596.4531,289.1875 597.6875,289.1875 Q598.4219,289.1875 599.0625,289.3594 Q599.7188,289.5156 600.2656,289.875 Z " fill="#000000"/>
            <text fill="#000000" font-family="sans-serif" font-size="14" lengthAdjust="spacing" textLength="29" x="611.5" y="299.7285">User</text>
            <line style="stroke:#181818;stroke-width:0.5;" x1="583.5" x2="642.5" y1="310" y2="310"/>
            <line style="stroke:#181818;stroke-width:0.5;" x1="583.5" x2="642.5" y1="318" y2="318"/>
        </g>
        <!--class AccountService-->
        <g id="elem_AccountService">
            <rect codeLine="12" fill="#F1F1F1" height="48" id="AccountService" rx="2.5" ry="2.5" style="stroke:#181818;stroke-width:0.5;" width="130" x="157" y="130"/>
            <ellipse cx="172" cy="146" fill="#ADD1B2" rx="11" ry="11" style="stroke:#181818;stroke-width:1.0;"/>
            <path d="M174.7656,141.875 Q174.9219,141.6563 175.1094,141.5469 Q175.2969,141.4375 175.5156,141.4375 Q175.8906,141.4375 176.125,141.7031 Q176.3594,141.9531 176.3594,142.5625 L176.3594,144.0156 Q176.3594,144.625 176.125,144.8906 Q175.8906,145.1563 175.5156,145.1563 Q175.1719,145.1563 174.9688,144.9531 Q174.7656,144.7656 174.6563,144.25 Q174.6094,143.8906 174.4219,143.7031 Q174.0938,143.3281 173.4844,143.1094 Q172.875,142.8906 172.25,142.8906 Q171.4844,142.8906 170.8438,143.2188 Q170.2188,143.5469 169.7188,144.2969 Q169.2344,145.0469 169.2344,146.0781 L169.2344,147.1719 Q169.2344,148.4063 170.125,149.2344 Q171.0156,150.0469 172.6094,150.0469 Q173.5469,150.0469 174.2031,149.7969 Q174.5938,149.6406 175.0156,149.2031 Q175.2813,148.9375 175.4219,148.8594 Q175.5781,148.7813 175.7813,148.7813 Q176.1094,148.7813 176.3594,149.0469 Q176.625,149.2969 176.625,149.6406 Q176.625,149.9844 176.2813,150.3906 Q175.7813,150.9688 174.9844,151.2969 Q173.9063,151.75 172.6094,151.75 Q171.0938,151.75 169.8906,151.125 Q168.9063,150.625 168.2188,149.5625 Q167.5313,148.4844 167.5313,147.2031 L167.5313,146.0469 Q167.5313,144.7188 168.1406,143.5781 Q168.7656,142.4219 169.8594,141.8125 Q170.9531,141.1875 172.1875,141.1875 Q172.9219,141.1875 173.5625,141.3594 Q174.2188,141.5156 174.7656,141.875 Z " fill="#000000"/>
            <text fill="#000000" font-family="sans-serif" font-size="14" lengthAdjust="spacing" textLength="98" x="186" y="151.7285">AccountService</text>
            <line style="stroke:#181818;stroke-width:0.5;" x1="158" x2="286" y1="162" y2="162"/>
            <line style="stroke:#181818;stroke-width:0.5;" x1="158" x2="286" y1="170" y2="170"/>
        </g>
        <!--class AccountServiceException-->
        <g id="elem_AccountServiceException">
            <rect codeLine="13" fill="#F1F1F1" height="48" id="AccountServiceException" rx="2.5" ry="2.5" style="stroke:#181818;stroke-width:0.5;" width="191" x="322.5" y="130"/>
            <ellipse cx="337.5" cy="146" fill="#ADD1B2" rx="11" ry="11" style="stroke:#181818;stroke-width:1.0;"/>
            <path d="M340.2656,141.875 Q340.4219,141.6563 340.6094,141.5469 Q340.7969,141.4375 341.0156,141.4375 Q341.3906,141.4375 341.625,141.7031 Q341.8594,141.9531 341.8594,142.5625 L341.8594,144.0156 Q341.8594,144.625 341.625,144.8906 Q341.3906,145.1563 341.0156,145.1563 Q340.6719,145.1563 340.4688,144.9531 Q340.2656,144.7656 340.1563,144.25 Q340.1094,143.8906 339.9219,143.7031 Q339.5938,143.3281 338.9844,143.1094 Q338.375,142.8906 337.75,142.8906 Q336.9844,142.8906 336.3438,143.2188 Q335.7188,143.5469 335.2188,144.2969 Q334.7344,145.0469 334.7344,146.0781 L334.7344,147.1719 Q334.7344,148.4063 335.625,149.2344 Q336.5156,150.0469 338.1094,150.0469 Q339.0469,150.0469 339.7031,149.7969 Q340.0938,149.6406 340.5156,149.2031 Q340.7813,148.9375 340.9219,148.8594 Q341.0781,148.7813 341.2813,148.7813 Q341.6094,148.7813 341.8594,149.0469 Q342.125,149.2969 342.125,149.6406 Q342.125,149.9844 341.7813,150.3906 Q341.2813,150.9688 340.4844,151.2969 Q339.4063,151.75 338.1094,151.75 Q336.5938,151.75 335.3906,151.125 Q334.4063,150.625 333.7188,149.5625 Q333.0313,148.4844 333.0313,147.2031 L333.0313,146.0469 Q333.0313,144.7188 333.6406,143.5781 Q334.2656,142.4219 335.3594,141.8125 Q336.4531,141.1875 337.6875,141.1875 Q338.4219,141.1875 339.0625,141.3594 Q339.7188,141.5156 340.2656,141.875 Z " fill="#000000"/>
            <text fill="#000000" font-family="sans-serif" font-size="14" lengthAdjust="spacing" textLength="159" x="351.5" y="151.7285">AccountServiceException</text>
            <line style="stroke:#181818;stroke-width:0.5;" x1="323.5" x2="512.5" y1="162" y2="162"/>
            <line style="stroke:#181818;stroke-width:0.5;" x1="323.5" x2="512.5" y1="170" y2="170"/>
        </g>
        <!--class ExchangeService-->
        <g id="elem_ExchangeService">
            <rect codeLine="14" fill="#F1F1F1" height="48" id="ExchangeService" rx="2.5" ry="2.5" style="stroke:#181818;stroke-width:0.5;" width="141" x="157.5" y="278"/>
            <ellipse cx="172.5" cy="294" fill="#ADD1B2" rx="11" ry="11" style="stroke:#181818;stroke-width:1.0;"/>
            <path d="M175.2656,289.875 Q175.4219,289.6563 175.6094,289.5469 Q175.7969,289.4375 176.0156,289.4375 Q176.3906,289.4375 176.625,289.7031 Q176.8594,289.9531 176.8594,290.5625 L176.8594,292.0156 Q176.8594,292.625 176.625,292.8906 Q176.3906,293.1563 176.0156,293.1563 Q175.6719,293.1563 175.4688,292.9531 Q175.2656,292.7656 175.1563,292.25 Q175.1094,291.8906 174.9219,291.7031 Q174.5938,291.3281 173.9844,291.1094 Q173.375,290.8906 172.75,290.8906 Q171.9844,290.8906 171.3438,291.2188 Q170.7188,291.5469 170.2188,292.2969 Q169.7344,293.0469 169.7344,294.0781 L169.7344,295.1719 Q169.7344,296.4063 170.625,297.2344 Q171.5156,298.0469 173.1094,298.0469 Q174.0469,298.0469 174.7031,297.7969 Q175.0938,297.6406 175.5156,297.2031 Q175.7813,296.9375 175.9219,296.8594 Q176.0781,296.7813 176.2813,296.7813 Q176.6094,296.7813 176.8594,297.0469 Q177.125,297.2969 177.125,297.6406 Q177.125,297.9844 176.7813,298.3906 Q176.2813,298.9688 175.4844,299.2969 Q174.4063,299.75 173.1094,299.75 Q171.5938,299.75 170.3906,299.125 Q169.4063,298.625 168.7188,297.5625 Q168.0313,296.4844 168.0313,295.2031 L168.0313,294.0469 Q168.0313,292.7188 168.6406,291.5781 Q169.2656,290.4219 170.3594,289.8125 Q171.4531,289.1875 172.6875,289.1875 Q173.4219,289.1875 174.0625,289.3594 Q174.7188,289.5156 175.2656,289.875 Z " fill="#000000"/>
            <text fill="#000000" font-family="sans-serif" font-size="14" lengthAdjust="spacing" textLength="109" x="186.5" y="299.7285">ExchangeService</text>
            <line style="stroke:#181818;stroke-width:0.5;" x1="158.5" x2="297.5" y1="310" y2="310"/>
            <line style="stroke:#181818;stroke-width:0.5;" x1="158.5" x2="297.5" y1="318" y2="318"/>
        </g>
        <!--class TradingService-->
        <g id="elem_TradingService">
            <rect codeLine="15" fill="#F1F1F1" height="48" id="TradingService" rx="2.5" ry="2.5" style="stroke:#181818;stroke-width:0.5;" width="128" x="334" y="278"/>
            <ellipse cx="349" cy="294" fill="#ADD1B2" rx="11" ry="11" style="stroke:#181818;stroke-width:1.0;"/>
            <path d="M351.7656,289.875 Q351.9219,289.6563 352.1094,289.5469 Q352.2969,289.4375 352.5156,289.4375 Q352.8906,289.4375 353.125,289.7031 Q353.3594,289.9531 353.3594,290.5625 L353.3594,292.0156 Q353.3594,292.625 353.125,292.8906 Q352.8906,293.1563 352.5156,293.1563 Q352.1719,293.1563 351.9688,292.9531 Q351.7656,292.7656 351.6563,292.25 Q351.6094,291.8906 351.4219,291.7031 Q351.0938,291.3281 350.4844,291.1094 Q349.875,290.8906 349.25,290.8906 Q348.4844,290.8906 347.8438,291.2188 Q347.2188,291.5469 346.7188,292.2969 Q346.2344,293.0469 346.2344,294.0781 L346.2344,295.1719 Q346.2344,296.4063 347.125,297.2344 Q348.0156,298.0469 349.6094,298.0469 Q350.5469,298.0469 351.2031,297.7969 Q351.5938,297.6406 352.0156,297.2031 Q352.2813,296.9375 352.4219,296.8594 Q352.5781,296.7813 352.7813,296.7813 Q353.1094,296.7813 353.3594,297.0469 Q353.625,297.2969 353.625,297.6406 Q353.625,297.9844 353.2813,298.3906 Q352.7813,298.9688 351.9844,299.2969 Q350.9063,299.75 349.6094,299.75 Q348.0938,299.75 346.8906,299.125 Q345.9063,298.625 345.2188,297.5625 Q344.5313,296.4844 344.5313,295.2031 L344.5313,294.0469 Q344.5313,292.7188 345.1406,291.5781 Q345.7656,290.4219 346.8594,289.8125 Q347.9531,289.1875 349.1875,289.1875 Q349.9219,289.1875 350.5625,289.3594 Q351.2188,289.5156 351.7656,289.875 Z " fill="#000000"/>
            <text fill="#000000" font-family="sans-serif" font-size="14" lengthAdjust="spacing" textLength="96" x="363" y="299.7285">TradingService</text>
            <line style="stroke:#181818;stroke-width:0.5;" x1="335" x2="461" y1="310" y2="310"/>
            <line style="stroke:#181818;stroke-width:0.5;" x1="335" x2="461" y1="318" y2="318"/>
        </g>
        <!--class HomeView-->
        <g id="elem_HomeView">
            <rect codeLine="16" fill="#F1F1F1" height="48" id="HomeView" rx="2.5" ry="2.5" style="stroke:#181818;stroke-width:0.5;" width="97" x="114.5" y="402"/>
            <ellipse cx="129.5" cy="418" fill="#ADD1B2" rx="11" ry="11" style="stroke:#181818;stroke-width:1.0;"/>
            <path d="M132.2656,413.875 Q132.4219,413.6563 132.6094,413.5469 Q132.7969,413.4375 133.0156,413.4375 Q133.3906,413.4375 133.625,413.7031 Q133.8594,413.9531 133.8594,414.5625 L133.8594,416.0156 Q133.8594,416.625 133.625,416.8906 Q133.3906,417.1563 133.0156,417.1563 Q132.6719,417.1563 132.4688,416.9531 Q132.2656,416.7656 132.1563,416.25 Q132.1094,415.8906 131.9219,415.7031 Q131.5938,415.3281 130.9844,415.1094 Q130.375,414.8906 129.75,414.8906 Q128.9844,414.8906 128.3438,415.2188 Q127.7188,415.5469 127.2188,416.2969 Q126.7344,417.0469 126.7344,418.0781 L126.7344,419.1719 Q126.7344,420.4063 127.625,421.2344 Q128.5156,422.0469 130.1094,422.0469 Q131.0469,422.0469 131.7031,421.7969 Q132.0938,421.6406 132.5156,421.2031 Q132.7813,420.9375 132.9219,420.8594 Q133.0781,420.7813 133.2813,420.7813 Q133.6094,420.7813 133.8594,421.0469 Q134.125,421.2969 134.125,421.6406 Q134.125,421.9844 133.7813,422.3906 Q133.2813,422.9688 132.4844,423.2969 Q131.4063,423.75 130.1094,423.75 Q128.5938,423.75 127.3906,423.125 Q126.4063,422.625 125.7188,421.5625 Q125.0313,420.4844 125.0313,419.2031 L125.0313,418.0469 Q125.0313,416.7188 125.6406,415.5781 Q126.2656,414.4219 127.3594,413.8125 Q128.4531,413.1875 129.6875,413.1875 Q130.4219,413.1875 131.0625,413.3594 Q131.7188,413.5156 132.2656,413.875 Z " fill="#000000"/>
            <text fill="#000000" font-family="sans-serif" font-size="14" lengthAdjust="spacing" textLength="65" x="143.5" y="423.7285">HomeView</text>
            <line style="stroke:#181818;stroke-width:0.5;" x1="115.5" x2="210.5" y1="434" y2="434"/>
            <line style="stroke:#181818;stroke-width:0.5;" x1="115.5" x2="210.5" y1="442" y2="442"/>
        </g>
        <!--class MarketView-->
        <g id="elem_MarketView">
            <rect codeLine="17" fill="#F1F1F1" height="48" id="MarketView" rx="2.5" ry="2.5" style="stroke:#181818;stroke-width:0.5;" width="104" x="247" y="402"/>
            <ellipse cx="262" cy="418" fill="#ADD1B2" rx="11" ry="11" style="stroke:#181818;stroke-width:1.0;"/>
            <path d="M264.7656,413.875 Q264.9219,413.6563 265.1094,413.5469 Q265.2969,413.4375 265.5156,413.4375 Q265.8906,413.4375 266.125,413.7031 Q266.3594,413.9531 266.3594,414.5625 L266.3594,416.0156 Q266.3594,416.625 266.125,416.8906 Q265.8906,417.1563 265.5156,417.1563 Q265.1719,417.1563 264.9688,416.9531 Q264.7656,416.7656 264.6563,416.25 Q264.6094,415.8906 264.4219,415.7031 Q264.0938,415.3281 263.4844,415.1094 Q262.875,414.8906 262.25,414.8906 Q261.4844,414.8906 260.8438,415.2188 Q260.2188,415.5469 259.7188,416.2969 Q259.2344,417.0469 259.2344,418.0781 L259.2344,419.1719 Q259.2344,420.4063 260.125,421.2344 Q261.0156,422.0469 262.6094,422.0469 Q263.5469,422.0469 264.2031,421.7969 Q264.5938,421.6406 265.0156,421.2031 Q265.2813,420.9375 265.4219,420.8594 Q265.5781,420.7813 265.7813,420.7813 Q266.1094,420.7813 266.3594,421.0469 Q266.625,421.2969 266.625,421.6406 Q266.625,421.9844 266.2813,422.3906 Q265.7813,422.9688 264.9844,423.2969 Q263.9063,423.75 262.6094,423.75 Q261.0938,423.75 259.8906,423.125 Q258.9063,422.625 258.2188,421.5625 Q257.5313,420.4844 257.5313,419.2031 L257.5313,418.0469 Q257.5313,416.7188 258.1406,415.5781 Q258.7656,414.4219 259.8594,413.8125 Q260.9531,413.1875 262.1875,413.1875 Q262.9219,413.1875 263.5625,413.3594 Q264.2188,413.5156 264.7656,413.875 Z " fill="#000000"/>
            <text fill="#000000" font-family="sans-serif" font-size="14" lengthAdjust="spacing" textLength="72" x="276" y="423.7285">MarketView</text>
            <line style="stroke:#181818;stroke-width:0.5;" x1="248" x2="350" y1="434" y2="434"/>
            <line style="stroke:#181818;stroke-width:0.5;" x1="248" x2="350" y1="442" y2="442"/>
        </g>
        <!--class RootView-->
        <g id="elem_RootView">
            <rect codeLine="18" fill="#F1F1F1" height="48" id="RootView" rx="2.5" ry="2.5" style="stroke:#181818;stroke-width:0.5;" width="91" x="117.5" y="510"/>
            <ellipse cx="132.5" cy="526" fill="#ADD1B2" rx="11" ry="11" style="stroke:#181818;stroke-width:1.0;"/>
            <path d="M135.2656,521.875 Q135.4219,521.6563 135.6094,521.5469 Q135.7969,521.4375 136.0156,521.4375 Q136.3906,521.4375 136.625,521.7031 Q136.8594,521.9531 136.8594,522.5625 L136.8594,524.0156 Q136.8594,524.625 136.625,524.8906 Q136.3906,525.1563 136.0156,525.1563 Q135.6719,525.1563 135.4688,524.9531 Q135.2656,524.7656 135.1563,524.25 Q135.1094,523.8906 134.9219,523.7031 Q134.5938,523.3281 133.9844,523.1094 Q133.375,522.8906 132.75,522.8906 Q131.9844,522.8906 131.3438,523.2188 Q130.7188,523.5469 130.2188,524.2969 Q129.7344,525.0469 129.7344,526.0781 L129.7344,527.1719 Q129.7344,528.4063 130.625,529.2344 Q131.5156,530.0469 133.1094,530.0469 Q134.0469,530.0469 134.7031,529.7969 Q135.0938,529.6406 135.5156,529.2031 Q135.7813,528.9375 135.9219,528.8594 Q136.0781,528.7813 136.2813,528.7813 Q136.6094,528.7813 136.8594,529.0469 Q137.125,529.2969 137.125,529.6406 Q137.125,529.9844 136.7813,530.3906 Q136.2813,530.9688 135.4844,531.2969 Q134.4063,531.75 133.1094,531.75 Q131.5938,531.75 130.3906,531.125 Q129.4063,530.625 128.7188,529.5625 Q128.0313,528.4844 128.0313,527.2031 L128.0313,526.0469 Q128.0313,524.7188 128.6406,523.5781 Q129.2656,522.4219 130.3594,521.8125 Q131.4531,521.1875 132.6875,521.1875 Q133.4219,521.1875 134.0625,521.3594 Q134.7188,521.5156 135.2656,521.875 Z " fill="#000000"/>
            <text fill="#000000" font-family="sans-serif" font-size="14" lengthAdjust="spacing" textLength="59" x="146.5" y="531.7285">RootView</text>
            <line style="stroke:#181818;stroke-width:0.5;" x1="118.5" x2="207.5" y1="542" y2="542"/>
            <line style="stroke:#181818;stroke-width:0.5;" x1="118.5" x2="207.5" y1="550" y2="550"/>
        </g>
        <!--class ExchangeServiceSubscriber-->
        <g id="elem_ExchangeServiceSubscriber">
            <rect codeLine="20" fill="#F1F1F1" height="48" id="ExchangeServiceSubscriber" rx="2.5" ry="2.5" style="stroke:#181818;stroke-width:0.5;" width="208" x="386" y="402"/>
            <ellipse cx="401" cy="418" fill="#B4A7E5" rx="11" ry="11" style="stroke:#181818;stroke-width:1.0;"/>
            <path d="M401.9531,414.6406 L401.9531,421.2969 L403.6719,421.2969 Q404.2813,421.2969 404.5469,421.5313 Q404.8125,421.7656 404.8125,422.1563 Q404.8125,422.5313 404.5469,422.7656 Q404.2813,423 403.6719,423 L398.5313,423 Q397.9219,423 397.6563,422.7656 Q397.3906,422.5313 397.3906,422.1406 Q397.3906,421.7656 397.6563,421.5313 Q397.9219,421.2969 398.5313,421.2969 L400.25,421.2969 L400.25,414.6406 L398.5313,414.6406 Q397.9219,414.6406 397.6563,414.4063 Q397.3906,414.1719 397.3906,413.7813 Q397.3906,413.4063 397.6563,413.1719 Q397.9219,412.9375 398.5313,412.9375 L403.6719,412.9375 Q404.2813,412.9375 404.5469,413.1719 Q404.8125,413.4063 404.8125,413.7813 Q404.8125,414.1719 404.5469,414.4063 Q404.2813,414.6406 403.6719,414.6406 L401.9531,414.6406 Z " fill="#000000"/>
            <text fill="#000000" font-family="sans-serif" font-size="14" font-style="italic" lengthAdjust="spacing" textLength="176" x="415" y="423.7285">ExchangeServiceSubscriber</text>
            <line style="stroke:#181818;stroke-width:0.5;" x1="387" x2="593" y1="434" y2="434"/>
            <line style="stroke:#181818;stroke-width:0.5;" x1="387" x2="593" y1="442" y2="442"/>
        </g>
        <!--class TradingServiceSubscriber-->
        <g id="elem_TradingServiceSubscriber">
            <rect codeLine="21" fill="#F1F1F1" height="48" id="TradingServiceSubscriber" rx="2.5" ry="2.5" style="stroke:#181818;stroke-width:0.5;" width="195" x="629.5" y="402"/>
            <ellipse cx="644.5" cy="418" fill="#B4A7E5" rx="11" ry="11" style="stroke:#181818;stroke-width:1.0;"/>
            <path d="M645.4531,414.6406 L645.4531,421.2969 L647.1719,421.2969 Q647.7813,421.2969 648.0469,421.5313 Q648.3125,421.7656 648.3125,422.1563 Q648.3125,422.5313 648.0469,422.7656 Q647.7813,423 647.1719,423 L642.0313,423 Q641.4219,423 641.1563,422.7656 Q640.8906,422.5313 640.8906,422.1406 Q640.8906,421.7656 641.1563,421.5313 Q641.4219,421.2969 642.0313,421.2969 L643.75,421.2969 L643.75,414.6406 L642.0313,414.6406 Q641.4219,414.6406 641.1563,414.4063 Q640.8906,414.1719 640.8906,413.7813 Q640.8906,413.4063 641.1563,413.1719 Q641.4219,412.9375 642.0313,412.9375 L647.1719,412.9375 Q647.7813,412.9375 648.0469,413.1719 Q648.3125,413.4063 648.3125,413.7813 Q648.3125,414.1719 648.0469,414.4063 Q647.7813,414.6406 647.1719,414.6406 L645.4531,414.6406 Z " fill="#000000"/>
            <text fill="#000000" font-family="sans-serif" font-size="14" font-style="italic" lengthAdjust="spacing" textLength="163" x="658.5" y="423.7285">TradingServiceSubscriber</text>
            <line style="stroke:#181818;stroke-width:0.5;" x1="630.5" x2="823.5" y1="434" y2="434"/>
            <line style="stroke:#181818;stroke-width:0.5;" x1="630.5" x2="823.5" y1="442" y2="442"/>
        </g>
        <!--link HomeController to Controller-->
        <g id="link_HomeController_Controller">
            <path codeLine="22" d="M1119,326.23 C1119,347.94 1119,362.17 1119,383.85 " fill="none" id="HomeController-to-Controller" style="stroke:#181818;stroke-width:1.0;"/>
            <polygon fill="none" points="1119,401.85,1125,383.85,1113,383.85,1119,401.85" style="stroke:#181818;stroke-width:1.0;"/>
        </g>
        <!--link HomeController to TradingServiceSubscriber-->
        <g id="link_HomeController_TradingServiceSubscriber">
            <path codeLine="23" d="M1086.67,326 C1071.93,335.22 1053.82,344.86 1036,350 C962.9,371.1 938.73,339.22 865,358 C828.87,367.2 806.5801,377.4002 779.6701,392.8902 " fill="none" id="HomeController-to-TradingServiceSubscriber" style="stroke:#181818;stroke-width:1.0;"/>
            <polygon fill="none" points="764.07,401.87,782.6634,398.0903,776.6769,387.6902,764.07,401.87" style="stroke:#181818;stroke-width:1.0;"/>
        </g>
        <!--link MarketController to Controller-->
        <g id="link_MarketController_Controller">
            <path codeLine="24" d="M982.19,326.23 C1012.26,347.94 1042.3059,369.6338 1072.3359,391.3138 " fill="none" id="MarketController-to-Controller" style="stroke:#181818;stroke-width:1.0;"/>
            <polygon fill="none" points="1086.93,401.85,1075.8479,386.4491,1068.8238,396.1785,1086.93,401.85" style="stroke:#181818;stroke-width:1.0;"/>
        </g>
        <!--link MarketController to ExchangeServiceSubscriber-->
        <g id="link_MarketController_ExchangeServiceSubscriber">
            <path codeLine="25" d="M906.71,326.08 C887.2,335.31 863.52,344.94 841,350 C791.32,361.16 661.09,344.49 612,358 C579.27,367.01 560.7337,376.396 537.1237,391.976 " fill="none" id="MarketController-to-ExchangeServiceSubscriber" style="stroke:#181818;stroke-width:1.0;"/>
            <polygon fill="none" points="522.1,401.89,540.4284,396.9839,533.8191,386.9681,522.1,401.89" style="stroke:#181818;stroke-width:1.0;"/>
        </g>
        <!--link RootController to Controller-->
        <g id="link_RootController_Controller">
            <path codeLine="26" d="M1250.15,326.23 C1221.32,347.94 1192.909,369.3421 1164.119,391.0221 " fill="none" id="RootController-to-Controller" style="stroke:#181818;stroke-width:1.0;"/>
            <polygon fill="none" points="1149.74,401.85,1167.7283,395.8151,1160.5097,386.2291,1149.74,401.85" style="stroke:#181818;stroke-width:1.0;"/>
        </g>
        <!--SRC=[hPFFJiCm3CRlFCLUO7a49DYGE6n2sWPtrpMT8N-cnErsuE59AKobMjCmSQljdx_Q-HBK4CBi3HfG1cIlxhbQ4h81VOE3qiRLjcHRhLr9_QAm8RLo27e9GhiOzQkri5Oh3lATTBvIXNE2O0wjf92_L45dnJkjoGVrw0mjpl4KlGR_JfBFRs8oJPkuiFuHVl9bajfvi05GsDa4zHmkYyHqmqX1tI76uvPj5_y1VJWX7SR-Vkw9r1viHJdwSQFMzWJQC1qxcrxYrpZHdM2QQUtu8jZ6g_4AIEFMzMmReJlDmRRRkWZekPXg-xruholpfixcyu_RhEcl5xnsqk4h-OTPCoIdxCXyfDd3VW80]-->
    </g>
</svg>
