<?xml version="1.0" encoding="UTF-8"?><svg xmlns="http://www.w3.org/2000/svg" xmlns:xlink="http://www.w3.org/1999/xlink" contentStyleType="text/css" height="737px" preserveAspectRatio="none" style="width:3610px;height:737px;background:#FFFFFF;" version="1.1" viewBox="0 0 3610 737" width="3610px" zoomAndPan="magnify">
    <defs/>
    <g>
        <!--cluster org-->
        <g id="cluster_org">
            <path d="M8.5,6 L33.5,6 A3.75,3.75 0 0 1 36,8.5 L43,29.6094 L1881.5,29.6094 A2.5,2.5 0 0 1 1884,32.1094 L1884,727.5 A2.5,2.5 0 0 1 1881.5,730 L8.5,730 A2.5,2.5 0 0 1 6,727.5 L6,8.5 A2.5,2.5 0 0 1 8.5,6 " fill="none" style="stroke:#000000;stroke-width:1.5;"/>
            <line style="stroke:#000000;stroke-width:1.5;" x1="6" x2="43" y1="29.6094" y2="29.6094"/>
            <text fill="#000000" font-family="sans-serif" font-size="14" font-weight="bold" lengthAdjust="spacing" textLength="24" x="10" y="22.5332">org</text>
        </g>
        <!--cluster bootcamp-->
        <g id="cluster_bootcamp">
            <path d="M32.5,50 L102.5,50 A3.75,3.75 0 0 1 105,52.5 L112,73.6094 L1857.5,73.6094 A2.5,2.5 0 0 1 1860,76.1094 L1860,703.5 A2.5,2.5 0 0 1 1857.5,706 L32.5,706 A2.5,2.5 0 0 1 30,703.5 L30,52.5 A2.5,2.5 0 0 1 32.5,50 " fill="none" style="stroke:#000000;stroke-width:1.5;"/>
            <line style="stroke:#000000;stroke-width:1.5;" x1="30" x2="112" y1="73.6094" y2="73.6094"/>
            <text fill="#000000" font-family="sans-serif" font-size="14" font-weight="bold" lengthAdjust="spacing" textLength="69" x="34" y="66.5332">bootcamp</text>
        </g>
        <!--cluster views-->
        <g id="cluster_views">
            <path d="M1138.5,218 L1180.5,218 A3.75,3.75 0 0 1 1183,220.5 L1190,241.6094 L1833.5,241.6094 A2.5,2.5 0 0 1 1836,244.1094 L1836,423.5 A2.5,2.5 0 0 1 1833.5,426 L1138.5,426 A2.5,2.5 0 0 1 1136,423.5 L1136,220.5 A2.5,2.5 0 0 1 1138.5,218 " fill="none" style="stroke:#000000;stroke-width:1.5;"/>
            <line style="stroke:#000000;stroke-width:1.5;" x1="1136" x2="1190" y1="241.6094" y2="241.6094"/>
            <text fill="#000000" font-family="sans-serif" font-size="14" font-weight="bold" lengthAdjust="spacing" textLength="41" x="1140" y="234.5332">views</text>
        </g>
        <!--cluster controllers-->
        <g id="cluster_controllers">
            <path d="M620.5,94 L698.5,94 A3.75,3.75 0 0 1 701,96.5 L708,117.6094 L1109.5,117.6094 A2.5,2.5 0 0 1 1112,120.1094 L1112,315.5 A2.5,2.5 0 0 1 1109.5,318 L620.5,318 A2.5,2.5 0 0 1 618,315.5 L618,96.5 A2.5,2.5 0 0 1 620.5,94 " fill="none" style="stroke:#000000;stroke-width:1.5;"/>
            <line style="stroke:#000000;stroke-width:1.5;" x1="618" x2="708" y1="117.6094" y2="117.6094"/>
            <text fill="#000000" font-family="sans-serif" font-size="14" font-weight="bold" lengthAdjust="spacing" textLength="77" x="622" y="110.5332">controllers</text>
        </g>
        <!--cluster models-->
        <g id="cluster_models">
            <path d="M56.5,218 L108.5,218 A3.75,3.75 0 0 1 111,220.5 L118,241.6094 L591.5,241.6094 A2.5,2.5 0 0 1 594,244.1094 L594,571.5 A2.5,2.5 0 0 1 591.5,574 L56.5,574 A2.5,2.5 0 0 1 54,571.5 L54,220.5 A2.5,2.5 0 0 1 56.5,218 " fill="none" style="stroke:#000000;stroke-width:1.5;"/>
            <line style="stroke:#000000;stroke-width:1.5;" x1="54" x2="118" y1="241.6094" y2="241.6094"/>
            <text fill="#000000" font-family="sans-serif" font-size="14" font-weight="bold" lengthAdjust="spacing" textLength="51" x="58" y="234.5332">models</text>
        </g>
        <!--cluster services-->
        <g id="cluster_services">
            <path d="M1449.5,474 L1511.5,474 A3.75,3.75 0 0 1 1514,476.5 L1521,497.6094 L1833.5,497.6094 A2.5,2.5 0 0 1 1836,500.1094 L1836,679.5 A2.5,2.5 0 0 1 1833.5,682 L1449.5,682 A2.5,2.5 0 0 1 1447,679.5 L1447,476.5 A2.5,2.5 0 0 1 1449.5,474 " fill="none" style="stroke:#000000;stroke-width:1.5;"/>
            <line style="stroke:#000000;stroke-width:1.5;" x1="1447" x2="1521" y1="497.6094" y2="497.6094"/>
            <text fill="#000000" font-family="sans-serif" font-size="14" font-weight="bold" lengthAdjust="spacing" textLength="61" x="1451" y="490.5332">services</text>
        </g>
        <!--cluster java-->
        <g id="cluster_java">
            <path d="M1910.5,6 L1940.5,6 A3.75,3.75 0 0 1 1943,8.5 L1950,29.6094 L3600.5,29.6094 A2.5,2.5 0 0 1 3603,32.1094 L3603,447.5 A2.5,2.5 0 0 1 3600.5,450 L1910.5,450 A2.5,2.5 0 0 1 1908,447.5 L1908,8.5 A2.5,2.5 0 0 1 1910.5,6 " fill="none" style="stroke:#000000;stroke-width:1.5;"/>
            <line style="stroke:#000000;stroke-width:1.5;" x1="1908" x2="1950" y1="29.6094" y2="29.6094"/>
            <text fill="#000000" font-family="sans-serif" font-size="14" font-weight="bold" lengthAdjust="spacing" textLength="29" x="1912" y="22.5332">java</text>
        </g>
        <!--cluster lang-->
        <g id="cluster_lang">
            <path d="M3134.5,94 L3165.5,94 A3.75,3.75 0 0 1 3168,96.5 L3175,117.6094 L3255.5,117.6094 A2.5,2.5 0 0 1 3258,120.1094 L3258,191.5 A2.5,2.5 0 0 1 3255.5,194 L3134.5,194 A2.5,2.5 0 0 1 3132,191.5 L3132,96.5 A2.5,2.5 0 0 1 3134.5,94 " fill="none" style="stroke:#000000;stroke-width:1.5;"/>
            <line style="stroke:#000000;stroke-width:1.5;" x1="3132" x2="3175" y1="117.6094" y2="117.6094"/>
            <text fill="#000000" font-family="sans-serif" font-size="14" font-weight="bold" lengthAdjust="spacing" textLength="30" x="3136" y="110.5332">lang</text>
        </g>
        <!--cluster math-->
        <g id="cluster_math">
            <path d="M3284.5,94 L3319.5,94 A3.75,3.75 0 0 1 3322,96.5 L3329,117.6094 L3576.5,117.6094 A2.5,2.5 0 0 1 3579,120.1094 L3579,191.5 A2.5,2.5 0 0 1 3576.5,194 L3284.5,194 A2.5,2.5 0 0 1 3282,191.5 L3282,96.5 A2.5,2.5 0 0 1 3284.5,94 " fill="none" style="stroke:#000000;stroke-width:1.5;"/>
            <line style="stroke:#000000;stroke-width:1.5;" x1="3282" x2="3329" y1="117.6094" y2="117.6094"/>
            <text fill="#000000" font-family="sans-serif" font-size="14" font-weight="bold" lengthAdjust="spacing" textLength="34" x="3286" y="110.5332">math</text>
        </g>
        <!--cluster time-->
        <g id="cluster_time">
            <path d="M2813.5,94 L2844.5,94 A3.75,3.75 0 0 1 2847,96.5 L2854,117.6094 L3105.5,117.6094 A2.5,2.5 0 0 1 3108,120.1094 L3108,191.5 A2.5,2.5 0 0 1 3105.5,194 L2813.5,194 A2.5,2.5 0 0 1 2811,191.5 L2811,96.5 A2.5,2.5 0 0 1 2813.5,94 " fill="none" style="stroke:#000000;stroke-width:1.5;"/>
            <line style="stroke:#000000;stroke-width:1.5;" x1="2811" x2="2854" y1="117.6094" y2="117.6094"/>
            <text fill="#000000" font-family="sans-serif" font-size="14" font-weight="bold" lengthAdjust="spacing" textLength="30" x="2815" y="110.5332">time</text>
        </g>
        <!--cluster util-->
        <g id="cluster_util">
            <path d="M1934.5,50 L1957.5,50 A3.75,3.75 0 0 1 1960,52.5 L1967,73.6094 L2784.5,73.6094 A2.5,2.5 0 0 1 2787,76.1094 L2787,423.5 A2.5,2.5 0 0 1 2784.5,426 L1934.5,426 A2.5,2.5 0 0 1 1932,423.5 L1932,52.5 A2.5,2.5 0 0 1 1934.5,50 " fill="none" style="stroke:#000000;stroke-width:1.5;"/>
            <line style="stroke:#000000;stroke-width:1.5;" x1="1932" x2="1967" y1="73.6094" y2="73.6094"/>
            <text fill="#000000" font-family="sans-serif" font-size="14" font-weight="bold" lengthAdjust="spacing" textLength="22" x="1936" y="66.5332">util</text>
        </g>
        <!--cluster concurrent-->
        <g id="cluster_concurrent">
            <path d="M2402.5,94 L2481.5,94 A3.75,3.75 0 0 1 2484,96.5 L2491,117.6094 L2760.5,117.6094 A2.5,2.5 0 0 1 2763,120.1094 L2763,315.5 A2.5,2.5 0 0 1 2760.5,318 L2402.5,318 A2.5,2.5 0 0 1 2400,315.5 L2400,96.5 A2.5,2.5 0 0 1 2402.5,94 " fill="none" style="stroke:#000000;stroke-width:1.5;"/>
            <line style="stroke:#000000;stroke-width:1.5;" x1="2400" x2="2491" y1="117.6094" y2="117.6094"/>
            <text fill="#000000" font-family="sans-serif" font-size="14" font-weight="bold" lengthAdjust="spacing" textLength="78" x="2404" y="110.5332">concurrent</text>
        </g>
        <!--class CryptoExchangeApp-->
        <g id="elem_CryptoExchangeApp">
            <rect codeLine="17" fill="#F1F1F1" height="48" id="CryptoExchangeApp" rx="2.5" ry="2.5" style="stroke:#181818;stroke-width:0.5;" width="161" x="366.5" y="130"/>
            <ellipse cx="381.5" cy="146" fill="#ADD1B2" rx="11" ry="11" style="stroke:#181818;stroke-width:1.0;"/>
            <path d="M384.2656,141.875 Q384.4219,141.6563 384.6094,141.5469 Q384.7969,141.4375 385.0156,141.4375 Q385.3906,141.4375 385.625,141.7031 Q385.8594,141.9531 385.8594,142.5625 L385.8594,144.0156 Q385.8594,144.625 385.625,144.8906 Q385.3906,145.1563 385.0156,145.1563 Q384.6719,145.1563 384.4688,144.9531 Q384.2656,144.7656 384.1563,144.25 Q384.1094,143.8906 383.9219,143.7031 Q383.5938,143.3281 382.9844,143.1094 Q382.375,142.8906 381.75,142.8906 Q380.9844,142.8906 380.3438,143.2188 Q379.7188,143.5469 379.2188,144.2969 Q378.7344,145.0469 378.7344,146.0781 L378.7344,147.1719 Q378.7344,148.4063 379.625,149.2344 Q380.5156,150.0469 382.1094,150.0469 Q383.0469,150.0469 383.7031,149.7969 Q384.0938,149.6406 384.5156,149.2031 Q384.7813,148.9375 384.9219,148.8594 Q385.0781,148.7813 385.2813,148.7813 Q385.6094,148.7813 385.8594,149.0469 Q386.125,149.2969 386.125,149.6406 Q386.125,149.9844 385.7813,150.3906 Q385.2813,150.9688 384.4844,151.2969 Q383.4063,151.75 382.1094,151.75 Q380.5938,151.75 379.3906,151.125 Q378.4063,150.625 377.7188,149.5625 Q377.0313,148.4844 377.0313,147.2031 L377.0313,146.0469 Q377.0313,144.7188 377.6406,143.5781 Q378.2656,142.4219 379.3594,141.8125 Q380.4531,141.1875 381.6875,141.1875 Q382.4219,141.1875 383.0625,141.3594 Q383.7188,141.5156 384.2656,141.875 Z " fill="#000000"/>
            <text fill="#000000" font-family="sans-serif" font-size="14" lengthAdjust="spacing" textLength="129" x="395.5" y="151.7285">CryptoExchangeApp</text>
            <line style="stroke:#181818;stroke-width:0.5;" x1="367.5" x2="526.5" y1="162" y2="162"/>
            <line style="stroke:#181818;stroke-width:0.5;" x1="367.5" x2="526.5" y1="170" y2="170"/>
        </g>
        <!--class Router-->
        <g id="elem_Router">
            <rect codeLine="18" fill="#F1F1F1" height="48" id="Router" rx="2.5" ry="2.5" style="stroke:#181818;stroke-width:0.5;" width="75" x="186.5" y="130"/>
            <ellipse cx="201.5" cy="146" fill="#ADD1B2" rx="11" ry="11" style="stroke:#181818;stroke-width:1.0;"/>
            <path d="M204.2656,141.875 Q204.4219,141.6563 204.6094,141.5469 Q204.7969,141.4375 205.0156,141.4375 Q205.3906,141.4375 205.625,141.7031 Q205.8594,141.9531 205.8594,142.5625 L205.8594,144.0156 Q205.8594,144.625 205.625,144.8906 Q205.3906,145.1563 205.0156,145.1563 Q204.6719,145.1563 204.4688,144.9531 Q204.2656,144.7656 204.1563,144.25 Q204.1094,143.8906 203.9219,143.7031 Q203.5938,143.3281 202.9844,143.1094 Q202.375,142.8906 201.75,142.8906 Q200.9844,142.8906 200.3438,143.2188 Q199.7188,143.5469 199.2188,144.2969 Q198.7344,145.0469 198.7344,146.0781 L198.7344,147.1719 Q198.7344,148.4063 199.625,149.2344 Q200.5156,150.0469 202.1094,150.0469 Q203.0469,150.0469 203.7031,149.7969 Q204.0938,149.6406 204.5156,149.2031 Q204.7813,148.9375 204.9219,148.8594 Q205.0781,148.7813 205.2813,148.7813 Q205.6094,148.7813 205.8594,149.0469 Q206.125,149.2969 206.125,149.6406 Q206.125,149.9844 205.7813,150.3906 Q205.2813,150.9688 204.4844,151.2969 Q203.4063,151.75 202.1094,151.75 Q200.5938,151.75 199.3906,151.125 Q198.4063,150.625 197.7188,149.5625 Q197.0313,148.4844 197.0313,147.2031 L197.0313,146.0469 Q197.0313,144.7188 197.6406,143.5781 Q198.2656,142.4219 199.3594,141.8125 Q200.4531,141.1875 201.6875,141.1875 Q202.4219,141.1875 203.0625,141.3594 Q203.7188,141.5156 204.2656,141.875 Z " fill="#000000"/>
            <text fill="#000000" font-family="sans-serif" font-size="14" lengthAdjust="spacing" textLength="43" x="215.5" y="151.7285">Router</text>
            <line style="stroke:#181818;stroke-width:0.5;" x1="187.5" x2="260.5" y1="162" y2="162"/>
            <line style="stroke:#181818;stroke-width:0.5;" x1="187.5" x2="260.5" y1="170" y2="170"/>
        </g>
        <!--class View-->
        <g id="elem_View">
            <rect codeLine="1" fill="#F1F1F1" height="48" id="View" rx="2.5" ry="2.5" style="stroke:#181818;stroke-width:0.5;" width="61" x="1626.5" y="254"/>
            <ellipse cx="1641.5" cy="270" fill="#A9DCDF" rx="11" ry="11" style="stroke:#181818;stroke-width:1.0;"/>
            <path d="M1643.6875,271.7656 L1639.5469,271.7656 L1639.125,272.7969 L1639.5469,272.7969 Q1640.1563,272.7969 1640.4219,273.0313 Q1640.6875,273.2656 1640.6875,273.6563 Q1640.6875,274.0313 1640.4219,274.2656 Q1640.1563,274.5 1639.5469,274.5 L1637.25,274.5 Q1636.6406,274.5 1636.3906,274.2656 Q1636.125,274.0313 1636.125,273.6406 Q1636.125,273.2656 1636.4063,273.0313 Q1636.6719,272.7813 1637.2969,272.7969 L1639.9688,266.1406 L1638.8594,266.1406 Q1638.25,266.1406 1637.9844,265.9063 Q1637.7188,265.6719 1637.7188,265.2813 Q1637.7188,264.9063 1637.9844,264.6719 Q1638.25,264.4375 1638.8594,264.4375 L1642.5313,264.4375 L1645.9219,272.7969 Q1646.5156,272.7969 1646.7031,272.9375 Q1647.0938,273.2031 1647.0938,273.6563 Q1647.0938,274.0313 1646.8281,274.2656 Q1646.5781,274.5 1645.9688,274.5 L1643.6719,274.5 Q1643.0625,274.5 1642.7969,274.2656 Q1642.5313,274.0313 1642.5313,273.6406 Q1642.5313,273.2656 1642.7969,273.0313 Q1643.0625,272.7969 1643.6719,272.7969 L1644.0938,272.7969 L1643.6875,271.7656 Z M1642.9688,270.0625 L1641.6094,266.6875 L1640.2344,270.0625 L1642.9688,270.0625 Z " fill="#000000"/>
            <text fill="#000000" font-family="sans-serif" font-size="14" font-style="italic" lengthAdjust="spacing" textLength="29" x="1655.5" y="275.7285">View</text>
            <line style="stroke:#181818;stroke-width:0.5;" x1="1627.5" x2="1686.5" y1="286" y2="286"/>
            <line style="stroke:#181818;stroke-width:0.5;" x1="1627.5" x2="1686.5" y1="294" y2="294"/>
        </g>
        <!--class HomeView-->
        <g id="elem_HomeView">
            <rect codeLine="32" fill="#F1F1F1" height="48" id="HomeView" rx="2.5" ry="2.5" style="stroke:#181818;stroke-width:0.5;" width="97" x="1722.5" y="254"/>
            <ellipse cx="1737.5" cy="270" fill="#ADD1B2" rx="11" ry="11" style="stroke:#181818;stroke-width:1.0;"/>
            <path d="M1740.2656,265.875 Q1740.4219,265.6563 1740.6094,265.5469 Q1740.7969,265.4375 1741.0156,265.4375 Q1741.3906,265.4375 1741.625,265.7031 Q1741.8594,265.9531 1741.8594,266.5625 L1741.8594,268.0156 Q1741.8594,268.625 1741.625,268.8906 Q1741.3906,269.1563 1741.0156,269.1563 Q1740.6719,269.1563 1740.4688,268.9531 Q1740.2656,268.7656 1740.1563,268.25 Q1740.1094,267.8906 1739.9219,267.7031 Q1739.5938,267.3281 1738.9844,267.1094 Q1738.375,266.8906 1737.75,266.8906 Q1736.9844,266.8906 1736.3438,267.2188 Q1735.7188,267.5469 1735.2188,268.2969 Q1734.7344,269.0469 1734.7344,270.0781 L1734.7344,271.1719 Q1734.7344,272.4063 1735.625,273.2344 Q1736.5156,274.0469 1738.1094,274.0469 Q1739.0469,274.0469 1739.7031,273.7969 Q1740.0938,273.6406 1740.5156,273.2031 Q1740.7813,272.9375 1740.9219,272.8594 Q1741.0781,272.7813 1741.2813,272.7813 Q1741.6094,272.7813 1741.8594,273.0469 Q1742.125,273.2969 1742.125,273.6406 Q1742.125,273.9844 1741.7813,274.3906 Q1741.2813,274.9688 1740.4844,275.2969 Q1739.4063,275.75 1738.1094,275.75 Q1736.5938,275.75 1735.3906,275.125 Q1734.4063,274.625 1733.7188,273.5625 Q1733.0313,272.4844 1733.0313,271.2031 L1733.0313,270.0469 Q1733.0313,268.7188 1733.6406,267.5781 Q1734.2656,266.4219 1735.3594,265.8125 Q1736.4531,265.1875 1737.6875,265.1875 Q1738.4219,265.1875 1739.0625,265.3594 Q1739.7188,265.5156 1740.2656,265.875 Z " fill="#000000"/>
            <text fill="#000000" font-family="sans-serif" font-size="14" lengthAdjust="spacing" textLength="65" x="1751.5" y="275.7285">HomeView</text>
            <line style="stroke:#181818;stroke-width:0.5;" x1="1723.5" x2="1818.5" y1="286" y2="286"/>
            <line style="stroke:#181818;stroke-width:0.5;" x1="1723.5" x2="1818.5" y1="294" y2="294"/>
        </g>
        <!--class MarketView-->
        <g id="elem_MarketView">
            <rect codeLine="33" fill="#F1F1F1" height="48" id="MarketView" rx="2.5" ry="2.5" style="stroke:#181818;stroke-width:0.5;" width="104" x="1532" y="362"/>
            <ellipse cx="1547" cy="378" fill="#ADD1B2" rx="11" ry="11" style="stroke:#181818;stroke-width:1.0;"/>
            <path d="M1549.7656,373.875 Q1549.9219,373.6563 1550.1094,373.5469 Q1550.2969,373.4375 1550.5156,373.4375 Q1550.8906,373.4375 1551.125,373.7031 Q1551.3594,373.9531 1551.3594,374.5625 L1551.3594,376.0156 Q1551.3594,376.625 1551.125,376.8906 Q1550.8906,377.1563 1550.5156,377.1563 Q1550.1719,377.1563 1549.9688,376.9531 Q1549.7656,376.7656 1549.6563,376.25 Q1549.6094,375.8906 1549.4219,375.7031 Q1549.0938,375.3281 1548.4844,375.1094 Q1547.875,374.8906 1547.25,374.8906 Q1546.4844,374.8906 1545.8438,375.2188 Q1545.2188,375.5469 1544.7188,376.2969 Q1544.2344,377.0469 1544.2344,378.0781 L1544.2344,379.1719 Q1544.2344,380.4063 1545.125,381.2344 Q1546.0156,382.0469 1547.6094,382.0469 Q1548.5469,382.0469 1549.2031,381.7969 Q1549.5938,381.6406 1550.0156,381.2031 Q1550.2813,380.9375 1550.4219,380.8594 Q1550.5781,380.7813 1550.7813,380.7813 Q1551.1094,380.7813 1551.3594,381.0469 Q1551.625,381.2969 1551.625,381.6406 Q1551.625,381.9844 1551.2813,382.3906 Q1550.7813,382.9688 1549.9844,383.2969 Q1548.9063,383.75 1547.6094,383.75 Q1546.0938,383.75 1544.8906,383.125 Q1543.9063,382.625 1543.2188,381.5625 Q1542.5313,380.4844 1542.5313,379.2031 L1542.5313,378.0469 Q1542.5313,376.7188 1543.1406,375.5781 Q1543.7656,374.4219 1544.8594,373.8125 Q1545.9531,373.1875 1547.1875,373.1875 Q1547.9219,373.1875 1548.5625,373.3594 Q1549.2188,373.5156 1549.7656,373.875 Z " fill="#000000"/>
            <text fill="#000000" font-family="sans-serif" font-size="14" lengthAdjust="spacing" textLength="72" x="1561" y="383.7285">MarketView</text>
            <line style="stroke:#181818;stroke-width:0.5;" x1="1533" x2="1635" y1="394" y2="394"/>
            <line style="stroke:#181818;stroke-width:0.5;" x1="1533" x2="1635" y1="402" y2="402"/>
        </g>
        <!--class RootView-->
        <g id="elem_RootView">
            <rect codeLine="34" fill="#F1F1F1" height="48" id="RootView" rx="2.5" ry="2.5" style="stroke:#181818;stroke-width:0.5;" width="91" x="1671.5" y="362"/>
            <ellipse cx="1686.5" cy="378" fill="#ADD1B2" rx="11" ry="11" style="stroke:#181818;stroke-width:1.0;"/>
            <path d="M1689.2656,373.875 Q1689.4219,373.6563 1689.6094,373.5469 Q1689.7969,373.4375 1690.0156,373.4375 Q1690.3906,373.4375 1690.625,373.7031 Q1690.8594,373.9531 1690.8594,374.5625 L1690.8594,376.0156 Q1690.8594,376.625 1690.625,376.8906 Q1690.3906,377.1563 1690.0156,377.1563 Q1689.6719,377.1563 1689.4688,376.9531 Q1689.2656,376.7656 1689.1563,376.25 Q1689.1094,375.8906 1688.9219,375.7031 Q1688.5938,375.3281 1687.9844,375.1094 Q1687.375,374.8906 1686.75,374.8906 Q1685.9844,374.8906 1685.3438,375.2188 Q1684.7188,375.5469 1684.2188,376.2969 Q1683.7344,377.0469 1683.7344,378.0781 L1683.7344,379.1719 Q1683.7344,380.4063 1684.625,381.2344 Q1685.5156,382.0469 1687.1094,382.0469 Q1688.0469,382.0469 1688.7031,381.7969 Q1689.0938,381.6406 1689.5156,381.2031 Q1689.7813,380.9375 1689.9219,380.8594 Q1690.0781,380.7813 1690.2813,380.7813 Q1690.6094,380.7813 1690.8594,381.0469 Q1691.125,381.2969 1691.125,381.6406 Q1691.125,381.9844 1690.7813,382.3906 Q1690.2813,382.9688 1689.4844,383.2969 Q1688.4063,383.75 1687.1094,383.75 Q1685.5938,383.75 1684.3906,383.125 Q1683.4063,382.625 1682.7188,381.5625 Q1682.0313,380.4844 1682.0313,379.2031 L1682.0313,378.0469 Q1682.0313,376.7188 1682.6406,375.5781 Q1683.2656,374.4219 1684.3594,373.8125 Q1685.4531,373.1875 1686.6875,373.1875 Q1687.4219,373.1875 1688.0625,373.3594 Q1688.7188,373.5156 1689.2656,373.875 Z " fill="#000000"/>
            <text fill="#000000" font-family="sans-serif" font-size="14" lengthAdjust="spacing" textLength="59" x="1700.5" y="383.7285">RootView</text>
            <line style="stroke:#181818;stroke-width:0.5;" x1="1672.5" x2="1761.5" y1="394" y2="394"/>
            <line style="stroke:#181818;stroke-width:0.5;" x1="1672.5" x2="1761.5" y1="402" y2="402"/>
        </g>
        <!--class ExchangeServiceSubscriber-->
        <g id="elem_ExchangeServiceSubscriber">
            <rect codeLine="38" fill="#F1F1F1" height="48" id="ExchangeServiceSubscriber" rx="2.5" ry="2.5" style="stroke:#181818;stroke-width:0.5;" width="208" x="1383" y="254"/>
            <ellipse cx="1398" cy="270" fill="#B4A7E5" rx="11" ry="11" style="stroke:#181818;stroke-width:1.0;"/>
            <path d="M1398.9531,266.6406 L1398.9531,273.2969 L1400.6719,273.2969 Q1401.2813,273.2969 1401.5469,273.5313 Q1401.8125,273.7656 1401.8125,274.1563 Q1401.8125,274.5313 1401.5469,274.7656 Q1401.2813,275 1400.6719,275 L1395.5313,275 Q1394.9219,275 1394.6563,274.7656 Q1394.3906,274.5313 1394.3906,274.1406 Q1394.3906,273.7656 1394.6563,273.5313 Q1394.9219,273.2969 1395.5313,273.2969 L1397.25,273.2969 L1397.25,266.6406 L1395.5313,266.6406 Q1394.9219,266.6406 1394.6563,266.4063 Q1394.3906,266.1719 1394.3906,265.7813 Q1394.3906,265.4063 1394.6563,265.1719 Q1394.9219,264.9375 1395.5313,264.9375 L1400.6719,264.9375 Q1401.2813,264.9375 1401.5469,265.1719 Q1401.8125,265.4063 1401.8125,265.7813 Q1401.8125,266.1719 1401.5469,266.4063 Q1401.2813,266.6406 1400.6719,266.6406 L1398.9531,266.6406 Z " fill="#000000"/>
            <text fill="#000000" font-family="sans-serif" font-size="14" font-style="italic" lengthAdjust="spacing" textLength="176" x="1412" y="275.7285">ExchangeServiceSubscriber</text>
            <line style="stroke:#181818;stroke-width:0.5;" x1="1384" x2="1590" y1="286" y2="286"/>
            <line style="stroke:#181818;stroke-width:0.5;" x1="1384" x2="1590" y1="294" y2="294"/>
        </g>
        <!--class TradingServiceSubscriber-->
        <g id="elem_TradingServiceSubscriber">
            <rect codeLine="39" fill="#F1F1F1" height="48" id="TradingServiceSubscriber" rx="2.5" ry="2.5" style="stroke:#181818;stroke-width:0.5;" width="195" x="1152.5" y="254"/>
            <ellipse cx="1167.5" cy="270" fill="#B4A7E5" rx="11" ry="11" style="stroke:#181818;stroke-width:1.0;"/>
            <path d="M1168.4531,266.6406 L1168.4531,273.2969 L1170.1719,273.2969 Q1170.7813,273.2969 1171.0469,273.5313 Q1171.3125,273.7656 1171.3125,274.1563 Q1171.3125,274.5313 1171.0469,274.7656 Q1170.7813,275 1170.1719,275 L1165.0313,275 Q1164.4219,275 1164.1563,274.7656 Q1163.8906,274.5313 1163.8906,274.1406 Q1163.8906,273.7656 1164.1563,273.5313 Q1164.4219,273.2969 1165.0313,273.2969 L1166.75,273.2969 L1166.75,266.6406 L1165.0313,266.6406 Q1164.4219,266.6406 1164.1563,266.4063 Q1163.8906,266.1719 1163.8906,265.7813 Q1163.8906,265.4063 1164.1563,265.1719 Q1164.4219,264.9375 1165.0313,264.9375 L1170.1719,264.9375 Q1170.7813,264.9375 1171.0469,265.1719 Q1171.3125,265.4063 1171.3125,265.7813 Q1171.3125,266.1719 1171.0469,266.4063 Q1170.7813,266.6406 1170.1719,266.6406 L1168.4531,266.6406 Z " fill="#000000"/>
            <text fill="#000000" font-family="sans-serif" font-size="14" font-style="italic" lengthAdjust="spacing" textLength="163" x="1181.5" y="275.7285">TradingServiceSubscriber</text>
            <line style="stroke:#181818;stroke-width:0.5;" x1="1153.5" x2="1346.5" y1="286" y2="286"/>
            <line style="stroke:#181818;stroke-width:0.5;" x1="1153.5" x2="1346.5" y1="294" y2="294"/>
        </g>
        <!--class HomeController-->
        <g id="elem_HomeController">
            <rect codeLine="19" fill="#F1F1F1" height="48" id="HomeController" rx="2.5" ry="2.5" style="stroke:#181818;stroke-width:0.5;" width="130" x="793" y="130"/>
            <ellipse cx="808" cy="146" fill="#ADD1B2" rx="11" ry="11" style="stroke:#181818;stroke-width:1.0;"/>
            <path d="M810.7656,141.875 Q810.9219,141.6563 811.1094,141.5469 Q811.2969,141.4375 811.5156,141.4375 Q811.8906,141.4375 812.125,141.7031 Q812.3594,141.9531 812.3594,142.5625 L812.3594,144.0156 Q812.3594,144.625 812.125,144.8906 Q811.8906,145.1563 811.5156,145.1563 Q811.1719,145.1563 810.9688,144.9531 Q810.7656,144.7656 810.6563,144.25 Q810.6094,143.8906 810.4219,143.7031 Q810.0938,143.3281 809.4844,143.1094 Q808.875,142.8906 808.25,142.8906 Q807.4844,142.8906 806.8438,143.2188 Q806.2188,143.5469 805.7188,144.2969 Q805.2344,145.0469 805.2344,146.0781 L805.2344,147.1719 Q805.2344,148.4063 806.125,149.2344 Q807.0156,150.0469 808.6094,150.0469 Q809.5469,150.0469 810.2031,149.7969 Q810.5938,149.6406 811.0156,149.2031 Q811.2813,148.9375 811.4219,148.8594 Q811.5781,148.7813 811.7813,148.7813 Q812.1094,148.7813 812.3594,149.0469 Q812.625,149.2969 812.625,149.6406 Q812.625,149.9844 812.2813,150.3906 Q811.7813,150.9688 810.9844,151.2969 Q809.9063,151.75 808.6094,151.75 Q807.0938,151.75 805.8906,151.125 Q804.9063,150.625 804.2188,149.5625 Q803.5313,148.4844 803.5313,147.2031 L803.5313,146.0469 Q803.5313,144.7188 804.1406,143.5781 Q804.7656,142.4219 805.8594,141.8125 Q806.9531,141.1875 808.1875,141.1875 Q808.9219,141.1875 809.5625,141.3594 Q810.2188,141.5156 810.7656,141.875 Z " fill="#000000"/>
            <text fill="#000000" font-family="sans-serif" font-size="14" lengthAdjust="spacing" textLength="98" x="822" y="151.7285">HomeController</text>
            <line style="stroke:#181818;stroke-width:0.5;" x1="794" x2="922" y1="162" y2="162"/>
            <line style="stroke:#181818;stroke-width:0.5;" x1="794" x2="922" y1="170" y2="170"/>
        </g>
        <!--class MarketController-->
        <g id="elem_MarketController">
            <rect codeLine="20" fill="#F1F1F1" height="48" id="MarketController" rx="2.5" ry="2.5" style="stroke:#181818;stroke-width:0.5;" width="137" x="958.5" y="130"/>
            <ellipse cx="973.5" cy="146" fill="#ADD1B2" rx="11" ry="11" style="stroke:#181818;stroke-width:1.0;"/>
            <path d="M976.2656,141.875 Q976.4219,141.6563 976.6094,141.5469 Q976.7969,141.4375 977.0156,141.4375 Q977.3906,141.4375 977.625,141.7031 Q977.8594,141.9531 977.8594,142.5625 L977.8594,144.0156 Q977.8594,144.625 977.625,144.8906 Q977.3906,145.1563 977.0156,145.1563 Q976.6719,145.1563 976.4688,144.9531 Q976.2656,144.7656 976.1563,144.25 Q976.1094,143.8906 975.9219,143.7031 Q975.5938,143.3281 974.9844,143.1094 Q974.375,142.8906 973.75,142.8906 Q972.9844,142.8906 972.3438,143.2188 Q971.7188,143.5469 971.2188,144.2969 Q970.7344,145.0469 970.7344,146.0781 L970.7344,147.1719 Q970.7344,148.4063 971.625,149.2344 Q972.5156,150.0469 974.1094,150.0469 Q975.0469,150.0469 975.7031,149.7969 Q976.0938,149.6406 976.5156,149.2031 Q976.7813,148.9375 976.9219,148.8594 Q977.0781,148.7813 977.2813,148.7813 Q977.6094,148.7813 977.8594,149.0469 Q978.125,149.2969 978.125,149.6406 Q978.125,149.9844 977.7813,150.3906 Q977.2813,150.9688 976.4844,151.2969 Q975.4063,151.75 974.1094,151.75 Q972.5938,151.75 971.3906,151.125 Q970.4063,150.625 969.7188,149.5625 Q969.0313,148.4844 969.0313,147.2031 L969.0313,146.0469 Q969.0313,144.7188 969.6406,143.5781 Q970.2656,142.4219 971.3594,141.8125 Q972.4531,141.1875 973.6875,141.1875 Q974.4219,141.1875 975.0625,141.3594 Q975.7188,141.5156 976.2656,141.875 Z " fill="#000000"/>
            <text fill="#000000" font-family="sans-serif" font-size="14" lengthAdjust="spacing" textLength="105" x="987.5" y="151.7285">MarketController</text>
            <line style="stroke:#181818;stroke-width:0.5;" x1="959.5" x2="1094.5" y1="162" y2="162"/>
            <line style="stroke:#181818;stroke-width:0.5;" x1="959.5" x2="1094.5" y1="170" y2="170"/>
        </g>
        <!--class RootController-->
        <g id="elem_RootController">
            <rect codeLine="21" fill="#F1F1F1" height="48" id="RootController" rx="2.5" ry="2.5" style="stroke:#181818;stroke-width:0.5;" width="124" x="634" y="130"/>
            <ellipse cx="649" cy="146" fill="#ADD1B2" rx="11" ry="11" style="stroke:#181818;stroke-width:1.0;"/>
            <path d="M651.7656,141.875 Q651.9219,141.6563 652.1094,141.5469 Q652.2969,141.4375 652.5156,141.4375 Q652.8906,141.4375 653.125,141.7031 Q653.3594,141.9531 653.3594,142.5625 L653.3594,144.0156 Q653.3594,144.625 653.125,144.8906 Q652.8906,145.1563 652.5156,145.1563 Q652.1719,145.1563 651.9688,144.9531 Q651.7656,144.7656 651.6563,144.25 Q651.6094,143.8906 651.4219,143.7031 Q651.0938,143.3281 650.4844,143.1094 Q649.875,142.8906 649.25,142.8906 Q648.4844,142.8906 647.8438,143.2188 Q647.2188,143.5469 646.7188,144.2969 Q646.2344,145.0469 646.2344,146.0781 L646.2344,147.1719 Q646.2344,148.4063 647.125,149.2344 Q648.0156,150.0469 649.6094,150.0469 Q650.5469,150.0469 651.2031,149.7969 Q651.5938,149.6406 652.0156,149.2031 Q652.2813,148.9375 652.4219,148.8594 Q652.5781,148.7813 652.7813,148.7813 Q653.1094,148.7813 653.3594,149.0469 Q653.625,149.2969 653.625,149.6406 Q653.625,149.9844 653.2813,150.3906 Q652.7813,150.9688 651.9844,151.2969 Q650.9063,151.75 649.6094,151.75 Q648.0938,151.75 646.8906,151.125 Q645.9063,150.625 645.2188,149.5625 Q644.5313,148.4844 644.5313,147.2031 L644.5313,146.0469 Q644.5313,144.7188 645.1406,143.5781 Q645.7656,142.4219 646.8594,141.8125 Q647.9531,141.1875 649.1875,141.1875 Q649.9219,141.1875 650.5625,141.3594 Q651.2188,141.5156 651.7656,141.875 Z " fill="#000000"/>
            <text fill="#000000" font-family="sans-serif" font-size="14" lengthAdjust="spacing" textLength="92" x="663" y="151.7285">RootController</text>
            <line style="stroke:#181818;stroke-width:0.5;" x1="635" x2="757" y1="162" y2="162"/>
            <line style="stroke:#181818;stroke-width:0.5;" x1="635" x2="757" y1="170" y2="170"/>
        </g>
        <!--class Controller-->
        <g id="elem_Controller">
            <rect codeLine="37" fill="#F1F1F1" height="48" id="Controller" rx="2.5" ry="2.5" style="stroke:#181818;stroke-width:0.5;" width="94" x="811" y="254"/>
            <ellipse cx="826" cy="270" fill="#B4A7E5" rx="11" ry="11" style="stroke:#181818;stroke-width:1.0;"/>
            <path d="M826.9531,266.6406 L826.9531,273.2969 L828.6719,273.2969 Q829.2813,273.2969 829.5469,273.5313 Q829.8125,273.7656 829.8125,274.1563 Q829.8125,274.5313 829.5469,274.7656 Q829.2813,275 828.6719,275 L823.5313,275 Q822.9219,275 822.6563,274.7656 Q822.3906,274.5313 822.3906,274.1406 Q822.3906,273.7656 822.6563,273.5313 Q822.9219,273.2969 823.5313,273.2969 L825.25,273.2969 L825.25,266.6406 L823.5313,266.6406 Q822.9219,266.6406 822.6563,266.4063 Q822.3906,266.1719 822.3906,265.7813 Q822.3906,265.4063 822.6563,265.1719 Q822.9219,264.9375 823.5313,264.9375 L828.6719,264.9375 Q829.2813,264.9375 829.5469,265.1719 Q829.8125,265.4063 829.8125,265.7813 Q829.8125,266.1719 829.5469,266.4063 Q829.2813,266.6406 828.6719,266.6406 L826.9531,266.6406 Z " fill="#000000"/>
            <text fill="#000000" font-family="sans-serif" font-size="14" font-style="italic" lengthAdjust="spacing" textLength="62" x="840" y="275.7285">Controller</text>
            <line style="stroke:#181818;stroke-width:0.5;" x1="812" x2="904" y1="286" y2="286"/>
            <line style="stroke:#181818;stroke-width:0.5;" x1="812" x2="904" y1="294" y2="294"/>
        </g>
        <!--class CryptoCurrency-->
        <g id="elem_CryptoCurrency">
            <rect codeLine="22" fill="#F1F1F1" height="48" id="CryptoCurrency" rx="2.5" ry="2.5" style="stroke:#181818;stroke-width:0.5;" width="132" x="70" y="254"/>
            <ellipse cx="85" cy="270" fill="#ADD1B2" rx="11" ry="11" style="stroke:#181818;stroke-width:1.0;"/>
            <path d="M87.7656,265.875 Q87.9219,265.6563 88.1094,265.5469 Q88.2969,265.4375 88.5156,265.4375 Q88.8906,265.4375 89.125,265.7031 Q89.3594,265.9531 89.3594,266.5625 L89.3594,268.0156 Q89.3594,268.625 89.125,268.8906 Q88.8906,269.1563 88.5156,269.1563 Q88.1719,269.1563 87.9688,268.9531 Q87.7656,268.7656 87.6563,268.25 Q87.6094,267.8906 87.4219,267.7031 Q87.0938,267.3281 86.4844,267.1094 Q85.875,266.8906 85.25,266.8906 Q84.4844,266.8906 83.8438,267.2188 Q83.2188,267.5469 82.7188,268.2969 Q82.2344,269.0469 82.2344,270.0781 L82.2344,271.1719 Q82.2344,272.4063 83.125,273.2344 Q84.0156,274.0469 85.6094,274.0469 Q86.5469,274.0469 87.2031,273.7969 Q87.5938,273.6406 88.0156,273.2031 Q88.2813,272.9375 88.4219,272.8594 Q88.5781,272.7813 88.7813,272.7813 Q89.1094,272.7813 89.3594,273.0469 Q89.625,273.2969 89.625,273.6406 Q89.625,273.9844 89.2813,274.3906 Q88.7813,274.9688 87.9844,275.2969 Q86.9063,275.75 85.6094,275.75 Q84.0938,275.75 82.8906,275.125 Q81.9063,274.625 81.2188,273.5625 Q80.5313,272.4844 80.5313,271.2031 L80.5313,270.0469 Q80.5313,268.7188 81.1406,267.5781 Q81.7656,266.4219 82.8594,265.8125 Q83.9531,265.1875 85.1875,265.1875 Q85.9219,265.1875 86.5625,265.3594 Q87.2188,265.5156 87.7656,265.875 Z " fill="#000000"/>
            <text fill="#000000" font-family="sans-serif" font-size="14" lengthAdjust="spacing" textLength="100" x="99" y="275.7285">CryptoCurrency</text>
            <line style="stroke:#181818;stroke-width:0.5;" x1="71" x2="201" y1="286" y2="286"/>
            <line style="stroke:#181818;stroke-width:0.5;" x1="71" x2="201" y1="294" y2="294"/>
        </g>
        <!--class CryptoCurrencyException-->
        <g id="elem_CryptoCurrencyException">
            <rect codeLine="23" fill="#F1F1F1" height="48" id="CryptoCurrencyException" rx="2.5" ry="2.5" style="stroke:#181818;stroke-width:0.5;" width="193" x="237.5" y="254"/>
            <ellipse cx="252.5" cy="270" fill="#ADD1B2" rx="11" ry="11" style="stroke:#181818;stroke-width:1.0;"/>
            <path d="M255.2656,265.875 Q255.4219,265.6563 255.6094,265.5469 Q255.7969,265.4375 256.0156,265.4375 Q256.3906,265.4375 256.625,265.7031 Q256.8594,265.9531 256.8594,266.5625 L256.8594,268.0156 Q256.8594,268.625 256.625,268.8906 Q256.3906,269.1563 256.0156,269.1563 Q255.6719,269.1563 255.4688,268.9531 Q255.2656,268.7656 255.1563,268.25 Q255.1094,267.8906 254.9219,267.7031 Q254.5938,267.3281 253.9844,267.1094 Q253.375,266.8906 252.75,266.8906 Q251.9844,266.8906 251.3438,267.2188 Q250.7188,267.5469 250.2188,268.2969 Q249.7344,269.0469 249.7344,270.0781 L249.7344,271.1719 Q249.7344,272.4063 250.625,273.2344 Q251.5156,274.0469 253.1094,274.0469 Q254.0469,274.0469 254.7031,273.7969 Q255.0938,273.6406 255.5156,273.2031 Q255.7813,272.9375 255.9219,272.8594 Q256.0781,272.7813 256.2813,272.7813 Q256.6094,272.7813 256.8594,273.0469 Q257.125,273.2969 257.125,273.6406 Q257.125,273.9844 256.7813,274.3906 Q256.2813,274.9688 255.4844,275.2969 Q254.4063,275.75 253.1094,275.75 Q251.5938,275.75 250.3906,275.125 Q249.4063,274.625 248.7188,273.5625 Q248.0313,272.4844 248.0313,271.2031 L248.0313,270.0469 Q248.0313,268.7188 248.6406,267.5781 Q249.2656,266.4219 250.3594,265.8125 Q251.4531,265.1875 252.6875,265.1875 Q253.4219,265.1875 254.0625,265.3594 Q254.7188,265.5156 255.2656,265.875 Z " fill="#000000"/>
            <text fill="#000000" font-family="sans-serif" font-size="14" lengthAdjust="spacing" textLength="161" x="266.5" y="275.7285">CryptoCurrencyException</text>
            <line style="stroke:#181818;stroke-width:0.5;" x1="238.5" x2="429.5" y1="286" y2="286"/>
            <line style="stroke:#181818;stroke-width:0.5;" x1="238.5" x2="429.5" y1="294" y2="294"/>
        </g>
        <!--class MarketOrder-->
        <g id="elem_MarketOrder">
            <rect codeLine="24" fill="#F1F1F1" height="48" id="MarketOrder" rx="2.5" ry="2.5" style="stroke:#181818;stroke-width:0.5;" width="112" x="466" y="254"/>
            <ellipse cx="481" cy="270" fill="#ADD1B2" rx="11" ry="11" style="stroke:#181818;stroke-width:1.0;"/>
            <path d="M483.7656,265.875 Q483.9219,265.6563 484.1094,265.5469 Q484.2969,265.4375 484.5156,265.4375 Q484.8906,265.4375 485.125,265.7031 Q485.3594,265.9531 485.3594,266.5625 L485.3594,268.0156 Q485.3594,268.625 485.125,268.8906 Q484.8906,269.1563 484.5156,269.1563 Q484.1719,269.1563 483.9688,268.9531 Q483.7656,268.7656 483.6563,268.25 Q483.6094,267.8906 483.4219,267.7031 Q483.0938,267.3281 482.4844,267.1094 Q481.875,266.8906 481.25,266.8906 Q480.4844,266.8906 479.8438,267.2188 Q479.2188,267.5469 478.7188,268.2969 Q478.2344,269.0469 478.2344,270.0781 L478.2344,271.1719 Q478.2344,272.4063 479.125,273.2344 Q480.0156,274.0469 481.6094,274.0469 Q482.5469,274.0469 483.2031,273.7969 Q483.5938,273.6406 484.0156,273.2031 Q484.2813,272.9375 484.4219,272.8594 Q484.5781,272.7813 484.7813,272.7813 Q485.1094,272.7813 485.3594,273.0469 Q485.625,273.2969 485.625,273.6406 Q485.625,273.9844 485.2813,274.3906 Q484.7813,274.9688 483.9844,275.2969 Q482.9063,275.75 481.6094,275.75 Q480.0938,275.75 478.8906,275.125 Q477.9063,274.625 477.2188,273.5625 Q476.5313,272.4844 476.5313,271.2031 L476.5313,270.0469 Q476.5313,268.7188 477.1406,267.5781 Q477.7656,266.4219 478.8594,265.8125 Q479.9531,265.1875 481.1875,265.1875 Q481.9219,265.1875 482.5625,265.3594 Q483.2188,265.5156 483.7656,265.875 Z " fill="#000000"/>
            <text fill="#000000" font-family="sans-serif" font-size="14" lengthAdjust="spacing" textLength="80" x="495" y="275.7285">MarketOrder</text>
            <line style="stroke:#181818;stroke-width:0.5;" x1="467" x2="577" y1="286" y2="286"/>
            <line style="stroke:#181818;stroke-width:0.5;" x1="467" x2="577" y1="294" y2="294"/>
        </g>
        <!--class Transaction-->
        <g id="elem_Transaction">
            <rect codeLine="25" fill="#F1F1F1" height="48" id="Transaction" rx="2.5" ry="2.5" style="stroke:#181818;stroke-width:0.5;" width="107" x="82.5" y="362"/>
            <ellipse cx="97.5" cy="378" fill="#ADD1B2" rx="11" ry="11" style="stroke:#181818;stroke-width:1.0;"/>
            <path d="M100.2656,373.875 Q100.4219,373.6563 100.6094,373.5469 Q100.7969,373.4375 101.0156,373.4375 Q101.3906,373.4375 101.625,373.7031 Q101.8594,373.9531 101.8594,374.5625 L101.8594,376.0156 Q101.8594,376.625 101.625,376.8906 Q101.3906,377.1563 101.0156,377.1563 Q100.6719,377.1563 100.4688,376.9531 Q100.2656,376.7656 100.1563,376.25 Q100.1094,375.8906 99.9219,375.7031 Q99.5938,375.3281 98.9844,375.1094 Q98.375,374.8906 97.75,374.8906 Q96.9844,374.8906 96.3438,375.2188 Q95.7188,375.5469 95.2188,376.2969 Q94.7344,377.0469 94.7344,378.0781 L94.7344,379.1719 Q94.7344,380.4063 95.625,381.2344 Q96.5156,382.0469 98.1094,382.0469 Q99.0469,382.0469 99.7031,381.7969 Q100.0938,381.6406 100.5156,381.2031 Q100.7813,380.9375 100.9219,380.8594 Q101.0781,380.7813 101.2813,380.7813 Q101.6094,380.7813 101.8594,381.0469 Q102.125,381.2969 102.125,381.6406 Q102.125,381.9844 101.7813,382.3906 Q101.2813,382.9688 100.4844,383.2969 Q99.4063,383.75 98.1094,383.75 Q96.5938,383.75 95.3906,383.125 Q94.4063,382.625 93.7188,381.5625 Q93.0313,380.4844 93.0313,379.2031 L93.0313,378.0469 Q93.0313,376.7188 93.6406,375.5781 Q94.2656,374.4219 95.3594,373.8125 Q96.4531,373.1875 97.6875,373.1875 Q98.4219,373.1875 99.0625,373.3594 Q99.7188,373.5156 100.2656,373.875 Z " fill="#000000"/>
            <text fill="#000000" font-family="sans-serif" font-size="14" lengthAdjust="spacing" textLength="75" x="111.5" y="383.7285">Transaction</text>
            <line style="stroke:#181818;stroke-width:0.5;" x1="83.5" x2="188.5" y1="394" y2="394"/>
            <line style="stroke:#181818;stroke-width:0.5;" x1="83.5" x2="188.5" y1="402" y2="402"/>
        </g>
        <!--class User-->
        <g id="elem_User">
            <rect codeLine="26" fill="#F1F1F1" height="48" id="User" rx="2.5" ry="2.5" style="stroke:#181818;stroke-width:0.5;" width="61" x="224.5" y="362"/>
            <ellipse cx="239.5" cy="378" fill="#ADD1B2" rx="11" ry="11" style="stroke:#181818;stroke-width:1.0;"/>
            <path d="M242.2656,373.875 Q242.4219,373.6563 242.6094,373.5469 Q242.7969,373.4375 243.0156,373.4375 Q243.3906,373.4375 243.625,373.7031 Q243.8594,373.9531 243.8594,374.5625 L243.8594,376.0156 Q243.8594,376.625 243.625,376.8906 Q243.3906,377.1563 243.0156,377.1563 Q242.6719,377.1563 242.4688,376.9531 Q242.2656,376.7656 242.1563,376.25 Q242.1094,375.8906 241.9219,375.7031 Q241.5938,375.3281 240.9844,375.1094 Q240.375,374.8906 239.75,374.8906 Q238.9844,374.8906 238.3438,375.2188 Q237.7188,375.5469 237.2188,376.2969 Q236.7344,377.0469 236.7344,378.0781 L236.7344,379.1719 Q236.7344,380.4063 237.625,381.2344 Q238.5156,382.0469 240.1094,382.0469 Q241.0469,382.0469 241.7031,381.7969 Q242.0938,381.6406 242.5156,381.2031 Q242.7813,380.9375 242.9219,380.8594 Q243.0781,380.7813 243.2813,380.7813 Q243.6094,380.7813 243.8594,381.0469 Q244.125,381.2969 244.125,381.6406 Q244.125,381.9844 243.7813,382.3906 Q243.2813,382.9688 242.4844,383.2969 Q241.4063,383.75 240.1094,383.75 Q238.5938,383.75 237.3906,383.125 Q236.4063,382.625 235.7188,381.5625 Q235.0313,380.4844 235.0313,379.2031 L235.0313,378.0469 Q235.0313,376.7188 235.6406,375.5781 Q236.2656,374.4219 237.3594,373.8125 Q238.4531,373.1875 239.6875,373.1875 Q240.4219,373.1875 241.0625,373.3594 Q241.7188,373.5156 242.2656,373.875 Z " fill="#000000"/>
            <text fill="#000000" font-family="sans-serif" font-size="14" lengthAdjust="spacing" textLength="29" x="253.5" y="383.7285">User</text>
            <line style="stroke:#181818;stroke-width:0.5;" x1="225.5" x2="284.5" y1="394" y2="394"/>
            <line style="stroke:#181818;stroke-width:0.5;" x1="225.5" x2="284.5" y1="402" y2="402"/>
        </g>
        <!--class Wallet-->
        <g id="elem_Wallet">
            <rect codeLine="27" fill="#F1F1F1" height="48" id="Wallet" rx="2.5" ry="2.5" style="stroke:#181818;stroke-width:0.5;" width="71" x="320.5" y="362"/>
            <ellipse cx="335.5" cy="378" fill="#ADD1B2" rx="11" ry="11" style="stroke:#181818;stroke-width:1.0;"/>
            <path d="M338.2656,373.875 Q338.4219,373.6563 338.6094,373.5469 Q338.7969,373.4375 339.0156,373.4375 Q339.3906,373.4375 339.625,373.7031 Q339.8594,373.9531 339.8594,374.5625 L339.8594,376.0156 Q339.8594,376.625 339.625,376.8906 Q339.3906,377.1563 339.0156,377.1563 Q338.6719,377.1563 338.4688,376.9531 Q338.2656,376.7656 338.1563,376.25 Q338.1094,375.8906 337.9219,375.7031 Q337.5938,375.3281 336.9844,375.1094 Q336.375,374.8906 335.75,374.8906 Q334.9844,374.8906 334.3438,375.2188 Q333.7188,375.5469 333.2188,376.2969 Q332.7344,377.0469 332.7344,378.0781 L332.7344,379.1719 Q332.7344,380.4063 333.625,381.2344 Q334.5156,382.0469 336.1094,382.0469 Q337.0469,382.0469 337.7031,381.7969 Q338.0938,381.6406 338.5156,381.2031 Q338.7813,380.9375 338.9219,380.8594 Q339.0781,380.7813 339.2813,380.7813 Q339.6094,380.7813 339.8594,381.0469 Q340.125,381.2969 340.125,381.6406 Q340.125,381.9844 339.7813,382.3906 Q339.2813,382.9688 338.4844,383.2969 Q337.4063,383.75 336.1094,383.75 Q334.5938,383.75 333.3906,383.125 Q332.4063,382.625 331.7188,381.5625 Q331.0313,380.4844 331.0313,379.2031 L331.0313,378.0469 Q331.0313,376.7188 331.6406,375.5781 Q332.2656,374.4219 333.3594,373.8125 Q334.4531,373.1875 335.6875,373.1875 Q336.4219,373.1875 337.0625,373.3594 Q337.7188,373.5156 338.2656,373.875 Z " fill="#000000"/>
            <text fill="#000000" font-family="sans-serif" font-size="14" lengthAdjust="spacing" textLength="39" x="349.5" y="383.7285">Wallet</text>
            <line style="stroke:#181818;stroke-width:0.5;" x1="321.5" x2="390.5" y1="394" y2="394"/>
            <line style="stroke:#181818;stroke-width:0.5;" x1="321.5" x2="390.5" y1="402" y2="402"/>
        </g>
        <!--class OrderType-->
        <g id="elem_OrderType">
            <rect codeLine="35" fill="#F1F1F1" height="48" id="OrderType" rx="2.5" ry="2.5" style="stroke:#181818;stroke-width:0.5;" width="101" x="85.5" y="510"/>
            <ellipse cx="100.5" cy="526" fill="#EB937F" rx="11" ry="11" style="stroke:#181818;stroke-width:1.0;"/>
            <path d="M99.3594,526.7969 L99.3594,529.2969 L103.6875,529.2969 L103.6875,528.375 Q103.6875,527.7656 103.9219,527.5 Q104.1719,527.2344 104.5469,527.2344 Q104.9219,527.2344 105.1563,527.5 Q105.3906,527.7656 105.3906,528.375 L105.3906,531 L97.3906,531 Q96.7656,531 96.5,530.7656 Q96.25,530.5313 96.25,530.1406 Q96.25,529.7656 96.5156,529.5313 Q96.7813,529.2969 97.3906,529.2969 L97.6563,529.2969 L97.6563,522.6406 L97.3906,522.6406 Q96.7656,522.6406 96.5,522.4063 Q96.25,522.1719 96.25,521.7813 Q96.25,521.4063 96.5,521.1719 Q96.7656,520.9375 97.3906,520.9375 L105.0156,520.9375 L105.0156,523.5313 Q105.0156,524.1406 104.7813,524.4063 Q104.5625,524.6563 104.1719,524.6563 Q103.7969,524.6563 103.5625,524.4063 Q103.3281,524.1406 103.3281,523.5313 L103.3281,522.6406 L99.3594,522.6406 L99.3594,525.0938 L100.8438,525.0938 Q100.8438,524.4375 100.9688,524.25 Q101.2344,523.8438 101.7031,523.8438 Q102.0781,523.8438 102.3125,524.1094 Q102.5469,524.3594 102.5469,524.9688 L102.5469,526.9375 Q102.5469,527.4844 102.4219,527.6719 Q102.1563,528.0625 101.7031,528.0625 Q101.2344,528.0625 100.9688,527.6563 Q100.8438,527.4688 100.8438,526.7969 L99.3594,526.7969 Z " fill="#000000"/>
            <text fill="#000000" font-family="sans-serif" font-size="14" lengthAdjust="spacing" textLength="69" x="114.5" y="531.7285">OrderType</text>
            <line style="stroke:#181818;stroke-width:0.5;" x1="86.5" x2="185.5" y1="542" y2="542"/>
            <line style="stroke:#181818;stroke-width:0.5;" x1="86.5" x2="185.5" y1="550" y2="550"/>
        </g>
        <!--class TransactionAction-->
        <g id="elem_TransactionAction">
            <rect codeLine="36" fill="#F1F1F1" height="48" id="TransactionAction" rx="2.5" ry="2.5" style="stroke:#181818;stroke-width:0.5;" width="146" x="222" y="510"/>
            <ellipse cx="237" cy="526" fill="#EB937F" rx="11" ry="11" style="stroke:#181818;stroke-width:1.0;"/>
            <path d="M235.8594,526.7969 L235.8594,529.2969 L240.1875,529.2969 L240.1875,528.375 Q240.1875,527.7656 240.4219,527.5 Q240.6719,527.2344 241.0469,527.2344 Q241.4219,527.2344 241.6563,527.5 Q241.8906,527.7656 241.8906,528.375 L241.8906,531 L233.8906,531 Q233.2656,531 233,530.7656 Q232.75,530.5313 232.75,530.1406 Q232.75,529.7656 233.0156,529.5313 Q233.2813,529.2969 233.8906,529.2969 L234.1563,529.2969 L234.1563,522.6406 L233.8906,522.6406 Q233.2656,522.6406 233,522.4063 Q232.75,522.1719 232.75,521.7813 Q232.75,521.4063 233,521.1719 Q233.2656,520.9375 233.8906,520.9375 L241.5156,520.9375 L241.5156,523.5313 Q241.5156,524.1406 241.2813,524.4063 Q241.0625,524.6563 240.6719,524.6563 Q240.2969,524.6563 240.0625,524.4063 Q239.8281,524.1406 239.8281,523.5313 L239.8281,522.6406 L235.8594,522.6406 L235.8594,525.0938 L237.3438,525.0938 Q237.3438,524.4375 237.4688,524.25 Q237.7344,523.8438 238.2031,523.8438 Q238.5781,523.8438 238.8125,524.1094 Q239.0469,524.3594 239.0469,524.9688 L239.0469,526.9375 Q239.0469,527.4844 238.9219,527.6719 Q238.6563,528.0625 238.2031,528.0625 Q237.7344,528.0625 237.4688,527.6563 Q237.3438,527.4688 237.3438,526.7969 L235.8594,526.7969 Z " fill="#000000"/>
            <text fill="#000000" font-family="sans-serif" font-size="14" lengthAdjust="spacing" textLength="114" x="251" y="531.7285">TransactionAction</text>
            <line style="stroke:#181818;stroke-width:0.5;" x1="223" x2="367" y1="542" y2="542"/>
            <line style="stroke:#181818;stroke-width:0.5;" x1="223" x2="367" y1="550" y2="550"/>
        </g>
        <!--class AccountService-->
        <g id="elem_AccountService">
            <rect codeLine="28" fill="#F1F1F1" height="48" id="AccountService" rx="2.5" ry="2.5" style="stroke:#181818;stroke-width:0.5;" width="130" x="1463" y="510"/>
            <ellipse cx="1478" cy="526" fill="#ADD1B2" rx="11" ry="11" style="stroke:#181818;stroke-width:1.0;"/>
            <path d="M1480.7656,521.875 Q1480.9219,521.6563 1481.1094,521.5469 Q1481.2969,521.4375 1481.5156,521.4375 Q1481.8906,521.4375 1482.125,521.7031 Q1482.3594,521.9531 1482.3594,522.5625 L1482.3594,524.0156 Q1482.3594,524.625 1482.125,524.8906 Q1481.8906,525.1563 1481.5156,525.1563 Q1481.1719,525.1563 1480.9688,524.9531 Q1480.7656,524.7656 1480.6563,524.25 Q1480.6094,523.8906 1480.4219,523.7031 Q1480.0938,523.3281 1479.4844,523.1094 Q1478.875,522.8906 1478.25,522.8906 Q1477.4844,522.8906 1476.8438,523.2188 Q1476.2188,523.5469 1475.7188,524.2969 Q1475.2344,525.0469 1475.2344,526.0781 L1475.2344,527.1719 Q1475.2344,528.4063 1476.125,529.2344 Q1477.0156,530.0469 1478.6094,530.0469 Q1479.5469,530.0469 1480.2031,529.7969 Q1480.5938,529.6406 1481.0156,529.2031 Q1481.2813,528.9375 1481.4219,528.8594 Q1481.5781,528.7813 1481.7813,528.7813 Q1482.1094,528.7813 1482.3594,529.0469 Q1482.625,529.2969 1482.625,529.6406 Q1482.625,529.9844 1482.2813,530.3906 Q1481.7813,530.9688 1480.9844,531.2969 Q1479.9063,531.75 1478.6094,531.75 Q1477.0938,531.75 1475.8906,531.125 Q1474.9063,530.625 1474.2188,529.5625 Q1473.5313,528.4844 1473.5313,527.2031 L1473.5313,526.0469 Q1473.5313,524.7188 1474.1406,523.5781 Q1474.7656,522.4219 1475.8594,521.8125 Q1476.9531,521.1875 1478.1875,521.1875 Q1478.9219,521.1875 1479.5625,521.3594 Q1480.2188,521.5156 1480.7656,521.875 Z " fill="#000000"/>
            <text fill="#000000" font-family="sans-serif" font-size="14" lengthAdjust="spacing" textLength="98" x="1492" y="531.7285">AccountService</text>
            <line style="stroke:#181818;stroke-width:0.5;" x1="1464" x2="1592" y1="542" y2="542"/>
            <line style="stroke:#181818;stroke-width:0.5;" x1="1464" x2="1592" y1="550" y2="550"/>
        </g>
        <!--class AccountServiceException-->
        <g id="elem_AccountServiceException">
            <rect codeLine="29" fill="#F1F1F1" height="48" id="AccountServiceException" rx="2.5" ry="2.5" style="stroke:#181818;stroke-width:0.5;" width="191" x="1628.5" y="510"/>
            <ellipse cx="1643.5" cy="526" fill="#ADD1B2" rx="11" ry="11" style="stroke:#181818;stroke-width:1.0;"/>
            <path d="M1646.2656,521.875 Q1646.4219,521.6563 1646.6094,521.5469 Q1646.7969,521.4375 1647.0156,521.4375 Q1647.3906,521.4375 1647.625,521.7031 Q1647.8594,521.9531 1647.8594,522.5625 L1647.8594,524.0156 Q1647.8594,524.625 1647.625,524.8906 Q1647.3906,525.1563 1647.0156,525.1563 Q1646.6719,525.1563 1646.4688,524.9531 Q1646.2656,524.7656 1646.1563,524.25 Q1646.1094,523.8906 1645.9219,523.7031 Q1645.5938,523.3281 1644.9844,523.1094 Q1644.375,522.8906 1643.75,522.8906 Q1642.9844,522.8906 1642.3438,523.2188 Q1641.7188,523.5469 1641.2188,524.2969 Q1640.7344,525.0469 1640.7344,526.0781 L1640.7344,527.1719 Q1640.7344,528.4063 1641.625,529.2344 Q1642.5156,530.0469 1644.1094,530.0469 Q1645.0469,530.0469 1645.7031,529.7969 Q1646.0938,529.6406 1646.5156,529.2031 Q1646.7813,528.9375 1646.9219,528.8594 Q1647.0781,528.7813 1647.2813,528.7813 Q1647.6094,528.7813 1647.8594,529.0469 Q1648.125,529.2969 1648.125,529.6406 Q1648.125,529.9844 1647.7813,530.3906 Q1647.2813,530.9688 1646.4844,531.2969 Q1645.4063,531.75 1644.1094,531.75 Q1642.5938,531.75 1641.3906,531.125 Q1640.4063,530.625 1639.7188,529.5625 Q1639.0313,528.4844 1639.0313,527.2031 L1639.0313,526.0469 Q1639.0313,524.7188 1639.6406,523.5781 Q1640.2656,522.4219 1641.3594,521.8125 Q1642.4531,521.1875 1643.6875,521.1875 Q1644.4219,521.1875 1645.0625,521.3594 Q1645.7188,521.5156 1646.2656,521.875 Z " fill="#000000"/>
            <text fill="#000000" font-family="sans-serif" font-size="14" lengthAdjust="spacing" textLength="159" x="1657.5" y="531.7285">AccountServiceException</text>
            <line style="stroke:#181818;stroke-width:0.5;" x1="1629.5" x2="1818.5" y1="542" y2="542"/>
            <line style="stroke:#181818;stroke-width:0.5;" x1="1629.5" x2="1818.5" y1="550" y2="550"/>
        </g>
        <!--class ExchangeService-->
        <g id="elem_ExchangeService">
            <rect codeLine="30" fill="#F1F1F1" height="48" id="ExchangeService" rx="2.5" ry="2.5" style="stroke:#181818;stroke-width:0.5;" width="141" x="1463.5" y="618"/>
            <ellipse cx="1478.5" cy="634" fill="#ADD1B2" rx="11" ry="11" style="stroke:#181818;stroke-width:1.0;"/>
            <path d="M1481.2656,629.875 Q1481.4219,629.6563 1481.6094,629.5469 Q1481.7969,629.4375 1482.0156,629.4375 Q1482.3906,629.4375 1482.625,629.7031 Q1482.8594,629.9531 1482.8594,630.5625 L1482.8594,632.0156 Q1482.8594,632.625 1482.625,632.8906 Q1482.3906,633.1563 1482.0156,633.1563 Q1481.6719,633.1563 1481.4688,632.9531 Q1481.2656,632.7656 1481.1563,632.25 Q1481.1094,631.8906 1480.9219,631.7031 Q1480.5938,631.3281 1479.9844,631.1094 Q1479.375,630.8906 1478.75,630.8906 Q1477.9844,630.8906 1477.3438,631.2188 Q1476.7188,631.5469 1476.2188,632.2969 Q1475.7344,633.0469 1475.7344,634.0781 L1475.7344,635.1719 Q1475.7344,636.4063 1476.625,637.2344 Q1477.5156,638.0469 1479.1094,638.0469 Q1480.0469,638.0469 1480.7031,637.7969 Q1481.0938,637.6406 1481.5156,637.2031 Q1481.7813,636.9375 1481.9219,636.8594 Q1482.0781,636.7813 1482.2813,636.7813 Q1482.6094,636.7813 1482.8594,637.0469 Q1483.125,637.2969 1483.125,637.6406 Q1483.125,637.9844 1482.7813,638.3906 Q1482.2813,638.9688 1481.4844,639.2969 Q1480.4063,639.75 1479.1094,639.75 Q1477.5938,639.75 1476.3906,639.125 Q1475.4063,638.625 1474.7188,637.5625 Q1474.0313,636.4844 1474.0313,635.2031 L1474.0313,634.0469 Q1474.0313,632.7188 1474.6406,631.5781 Q1475.2656,630.4219 1476.3594,629.8125 Q1477.4531,629.1875 1478.6875,629.1875 Q1479.4219,629.1875 1480.0625,629.3594 Q1480.7188,629.5156 1481.2656,629.875 Z " fill="#000000"/>
            <text fill="#000000" font-family="sans-serif" font-size="14" lengthAdjust="spacing" textLength="109" x="1492.5" y="639.7285">ExchangeService</text>
            <line style="stroke:#181818;stroke-width:0.5;" x1="1464.5" x2="1603.5" y1="650" y2="650"/>
            <line style="stroke:#181818;stroke-width:0.5;" x1="1464.5" x2="1603.5" y1="658" y2="658"/>
        </g>
        <!--class TradingService-->
        <g id="elem_TradingService">
            <rect codeLine="31" fill="#F1F1F1" height="48" id="TradingService" rx="2.5" ry="2.5" style="stroke:#181818;stroke-width:0.5;" width="128" x="1640" y="618"/>
            <ellipse cx="1655" cy="634" fill="#ADD1B2" rx="11" ry="11" style="stroke:#181818;stroke-width:1.0;"/>
            <path d="M1657.7656,629.875 Q1657.9219,629.6563 1658.1094,629.5469 Q1658.2969,629.4375 1658.5156,629.4375 Q1658.8906,629.4375 1659.125,629.7031 Q1659.3594,629.9531 1659.3594,630.5625 L1659.3594,632.0156 Q1659.3594,632.625 1659.125,632.8906 Q1658.8906,633.1563 1658.5156,633.1563 Q1658.1719,633.1563 1657.9688,632.9531 Q1657.7656,632.7656 1657.6563,632.25 Q1657.6094,631.8906 1657.4219,631.7031 Q1657.0938,631.3281 1656.4844,631.1094 Q1655.875,630.8906 1655.25,630.8906 Q1654.4844,630.8906 1653.8438,631.2188 Q1653.2188,631.5469 1652.7188,632.2969 Q1652.2344,633.0469 1652.2344,634.0781 L1652.2344,635.1719 Q1652.2344,636.4063 1653.125,637.2344 Q1654.0156,638.0469 1655.6094,638.0469 Q1656.5469,638.0469 1657.2031,637.7969 Q1657.5938,637.6406 1658.0156,637.2031 Q1658.2813,636.9375 1658.4219,636.8594 Q1658.5781,636.7813 1658.7813,636.7813 Q1659.1094,636.7813 1659.3594,637.0469 Q1659.625,637.2969 1659.625,637.6406 Q1659.625,637.9844 1659.2813,638.3906 Q1658.7813,638.9688 1657.9844,639.2969 Q1656.9063,639.75 1655.6094,639.75 Q1654.0938,639.75 1652.8906,639.125 Q1651.9063,638.625 1651.2188,637.5625 Q1650.5313,636.4844 1650.5313,635.2031 L1650.5313,634.0469 Q1650.5313,632.7188 1651.1406,631.5781 Q1651.7656,630.4219 1652.8594,629.8125 Q1653.9531,629.1875 1655.1875,629.1875 Q1655.9219,629.1875 1656.5625,629.3594 Q1657.2188,629.5156 1657.7656,629.875 Z " fill="#000000"/>
            <text fill="#000000" font-family="sans-serif" font-size="14" lengthAdjust="spacing" textLength="96" x="1669" y="639.7285">TradingService</text>
            <line style="stroke:#181818;stroke-width:0.5;" x1="1641" x2="1767" y1="650" y2="650"/>
            <line style="stroke:#181818;stroke-width:0.5;" x1="1641" x2="1767" y1="658" y2="658"/>
        </g>
        <!--class Exception-->
        <g id="elem_Exception">
            <rect codeLine="2" fill="#F1F1F1" height="48" id="Exception" rx="2.5" ry="2.5" style="stroke:#181818;stroke-width:0.5;" width="93" x="3148.5" y="130"/>
            <ellipse cx="3163.5" cy="146" fill="#ADD1B2" rx="11" ry="11" style="stroke:#181818;stroke-width:1.0;"/>
            <path d="M3166.2656,141.875 Q3166.4219,141.6563 3166.6094,141.5469 Q3166.7969,141.4375 3167.0156,141.4375 Q3167.3906,141.4375 3167.625,141.7031 Q3167.8594,141.9531 3167.8594,142.5625 L3167.8594,144.0156 Q3167.8594,144.625 3167.625,144.8906 Q3167.3906,145.1563 3167.0156,145.1563 Q3166.6719,145.1563 3166.4688,144.9531 Q3166.2656,144.7656 3166.1563,144.25 Q3166.1094,143.8906 3165.9219,143.7031 Q3165.5938,143.3281 3164.9844,143.1094 Q3164.375,142.8906 3163.75,142.8906 Q3162.9844,142.8906 3162.3438,143.2188 Q3161.7188,143.5469 3161.2188,144.2969 Q3160.7344,145.0469 3160.7344,146.0781 L3160.7344,147.1719 Q3160.7344,148.4063 3161.625,149.2344 Q3162.5156,150.0469 3164.1094,150.0469 Q3165.0469,150.0469 3165.7031,149.7969 Q3166.0938,149.6406 3166.5156,149.2031 Q3166.7813,148.9375 3166.9219,148.8594 Q3167.0781,148.7813 3167.2813,148.7813 Q3167.6094,148.7813 3167.8594,149.0469 Q3168.125,149.2969 3168.125,149.6406 Q3168.125,149.9844 3167.7813,150.3906 Q3167.2813,150.9688 3166.4844,151.2969 Q3165.4063,151.75 3164.1094,151.75 Q3162.5938,151.75 3161.3906,151.125 Q3160.4063,150.625 3159.7188,149.5625 Q3159.0313,148.4844 3159.0313,147.2031 L3159.0313,146.0469 Q3159.0313,144.7188 3159.6406,143.5781 Q3160.2656,142.4219 3161.3594,141.8125 Q3162.4531,141.1875 3163.6875,141.1875 Q3164.4219,141.1875 3165.0625,141.3594 Q3165.7188,141.5156 3166.2656,141.875 Z " fill="#000000"/>
            <text fill="#000000" font-family="sans-serif" font-size="14" lengthAdjust="spacing" textLength="61" x="3177.5" y="151.7285">Exception</text>
            <line style="stroke:#181818;stroke-width:0.5;" x1="3149.5" x2="3240.5" y1="162" y2="162"/>
            <line style="stroke:#181818;stroke-width:0.5;" x1="3149.5" x2="3240.5" y1="170" y2="170"/>
        </g>
        <!--class BigDecimal-->
        <g id="elem_BigDecimal">
            <rect codeLine="3" fill="#F1F1F1" height="48" id="BigDecimal" rx="2.5" ry="2.5" style="stroke:#181818;stroke-width:0.5;" width="102" x="3461" y="130"/>
            <ellipse cx="3476" cy="146" fill="#ADD1B2" rx="11" ry="11" style="stroke:#181818;stroke-width:1.0;"/>
            <path d="M3478.7656,141.875 Q3478.9219,141.6563 3479.1094,141.5469 Q3479.2969,141.4375 3479.5156,141.4375 Q3479.8906,141.4375 3480.125,141.7031 Q3480.3594,141.9531 3480.3594,142.5625 L3480.3594,144.0156 Q3480.3594,144.625 3480.125,144.8906 Q3479.8906,145.1563 3479.5156,145.1563 Q3479.1719,145.1563 3478.9688,144.9531 Q3478.7656,144.7656 3478.6563,144.25 Q3478.6094,143.8906 3478.4219,143.7031 Q3478.0938,143.3281 3477.4844,143.1094 Q3476.875,142.8906 3476.25,142.8906 Q3475.4844,142.8906 3474.8438,143.2188 Q3474.2188,143.5469 3473.7188,144.2969 Q3473.2344,145.0469 3473.2344,146.0781 L3473.2344,147.1719 Q3473.2344,148.4063 3474.125,149.2344 Q3475.0156,150.0469 3476.6094,150.0469 Q3477.5469,150.0469 3478.2031,149.7969 Q3478.5938,149.6406 3479.0156,149.2031 Q3479.2813,148.9375 3479.4219,148.8594 Q3479.5781,148.7813 3479.7813,148.7813 Q3480.1094,148.7813 3480.3594,149.0469 Q3480.625,149.2969 3480.625,149.6406 Q3480.625,149.9844 3480.2813,150.3906 Q3479.7813,150.9688 3478.9844,151.2969 Q3477.9063,151.75 3476.6094,151.75 Q3475.0938,151.75 3473.8906,151.125 Q3472.9063,150.625 3472.2188,149.5625 Q3471.5313,148.4844 3471.5313,147.2031 L3471.5313,146.0469 Q3471.5313,144.7188 3472.1406,143.5781 Q3472.7656,142.4219 3473.8594,141.8125 Q3474.9531,141.1875 3476.1875,141.1875 Q3476.9219,141.1875 3477.5625,141.3594 Q3478.2188,141.5156 3478.7656,141.875 Z " fill="#000000"/>
            <text fill="#000000" font-family="sans-serif" font-size="14" lengthAdjust="spacing" textLength="70" x="3490" y="151.7285">BigDecimal</text>
            <line style="stroke:#181818;stroke-width:0.5;" x1="3462" x2="3562" y1="162" y2="162"/>
            <line style="stroke:#181818;stroke-width:0.5;" x1="3462" x2="3562" y1="170" y2="170"/>
        </g>
        <!--class RoundingMode-->
        <g id="elem_RoundingMode">
            <rect codeLine="4" fill="#F1F1F1" height="48" id="RoundingMode" rx="2.5" ry="2.5" style="stroke:#181818;stroke-width:0.5;" width="128" x="3298" y="130"/>
            <ellipse cx="3313" cy="146" fill="#ADD1B2" rx="11" ry="11" style="stroke:#181818;stroke-width:1.0;"/>
            <path d="M3315.7656,141.875 Q3315.9219,141.6563 3316.1094,141.5469 Q3316.2969,141.4375 3316.5156,141.4375 Q3316.8906,141.4375 3317.125,141.7031 Q3317.3594,141.9531 3317.3594,142.5625 L3317.3594,144.0156 Q3317.3594,144.625 3317.125,144.8906 Q3316.8906,145.1563 3316.5156,145.1563 Q3316.1719,145.1563 3315.9688,144.9531 Q3315.7656,144.7656 3315.6563,144.25 Q3315.6094,143.8906 3315.4219,143.7031 Q3315.0938,143.3281 3314.4844,143.1094 Q3313.875,142.8906 3313.25,142.8906 Q3312.4844,142.8906 3311.8438,143.2188 Q3311.2188,143.5469 3310.7188,144.2969 Q3310.2344,145.0469 3310.2344,146.0781 L3310.2344,147.1719 Q3310.2344,148.4063 3311.125,149.2344 Q3312.0156,150.0469 3313.6094,150.0469 Q3314.5469,150.0469 3315.2031,149.7969 Q3315.5938,149.6406 3316.0156,149.2031 Q3316.2813,148.9375 3316.4219,148.8594 Q3316.5781,148.7813 3316.7813,148.7813 Q3317.1094,148.7813 3317.3594,149.0469 Q3317.625,149.2969 3317.625,149.6406 Q3317.625,149.9844 3317.2813,150.3906 Q3316.7813,150.9688 3315.9844,151.2969 Q3314.9063,151.75 3313.6094,151.75 Q3312.0938,151.75 3310.8906,151.125 Q3309.9063,150.625 3309.2188,149.5625 Q3308.5313,148.4844 3308.5313,147.2031 L3308.5313,146.0469 Q3308.5313,144.7188 3309.1406,143.5781 Q3309.7656,142.4219 3310.8594,141.8125 Q3311.9531,141.1875 3313.1875,141.1875 Q3313.9219,141.1875 3314.5625,141.3594 Q3315.2188,141.5156 3315.7656,141.875 Z " fill="#000000"/>
            <text fill="#000000" font-family="sans-serif" font-size="14" lengthAdjust="spacing" textLength="96" x="3327" y="151.7285">RoundingMode</text>
            <line style="stroke:#181818;stroke-width:0.5;" x1="3299" x2="3425" y1="162" y2="162"/>
            <line style="stroke:#181818;stroke-width:0.5;" x1="3299" x2="3425" y1="170" y2="170"/>
        </g>
        <!--class LocalDateTime-->
        <g id="elem_LocalDateTime">
            <rect codeLine="5" fill="#F1F1F1" height="48" id="LocalDateTime" rx="2.5" ry="2.5" style="stroke:#181818;stroke-width:0.5;" width="127" x="2964.5" y="130"/>
            <ellipse cx="2979.5" cy="146" fill="#ADD1B2" rx="11" ry="11" style="stroke:#181818;stroke-width:1.0;"/>
            <path d="M2982.2656,141.875 Q2982.4219,141.6563 2982.6094,141.5469 Q2982.7969,141.4375 2983.0156,141.4375 Q2983.3906,141.4375 2983.625,141.7031 Q2983.8594,141.9531 2983.8594,142.5625 L2983.8594,144.0156 Q2983.8594,144.625 2983.625,144.8906 Q2983.3906,145.1563 2983.0156,145.1563 Q2982.6719,145.1563 2982.4688,144.9531 Q2982.2656,144.7656 2982.1563,144.25 Q2982.1094,143.8906 2981.9219,143.7031 Q2981.5938,143.3281 2980.9844,143.1094 Q2980.375,142.8906 2979.75,142.8906 Q2978.9844,142.8906 2978.3438,143.2188 Q2977.7188,143.5469 2977.2188,144.2969 Q2976.7344,145.0469 2976.7344,146.0781 L2976.7344,147.1719 Q2976.7344,148.4063 2977.625,149.2344 Q2978.5156,150.0469 2980.1094,150.0469 Q2981.0469,150.0469 2981.7031,149.7969 Q2982.0938,149.6406 2982.5156,149.2031 Q2982.7813,148.9375 2982.9219,148.8594 Q2983.0781,148.7813 2983.2813,148.7813 Q2983.6094,148.7813 2983.8594,149.0469 Q2984.125,149.2969 2984.125,149.6406 Q2984.125,149.9844 2983.7813,150.3906 Q2983.2813,150.9688 2982.4844,151.2969 Q2981.4063,151.75 2980.1094,151.75 Q2978.5938,151.75 2977.3906,151.125 Q2976.4063,150.625 2975.7188,149.5625 Q2975.0313,148.4844 2975.0313,147.2031 L2975.0313,146.0469 Q2975.0313,144.7188 2975.6406,143.5781 Q2976.2656,142.4219 2977.3594,141.8125 Q2978.4531,141.1875 2979.6875,141.1875 Q2980.4219,141.1875 2981.0625,141.3594 Q2981.7188,141.5156 2982.2656,141.875 Z " fill="#000000"/>
            <text fill="#000000" font-family="sans-serif" font-size="14" lengthAdjust="spacing" textLength="95" x="2993.5" y="151.7285">LocalDateTime</text>
            <line style="stroke:#181818;stroke-width:0.5;" x1="2965.5" x2="3090.5" y1="162" y2="162"/>
            <line style="stroke:#181818;stroke-width:0.5;" x1="2965.5" x2="3090.5" y1="170" y2="170"/>
        </g>
        <!--class ZoneOffset-->
        <g id="elem_ZoneOffset">
            <rect codeLine="6" fill="#F1F1F1" height="48" id="ZoneOffset" rx="2.5" ry="2.5" style="stroke:#181818;stroke-width:0.5;" width="102" x="2827" y="130"/>
            <ellipse cx="2842" cy="146" fill="#ADD1B2" rx="11" ry="11" style="stroke:#181818;stroke-width:1.0;"/>
            <path d="M2844.7656,141.875 Q2844.9219,141.6563 2845.1094,141.5469 Q2845.2969,141.4375 2845.5156,141.4375 Q2845.8906,141.4375 2846.125,141.7031 Q2846.3594,141.9531 2846.3594,142.5625 L2846.3594,144.0156 Q2846.3594,144.625 2846.125,144.8906 Q2845.8906,145.1563 2845.5156,145.1563 Q2845.1719,145.1563 2844.9688,144.9531 Q2844.7656,144.7656 2844.6563,144.25 Q2844.6094,143.8906 2844.4219,143.7031 Q2844.0938,143.3281 2843.4844,143.1094 Q2842.875,142.8906 2842.25,142.8906 Q2841.4844,142.8906 2840.8438,143.2188 Q2840.2188,143.5469 2839.7188,144.2969 Q2839.2344,145.0469 2839.2344,146.0781 L2839.2344,147.1719 Q2839.2344,148.4063 2840.125,149.2344 Q2841.0156,150.0469 2842.6094,150.0469 Q2843.5469,150.0469 2844.2031,149.7969 Q2844.5938,149.6406 2845.0156,149.2031 Q2845.2813,148.9375 2845.4219,148.8594 Q2845.5781,148.7813 2845.7813,148.7813 Q2846.1094,148.7813 2846.3594,149.0469 Q2846.625,149.2969 2846.625,149.6406 Q2846.625,149.9844 2846.2813,150.3906 Q2845.7813,150.9688 2844.9844,151.2969 Q2843.9063,151.75 2842.6094,151.75 Q2841.0938,151.75 2839.8906,151.125 Q2838.9063,150.625 2838.2188,149.5625 Q2837.5313,148.4844 2837.5313,147.2031 L2837.5313,146.0469 Q2837.5313,144.7188 2838.1406,143.5781 Q2838.7656,142.4219 2839.8594,141.8125 Q2840.9531,141.1875 2842.1875,141.1875 Q2842.9219,141.1875 2843.5625,141.3594 Q2844.2188,141.5156 2844.7656,141.875 Z " fill="#000000"/>
            <text fill="#000000" font-family="sans-serif" font-size="14" lengthAdjust="spacing" textLength="70" x="2856" y="151.7285">ZoneOffset</text>
            <line style="stroke:#181818;stroke-width:0.5;" x1="2828" x2="2928" y1="162" y2="162"/>
            <line style="stroke:#181818;stroke-width:0.5;" x1="2828" x2="2928" y1="170" y2="170"/>
        </g>
        <!--class ArrayList-->
        <g id="elem_ArrayList">
            <rect codeLine="7" fill="#F1F1F1" height="48" id="ArrayList" rx="2.5" ry="2.5" style="stroke:#181818;stroke-width:0.5;" width="88" x="1948" y="130"/>
            <ellipse cx="1963" cy="146" fill="#ADD1B2" rx="11" ry="11" style="stroke:#181818;stroke-width:1.0;"/>
            <path d="M1965.7656,141.875 Q1965.9219,141.6563 1966.1094,141.5469 Q1966.2969,141.4375 1966.5156,141.4375 Q1966.8906,141.4375 1967.125,141.7031 Q1967.3594,141.9531 1967.3594,142.5625 L1967.3594,144.0156 Q1967.3594,144.625 1967.125,144.8906 Q1966.8906,145.1563 1966.5156,145.1563 Q1966.1719,145.1563 1965.9688,144.9531 Q1965.7656,144.7656 1965.6563,144.25 Q1965.6094,143.8906 1965.4219,143.7031 Q1965.0938,143.3281 1964.4844,143.1094 Q1963.875,142.8906 1963.25,142.8906 Q1962.4844,142.8906 1961.8438,143.2188 Q1961.2188,143.5469 1960.7188,144.2969 Q1960.2344,145.0469 1960.2344,146.0781 L1960.2344,147.1719 Q1960.2344,148.4063 1961.125,149.2344 Q1962.0156,150.0469 1963.6094,150.0469 Q1964.5469,150.0469 1965.2031,149.7969 Q1965.5938,149.6406 1966.0156,149.2031 Q1966.2813,148.9375 1966.4219,148.8594 Q1966.5781,148.7813 1966.7813,148.7813 Q1967.1094,148.7813 1967.3594,149.0469 Q1967.625,149.2969 1967.625,149.6406 Q1967.625,149.9844 1967.2813,150.3906 Q1966.7813,150.9688 1965.9844,151.2969 Q1964.9063,151.75 1963.6094,151.75 Q1962.0938,151.75 1960.8906,151.125 Q1959.9063,150.625 1959.2188,149.5625 Q1958.5313,148.4844 1958.5313,147.2031 L1958.5313,146.0469 Q1958.5313,144.7188 1959.1406,143.5781 Q1959.7656,142.4219 1960.8594,141.8125 Q1961.9531,141.1875 1963.1875,141.1875 Q1963.9219,141.1875 1964.5625,141.3594 Q1965.2188,141.5156 1965.7656,141.875 Z " fill="#000000"/>
            <text fill="#000000" font-family="sans-serif" font-size="14" lengthAdjust="spacing" textLength="56" x="1977" y="151.7285">ArrayList</text>
            <line style="stroke:#181818;stroke-width:0.5;" x1="1949" x2="2035" y1="162" y2="162"/>
            <line style="stroke:#181818;stroke-width:0.5;" x1="1949" x2="2035" y1="170" y2="170"/>
        </g>
        <!--class HashMap-->
        <g id="elem_HashMap">
            <rect codeLine="8" fill="#F1F1F1" height="48" id="HashMap" rx="2.5" ry="2.5" style="stroke:#181818;stroke-width:0.5;" width="91" x="2071.5" y="130"/>
            <ellipse cx="2086.5" cy="146" fill="#ADD1B2" rx="11" ry="11" style="stroke:#181818;stroke-width:1.0;"/>
            <path d="M2089.2656,141.875 Q2089.4219,141.6563 2089.6094,141.5469 Q2089.7969,141.4375 2090.0156,141.4375 Q2090.3906,141.4375 2090.625,141.7031 Q2090.8594,141.9531 2090.8594,142.5625 L2090.8594,144.0156 Q2090.8594,144.625 2090.625,144.8906 Q2090.3906,145.1563 2090.0156,145.1563 Q2089.6719,145.1563 2089.4688,144.9531 Q2089.2656,144.7656 2089.1563,144.25 Q2089.1094,143.8906 2088.9219,143.7031 Q2088.5938,143.3281 2087.9844,143.1094 Q2087.375,142.8906 2086.75,142.8906 Q2085.9844,142.8906 2085.3438,143.2188 Q2084.7188,143.5469 2084.2188,144.2969 Q2083.7344,145.0469 2083.7344,146.0781 L2083.7344,147.1719 Q2083.7344,148.4063 2084.625,149.2344 Q2085.5156,150.0469 2087.1094,150.0469 Q2088.0469,150.0469 2088.7031,149.7969 Q2089.0938,149.6406 2089.5156,149.2031 Q2089.7813,148.9375 2089.9219,148.8594 Q2090.0781,148.7813 2090.2813,148.7813 Q2090.6094,148.7813 2090.8594,149.0469 Q2091.125,149.2969 2091.125,149.6406 Q2091.125,149.9844 2090.7813,150.3906 Q2090.2813,150.9688 2089.4844,151.2969 Q2088.4063,151.75 2087.1094,151.75 Q2085.5938,151.75 2084.3906,151.125 Q2083.4063,150.625 2082.7188,149.5625 Q2082.0313,148.4844 2082.0313,147.2031 L2082.0313,146.0469 Q2082.0313,144.7188 2082.6406,143.5781 Q2083.2656,142.4219 2084.3594,141.8125 Q2085.4531,141.1875 2086.6875,141.1875 Q2087.4219,141.1875 2088.0625,141.3594 Q2088.7188,141.5156 2089.2656,141.875 Z " fill="#000000"/>
            <text fill="#000000" font-family="sans-serif" font-size="14" lengthAdjust="spacing" textLength="59" x="2100.5" y="151.7285">HashMap</text>
            <line style="stroke:#181818;stroke-width:0.5;" x1="2072.5" x2="2161.5" y1="162" y2="162"/>
            <line style="stroke:#181818;stroke-width:0.5;" x1="2072.5" x2="2161.5" y1="170" y2="170"/>
        </g>
        <!--class InputMismatchException-->
        <g id="elem_InputMismatchException">
            <rect codeLine="9" fill="#F1F1F1" height="48" id="InputMismatchException" rx="2.5" ry="2.5" style="stroke:#181818;stroke-width:0.5;" width="183" x="2197.5" y="130"/>
            <ellipse cx="2212.5" cy="146" fill="#ADD1B2" rx="11" ry="11" style="stroke:#181818;stroke-width:1.0;"/>
            <path d="M2215.2656,141.875 Q2215.4219,141.6563 2215.6094,141.5469 Q2215.7969,141.4375 2216.0156,141.4375 Q2216.3906,141.4375 2216.625,141.7031 Q2216.8594,141.9531 2216.8594,142.5625 L2216.8594,144.0156 Q2216.8594,144.625 2216.625,144.8906 Q2216.3906,145.1563 2216.0156,145.1563 Q2215.6719,145.1563 2215.4688,144.9531 Q2215.2656,144.7656 2215.1563,144.25 Q2215.1094,143.8906 2214.9219,143.7031 Q2214.5938,143.3281 2213.9844,143.1094 Q2213.375,142.8906 2212.75,142.8906 Q2211.9844,142.8906 2211.3438,143.2188 Q2210.7188,143.5469 2210.2188,144.2969 Q2209.7344,145.0469 2209.7344,146.0781 L2209.7344,147.1719 Q2209.7344,148.4063 2210.625,149.2344 Q2211.5156,150.0469 2213.1094,150.0469 Q2214.0469,150.0469 2214.7031,149.7969 Q2215.0938,149.6406 2215.5156,149.2031 Q2215.7813,148.9375 2215.9219,148.8594 Q2216.0781,148.7813 2216.2813,148.7813 Q2216.6094,148.7813 2216.8594,149.0469 Q2217.125,149.2969 2217.125,149.6406 Q2217.125,149.9844 2216.7813,150.3906 Q2216.2813,150.9688 2215.4844,151.2969 Q2214.4063,151.75 2213.1094,151.75 Q2211.5938,151.75 2210.3906,151.125 Q2209.4063,150.625 2208.7188,149.5625 Q2208.0313,148.4844 2208.0313,147.2031 L2208.0313,146.0469 Q2208.0313,144.7188 2208.6406,143.5781 Q2209.2656,142.4219 2210.3594,141.8125 Q2211.4531,141.1875 2212.6875,141.1875 Q2213.4219,141.1875 2214.0625,141.3594 Q2214.7188,141.5156 2215.2656,141.875 Z " fill="#000000"/>
            <text fill="#000000" font-family="sans-serif" font-size="14" lengthAdjust="spacing" textLength="151" x="2226.5" y="151.7285">InputMismatchException</text>
            <line style="stroke:#181818;stroke-width:0.5;" x1="2198.5" x2="2379.5" y1="162" y2="162"/>
            <line style="stroke:#181818;stroke-width:0.5;" x1="2198.5" x2="2379.5" y1="170" y2="170"/>
        </g>
        <!--class List-->
        <g id="elem_List">
            <rect codeLine="10" fill="#F1F1F1" height="48" id="List" rx="2.5" ry="2.5" style="stroke:#181818;stroke-width:0.5;" width="54" x="1965" y="254"/>
            <ellipse cx="1980" cy="270" fill="#ADD1B2" rx="11" ry="11" style="stroke:#181818;stroke-width:1.0;"/>
            <path d="M1982.7656,265.875 Q1982.9219,265.6563 1983.1094,265.5469 Q1983.2969,265.4375 1983.5156,265.4375 Q1983.8906,265.4375 1984.125,265.7031 Q1984.3594,265.9531 1984.3594,266.5625 L1984.3594,268.0156 Q1984.3594,268.625 1984.125,268.8906 Q1983.8906,269.1563 1983.5156,269.1563 Q1983.1719,269.1563 1982.9688,268.9531 Q1982.7656,268.7656 1982.6563,268.25 Q1982.6094,267.8906 1982.4219,267.7031 Q1982.0938,267.3281 1981.4844,267.1094 Q1980.875,266.8906 1980.25,266.8906 Q1979.4844,266.8906 1978.8438,267.2188 Q1978.2188,267.5469 1977.7188,268.2969 Q1977.2344,269.0469 1977.2344,270.0781 L1977.2344,271.1719 Q1977.2344,272.4063 1978.125,273.2344 Q1979.0156,274.0469 1980.6094,274.0469 Q1981.5469,274.0469 1982.2031,273.7969 Q1982.5938,273.6406 1983.0156,273.2031 Q1983.2813,272.9375 1983.4219,272.8594 Q1983.5781,272.7813 1983.7813,272.7813 Q1984.1094,272.7813 1984.3594,273.0469 Q1984.625,273.2969 1984.625,273.6406 Q1984.625,273.9844 1984.2813,274.3906 Q1983.7813,274.9688 1982.9844,275.2969 Q1981.9063,275.75 1980.6094,275.75 Q1979.0938,275.75 1977.8906,275.125 Q1976.9063,274.625 1976.2188,273.5625 Q1975.5313,272.4844 1975.5313,271.2031 L1975.5313,270.0469 Q1975.5313,268.7188 1976.1406,267.5781 Q1976.7656,266.4219 1977.8594,265.8125 Q1978.9531,265.1875 1980.1875,265.1875 Q1980.9219,265.1875 1981.5625,265.3594 Q1982.2188,265.5156 1982.7656,265.875 Z " fill="#000000"/>
            <text fill="#000000" font-family="sans-serif" font-size="14" lengthAdjust="spacing" textLength="22" x="1994" y="275.7285">List</text>
            <line style="stroke:#181818;stroke-width:0.5;" x1="1966" x2="2018" y1="286" y2="286"/>
            <line style="stroke:#181818;stroke-width:0.5;" x1="1966" x2="2018" y1="294" y2="294"/>
        </g>
        <!--class Map-->
        <g id="elem_Map">
            <rect codeLine="11" fill="#F1F1F1" height="48" id="Map" rx="2.5" ry="2.5" style="stroke:#181818;stroke-width:0.5;" width="59" x="2054.5" y="254"/>
            <ellipse cx="2069.5" cy="270" fill="#ADD1B2" rx="11" ry="11" style="stroke:#181818;stroke-width:1.0;"/>
            <path d="M2072.2656,265.875 Q2072.4219,265.6563 2072.6094,265.5469 Q2072.7969,265.4375 2073.0156,265.4375 Q2073.3906,265.4375 2073.625,265.7031 Q2073.8594,265.9531 2073.8594,266.5625 L2073.8594,268.0156 Q2073.8594,268.625 2073.625,268.8906 Q2073.3906,269.1563 2073.0156,269.1563 Q2072.6719,269.1563 2072.4688,268.9531 Q2072.2656,268.7656 2072.1563,268.25 Q2072.1094,267.8906 2071.9219,267.7031 Q2071.5938,267.3281 2070.9844,267.1094 Q2070.375,266.8906 2069.75,266.8906 Q2068.9844,266.8906 2068.3438,267.2188 Q2067.7188,267.5469 2067.2188,268.2969 Q2066.7344,269.0469 2066.7344,270.0781 L2066.7344,271.1719 Q2066.7344,272.4063 2067.625,273.2344 Q2068.5156,274.0469 2070.1094,274.0469 Q2071.0469,274.0469 2071.7031,273.7969 Q2072.0938,273.6406 2072.5156,273.2031 Q2072.7813,272.9375 2072.9219,272.8594 Q2073.0781,272.7813 2073.2813,272.7813 Q2073.6094,272.7813 2073.8594,273.0469 Q2074.125,273.2969 2074.125,273.6406 Q2074.125,273.9844 2073.7813,274.3906 Q2073.2813,274.9688 2072.4844,275.2969 Q2071.4063,275.75 2070.1094,275.75 Q2068.5938,275.75 2067.3906,275.125 Q2066.4063,274.625 2065.7188,273.5625 Q2065.0313,272.4844 2065.0313,271.2031 L2065.0313,270.0469 Q2065.0313,268.7188 2065.6406,267.5781 Q2066.2656,266.4219 2067.3594,265.8125 Q2068.4531,265.1875 2069.6875,265.1875 Q2070.4219,265.1875 2071.0625,265.3594 Q2071.7188,265.5156 2072.2656,265.875 Z " fill="#000000"/>
            <text fill="#000000" font-family="sans-serif" font-size="14" lengthAdjust="spacing" textLength="27" x="2083.5" y="275.7285">Map</text>
            <line style="stroke:#181818;stroke-width:0.5;" x1="2055.5" x2="2112.5" y1="286" y2="286"/>
            <line style="stroke:#181818;stroke-width:0.5;" x1="2055.5" x2="2112.5" y1="294" y2="294"/>
        </g>
        <!--class Objects-->
        <g id="elem_Objects">
            <rect codeLine="12" fill="#F1F1F1" height="48" id="Objects" rx="2.5" ry="2.5" style="stroke:#181818;stroke-width:0.5;" width="80" x="2149" y="254"/>
            <ellipse cx="2164" cy="270" fill="#ADD1B2" rx="11" ry="11" style="stroke:#181818;stroke-width:1.0;"/>
            <path d="M2166.7656,265.875 Q2166.9219,265.6563 2167.1094,265.5469 Q2167.2969,265.4375 2167.5156,265.4375 Q2167.8906,265.4375 2168.125,265.7031 Q2168.3594,265.9531 2168.3594,266.5625 L2168.3594,268.0156 Q2168.3594,268.625 2168.125,268.8906 Q2167.8906,269.1563 2167.5156,269.1563 Q2167.1719,269.1563 2166.9688,268.9531 Q2166.7656,268.7656 2166.6563,268.25 Q2166.6094,267.8906 2166.4219,267.7031 Q2166.0938,267.3281 2165.4844,267.1094 Q2164.875,266.8906 2164.25,266.8906 Q2163.4844,266.8906 2162.8438,267.2188 Q2162.2188,267.5469 2161.7188,268.2969 Q2161.2344,269.0469 2161.2344,270.0781 L2161.2344,271.1719 Q2161.2344,272.4063 2162.125,273.2344 Q2163.0156,274.0469 2164.6094,274.0469 Q2165.5469,274.0469 2166.2031,273.7969 Q2166.5938,273.6406 2167.0156,273.2031 Q2167.2813,272.9375 2167.4219,272.8594 Q2167.5781,272.7813 2167.7813,272.7813 Q2168.1094,272.7813 2168.3594,273.0469 Q2168.625,273.2969 2168.625,273.6406 Q2168.625,273.9844 2168.2813,274.3906 Q2167.7813,274.9688 2166.9844,275.2969 Q2165.9063,275.75 2164.6094,275.75 Q2163.0938,275.75 2161.8906,275.125 Q2160.9063,274.625 2160.2188,273.5625 Q2159.5313,272.4844 2159.5313,271.2031 L2159.5313,270.0469 Q2159.5313,268.7188 2160.1406,267.5781 Q2160.7656,266.4219 2161.8594,265.8125 Q2162.9531,265.1875 2164.1875,265.1875 Q2164.9219,265.1875 2165.5625,265.3594 Q2166.2188,265.5156 2166.7656,265.875 Z " fill="#000000"/>
            <text fill="#000000" font-family="sans-serif" font-size="14" lengthAdjust="spacing" textLength="48" x="2178" y="275.7285">Objects</text>
            <line style="stroke:#181818;stroke-width:0.5;" x1="2150" x2="2228" y1="286" y2="286"/>
            <line style="stroke:#181818;stroke-width:0.5;" x1="2150" x2="2228" y1="294" y2="294"/>
        </g>
        <!--class Scanner-->
        <g id="elem_Scanner">
            <rect codeLine="13" fill="#F1F1F1" height="48" id="Scanner" rx="2.5" ry="2.5" style="stroke:#181818;stroke-width:0.5;" width="85" x="1949.5" y="362"/>
            <ellipse cx="1964.5" cy="378" fill="#ADD1B2" rx="11" ry="11" style="stroke:#181818;stroke-width:1.0;"/>
            <path d="M1967.2656,373.875 Q1967.4219,373.6563 1967.6094,373.5469 Q1967.7969,373.4375 1968.0156,373.4375 Q1968.3906,373.4375 1968.625,373.7031 Q1968.8594,373.9531 1968.8594,374.5625 L1968.8594,376.0156 Q1968.8594,376.625 1968.625,376.8906 Q1968.3906,377.1563 1968.0156,377.1563 Q1967.6719,377.1563 1967.4688,376.9531 Q1967.2656,376.7656 1967.1563,376.25 Q1967.1094,375.8906 1966.9219,375.7031 Q1966.5938,375.3281 1965.9844,375.1094 Q1965.375,374.8906 1964.75,374.8906 Q1963.9844,374.8906 1963.3438,375.2188 Q1962.7188,375.5469 1962.2188,376.2969 Q1961.7344,377.0469 1961.7344,378.0781 L1961.7344,379.1719 Q1961.7344,380.4063 1962.625,381.2344 Q1963.5156,382.0469 1965.1094,382.0469 Q1966.0469,382.0469 1966.7031,381.7969 Q1967.0938,381.6406 1967.5156,381.2031 Q1967.7813,380.9375 1967.9219,380.8594 Q1968.0781,380.7813 1968.2813,380.7813 Q1968.6094,380.7813 1968.8594,381.0469 Q1969.125,381.2969 1969.125,381.6406 Q1969.125,381.9844 1968.7813,382.3906 Q1968.2813,382.9688 1967.4844,383.2969 Q1966.4063,383.75 1965.1094,383.75 Q1963.5938,383.75 1962.3906,383.125 Q1961.4063,382.625 1960.7188,381.5625 Q1960.0313,380.4844 1960.0313,379.2031 L1960.0313,378.0469 Q1960.0313,376.7188 1960.6406,375.5781 Q1961.2656,374.4219 1962.3594,373.8125 Q1963.4531,373.1875 1964.6875,373.1875 Q1965.4219,373.1875 1966.0625,373.3594 Q1966.7188,373.5156 1967.2656,373.875 Z " fill="#000000"/>
            <text fill="#000000" font-family="sans-serif" font-size="14" lengthAdjust="spacing" textLength="53" x="1978.5" y="383.7285">Scanner</text>
            <line style="stroke:#181818;stroke-width:0.5;" x1="1950.5" x2="2033.5" y1="394" y2="394"/>
            <line style="stroke:#181818;stroke-width:0.5;" x1="1950.5" x2="2033.5" y1="402" y2="402"/>
        </g>
        <!--class Executors-->
        <g id="elem_Executors">
            <rect codeLine="14" fill="#F1F1F1" height="48" id="Executors" rx="2.5" ry="2.5" style="stroke:#181818;stroke-width:0.5;" width="94" x="2416" y="130"/>
            <ellipse cx="2431" cy="146" fill="#ADD1B2" rx="11" ry="11" style="stroke:#181818;stroke-width:1.0;"/>
            <path d="M2433.7656,141.875 Q2433.9219,141.6563 2434.1094,141.5469 Q2434.2969,141.4375 2434.5156,141.4375 Q2434.8906,141.4375 2435.125,141.7031 Q2435.3594,141.9531 2435.3594,142.5625 L2435.3594,144.0156 Q2435.3594,144.625 2435.125,144.8906 Q2434.8906,145.1563 2434.5156,145.1563 Q2434.1719,145.1563 2433.9688,144.9531 Q2433.7656,144.7656 2433.6563,144.25 Q2433.6094,143.8906 2433.4219,143.7031 Q2433.0938,143.3281 2432.4844,143.1094 Q2431.875,142.8906 2431.25,142.8906 Q2430.4844,142.8906 2429.8438,143.2188 Q2429.2188,143.5469 2428.7188,144.2969 Q2428.2344,145.0469 2428.2344,146.0781 L2428.2344,147.1719 Q2428.2344,148.4063 2429.125,149.2344 Q2430.0156,150.0469 2431.6094,150.0469 Q2432.5469,150.0469 2433.2031,149.7969 Q2433.5938,149.6406 2434.0156,149.2031 Q2434.2813,148.9375 2434.4219,148.8594 Q2434.5781,148.7813 2434.7813,148.7813 Q2435.1094,148.7813 2435.3594,149.0469 Q2435.625,149.2969 2435.625,149.6406 Q2435.625,149.9844 2435.2813,150.3906 Q2434.7813,150.9688 2433.9844,151.2969 Q2432.9063,151.75 2431.6094,151.75 Q2430.0938,151.75 2428.8906,151.125 Q2427.9063,150.625 2427.2188,149.5625 Q2426.5313,148.4844 2426.5313,147.2031 L2426.5313,146.0469 Q2426.5313,144.7188 2427.1406,143.5781 Q2427.7656,142.4219 2428.8594,141.8125 Q2429.9531,141.1875 2431.1875,141.1875 Q2431.9219,141.1875 2432.5625,141.3594 Q2433.2188,141.5156 2433.7656,141.875 Z " fill="#000000"/>
            <text fill="#000000" font-family="sans-serif" font-size="14" lengthAdjust="spacing" textLength="62" x="2445" y="151.7285">Executors</text>
            <line style="stroke:#181818;stroke-width:0.5;" x1="2417" x2="2509" y1="162" y2="162"/>
            <line style="stroke:#181818;stroke-width:0.5;" x1="2417" x2="2509" y1="170" y2="170"/>
        </g>
        <!--class ScheduledExecutorService-->
        <g id="elem_ScheduledExecutorService">
            <rect codeLine="15" fill="#F1F1F1" height="48" id="ScheduledExecutorService" rx="2.5" ry="2.5" style="stroke:#181818;stroke-width:0.5;" width="201" x="2545.5" y="130"/>
            <ellipse cx="2560.5" cy="146" fill="#ADD1B2" rx="11" ry="11" style="stroke:#181818;stroke-width:1.0;"/>
            <path d="M2563.2656,141.875 Q2563.4219,141.6563 2563.6094,141.5469 Q2563.7969,141.4375 2564.0156,141.4375 Q2564.3906,141.4375 2564.625,141.7031 Q2564.8594,141.9531 2564.8594,142.5625 L2564.8594,144.0156 Q2564.8594,144.625 2564.625,144.8906 Q2564.3906,145.1563 2564.0156,145.1563 Q2563.6719,145.1563 2563.4688,144.9531 Q2563.2656,144.7656 2563.1563,144.25 Q2563.1094,143.8906 2562.9219,143.7031 Q2562.5938,143.3281 2561.9844,143.1094 Q2561.375,142.8906 2560.75,142.8906 Q2559.9844,142.8906 2559.3438,143.2188 Q2558.7188,143.5469 2558.2188,144.2969 Q2557.7344,145.0469 2557.7344,146.0781 L2557.7344,147.1719 Q2557.7344,148.4063 2558.625,149.2344 Q2559.5156,150.0469 2561.1094,150.0469 Q2562.0469,150.0469 2562.7031,149.7969 Q2563.0938,149.6406 2563.5156,149.2031 Q2563.7813,148.9375 2563.9219,148.8594 Q2564.0781,148.7813 2564.2813,148.7813 Q2564.6094,148.7813 2564.8594,149.0469 Q2565.125,149.2969 2565.125,149.6406 Q2565.125,149.9844 2564.7813,150.3906 Q2564.2813,150.9688 2563.4844,151.2969 Q2562.4063,151.75 2561.1094,151.75 Q2559.5938,151.75 2558.3906,151.125 Q2557.4063,150.625 2556.7188,149.5625 Q2556.0313,148.4844 2556.0313,147.2031 L2556.0313,146.0469 Q2556.0313,144.7188 2556.6406,143.5781 Q2557.2656,142.4219 2558.3594,141.8125 Q2559.4531,141.1875 2560.6875,141.1875 Q2561.4219,141.1875 2562.0625,141.3594 Q2562.7188,141.5156 2563.2656,141.875 Z " fill="#000000"/>
            <text fill="#000000" font-family="sans-serif" font-size="14" lengthAdjust="spacing" textLength="169" x="2574.5" y="151.7285">ScheduledExecutorService</text>
            <line style="stroke:#181818;stroke-width:0.5;" x1="2546.5" x2="2745.5" y1="162" y2="162"/>
            <line style="stroke:#181818;stroke-width:0.5;" x1="2546.5" x2="2745.5" y1="170" y2="170"/>
        </g>
        <!--class TimeUnit-->
        <g id="elem_TimeUnit">
            <rect codeLine="16" fill="#F1F1F1" height="48" id="TimeUnit" rx="2.5" ry="2.5" style="stroke:#181818;stroke-width:0.5;" width="87" x="2419.5" y="254"/>
            <ellipse cx="2434.5" cy="270" fill="#ADD1B2" rx="11" ry="11" style="stroke:#181818;stroke-width:1.0;"/>
            <path d="M2437.2656,265.875 Q2437.4219,265.6563 2437.6094,265.5469 Q2437.7969,265.4375 2438.0156,265.4375 Q2438.3906,265.4375 2438.625,265.7031 Q2438.8594,265.9531 2438.8594,266.5625 L2438.8594,268.0156 Q2438.8594,268.625 2438.625,268.8906 Q2438.3906,269.1563 2438.0156,269.1563 Q2437.6719,269.1563 2437.4688,268.9531 Q2437.2656,268.7656 2437.1563,268.25 Q2437.1094,267.8906 2436.9219,267.7031 Q2436.5938,267.3281 2435.9844,267.1094 Q2435.375,266.8906 2434.75,266.8906 Q2433.9844,266.8906 2433.3438,267.2188 Q2432.7188,267.5469 2432.2188,268.2969 Q2431.7344,269.0469 2431.7344,270.0781 L2431.7344,271.1719 Q2431.7344,272.4063 2432.625,273.2344 Q2433.5156,274.0469 2435.1094,274.0469 Q2436.0469,274.0469 2436.7031,273.7969 Q2437.0938,273.6406 2437.5156,273.2031 Q2437.7813,272.9375 2437.9219,272.8594 Q2438.0781,272.7813 2438.2813,272.7813 Q2438.6094,272.7813 2438.8594,273.0469 Q2439.125,273.2969 2439.125,273.6406 Q2439.125,273.9844 2438.7813,274.3906 Q2438.2813,274.9688 2437.4844,275.2969 Q2436.4063,275.75 2435.1094,275.75 Q2433.5938,275.75 2432.3906,275.125 Q2431.4063,274.625 2430.7188,273.5625 Q2430.0313,272.4844 2430.0313,271.2031 L2430.0313,270.0469 Q2430.0313,268.7188 2430.6406,267.5781 Q2431.2656,266.4219 2432.3594,265.8125 Q2433.4531,265.1875 2434.6875,265.1875 Q2435.4219,265.1875 2436.0625,265.3594 Q2436.7188,265.5156 2437.2656,265.875 Z " fill="#000000"/>
            <text fill="#000000" font-family="sans-serif" font-size="14" lengthAdjust="spacing" textLength="55" x="2448.5" y="275.7285">TimeUnit</text>
            <line style="stroke:#181818;stroke-width:0.5;" x1="2420.5" x2="2505.5" y1="286" y2="286"/>
            <line style="stroke:#181818;stroke-width:0.5;" x1="2420.5" x2="2505.5" y1="294" y2="294"/>
        </g>
        <!--link HomeController to Controller-->
        <g id="link_HomeController_Controller">
            <path codeLine="40" d="M858,178.23 C858,199.94 858,214.17 858,235.85 " fill="none" id="HomeController-to-Controller" style="stroke:#181818;stroke-width:1.0;"/>
            <polygon fill="none" points="858,253.85,864,235.85,852,235.85,858,253.85" style="stroke:#181818;stroke-width:1.0;"/>
        </g>
        <!--link HomeController to TradingServiceSubscriber-->
        <g id="link_HomeController_TradingServiceSubscriber">
            <path codeLine="41" d="M890.33,178 C905.07,187.22 923.18,196.86 941,202 C1014.1,223.1 1038.27,191.22 1112,210 C1148.13,219.2 1170.4199,229.4002 1197.3299,244.8902 " fill="none" id="HomeController-to-TradingServiceSubscriber" style="stroke:#181818;stroke-width:1.0;"/>
            <polygon fill="none" points="1212.93,253.87,1200.3231,239.6902,1194.3366,250.0903,1212.93,253.87" style="stroke:#181818;stroke-width:1.0;"/>
        </g>
        <!--link MarketController to Controller-->
        <g id="link_MarketController_Controller">
            <path codeLine="42" d="M994.81,178.23 C964.74,199.94 934.6941,221.6338 904.6641,243.3138 " fill="none" id="MarketController-to-Controller" style="stroke:#181818;stroke-width:1.0;"/>
            <polygon fill="none" points="890.07,253.85,908.1762,248.1785,901.1521,238.4491,890.07,253.85" style="stroke:#181818;stroke-width:1.0;"/>
        </g>
        <!--link MarketController to ExchangeServiceSubscriber-->
        <g id="link_MarketController_ExchangeServiceSubscriber">
            <path codeLine="43" d="M1095.68,159.3 C1165.17,165.24 1274.92,178.97 1365,210 C1396.19,220.74 1413.5328,229.5452 1437.1828,244.3152 " fill="none" id="MarketController-to-ExchangeServiceSubscriber" style="stroke:#181818;stroke-width:1.0;"/>
            <polygon fill="none" points="1452.45,253.85,1440.361,239.2262,1434.0045,249.4043,1452.45,253.85" style="stroke:#181818;stroke-width:1.0;"/>
        </g>
        <!--link RootController to Controller-->
        <g id="link_RootController_Controller">
            <path codeLine="44" d="M726.85,178.23 C755.68,199.94 784.091,221.3421 812.881,243.0221 " fill="none" id="RootController-to-Controller" style="stroke:#181818;stroke-width:1.0;"/>
            <polygon fill="none" points="827.26,253.85,816.4903,238.2291,809.2717,247.8151,827.26,253.85" style="stroke:#181818;stroke-width:1.0;"/>
        </g>
        <!--SRC=[hLHHRi8m3FtVARZ0SeH932OnQGXfi4tQd-iQ6fOcLUoo8Utm2tIWGak8flrKIjwp- -nd1p8M3oW3DC0yS7wbCkS4eQpKHjCdgzVmlMdGDMn06R0hzV25L8bsjesK88MwrwineIx1TA1dLzjSszNKvTG6HPUadXo26OFG8fmwwBkpD5ikcQGDrQAD6deFsoVDNMG2N4oXwjm_sggMgUOW2elUIlQqtfnz-MRPcb2uSpz7i9PyvnwTnTfxiXBwI5YBynmZpR6Wl3QK7zXpyXkD58lPTV75waC19xwE_BOI5melWfKqhAe-KZ1BZjfFaF0NySuOygmchgJHyNoDFGN_GPBEVmwNSNOPHidmRqMZVUsuJIQUUzyNqMYU-JmgOE71SbYZUAuNZYPvWr1chsFS6CvgY1YMI4u788KQBVKOSvY9bFoXvDqoHwZD-x4RaTORqiDeMXpdx4PXpo1RbxtTsrkqs5PqcT9oQTXufMqOyYKWNHx2rW1UO3SAptethpD6hxDhOQTjR4KbxjpWzlRxBadztnF-LUdvll-3reIKr-n8V6wInVu0]-->
    </g>
</svg>
