<?xml version="1.0" encoding="UTF-8"?><svg xmlns="http://www.w3.org/2000/svg" xmlns:xlink="http://www.w3.org/1999/xlink" contentStyleType="text/css" height="465px" preserveAspectRatio="none" style="width:2047px;height:465px;background:#FFFFFF;" version="1.1" viewBox="0 0 2047 465" width="2047px" zoomAndPan="magnify">
    <defs/>
    <g>
        <!--cluster java-->
        <g id="cluster_java">
            <path d="M8.5,50 L38.5,50 A3.75,3.75 0 0 1 41,52.5 L48,73.6094 L1179.5,73.6094 A2.5,2.5 0 0 1 1182,76.1094 L1182,323.5 A2.5,2.5 0 0 1 1179.5,326 L8.5,326 A2.5,2.5 0 0 1 6,323.5 L6,52.5 A2.5,2.5 0 0 1 8.5,50 " fill="none" style="stroke:#000000;stroke-width:1.5;"/>
            <line style="stroke:#000000;stroke-width:1.5;" x1="6" x2="48" y1="73.6094" y2="73.6094"/>
            <text fill="#000000" font-family="sans-serif" font-size="14" font-weight="bold" lengthAdjust="spacing" textLength="29" x="10" y="66.5332">java</text>
        </g>
        <!--cluster lang-->
        <g id="cluster_lang">
            <path d="M713.5,94 L744.5,94 A3.75,3.75 0 0 1 747,96.5 L754,117.6094 L834.5,117.6094 A2.5,2.5 0 0 1 837,120.1094 L837,191.5 A2.5,2.5 0 0 1 834.5,194 L713.5,194 A2.5,2.5 0 0 1 711,191.5 L711,96.5 A2.5,2.5 0 0 1 713.5,94 " fill="none" style="stroke:#000000;stroke-width:1.5;"/>
            <line style="stroke:#000000;stroke-width:1.5;" x1="711" x2="754" y1="117.6094" y2="117.6094"/>
            <text fill="#000000" font-family="sans-serif" font-size="14" font-weight="bold" lengthAdjust="spacing" textLength="30" x="715" y="110.5332">lang</text>
        </g>
        <!--cluster math-->
        <g id="cluster_math">
            <path d="M863.5,94 L898.5,94 A3.75,3.75 0 0 1 901,96.5 L908,117.6094 L1155.5,117.6094 A2.5,2.5 0 0 1 1158,120.1094 L1158,191.5 A2.5,2.5 0 0 1 1155.5,194 L863.5,194 A2.5,2.5 0 0 1 861,191.5 L861,96.5 A2.5,2.5 0 0 1 863.5,94 " fill="none" style="stroke:#000000;stroke-width:1.5;"/>
            <line style="stroke:#000000;stroke-width:1.5;" x1="861" x2="908" y1="117.6094" y2="117.6094"/>
            <text fill="#000000" font-family="sans-serif" font-size="14" font-weight="bold" lengthAdjust="spacing" textLength="34" x="865" y="110.5332">math</text>
        </g>
        <!--cluster time-->
        <g id="cluster_time">
            <path d="M392.5,94 L423.5,94 A3.75,3.75 0 0 1 426,96.5 L433,117.6094 L684.5,117.6094 A2.5,2.5 0 0 1 687,120.1094 L687,191.5 A2.5,2.5 0 0 1 684.5,194 L392.5,194 A2.5,2.5 0 0 1 390,191.5 L390,96.5 A2.5,2.5 0 0 1 392.5,94 " fill="none" style="stroke:#000000;stroke-width:1.5;"/>
            <line style="stroke:#000000;stroke-width:1.5;" x1="390" x2="433" y1="117.6094" y2="117.6094"/>
            <text fill="#000000" font-family="sans-serif" font-size="14" font-weight="bold" lengthAdjust="spacing" textLength="30" x="394" y="110.5332">time</text>
        </g>
        <!--cluster util-->
        <g id="cluster_util">
            <path d="M32.5,94 L55.5,94 A3.75,3.75 0 0 1 58,96.5 L65,117.6094 L363.5,117.6094 A2.5,2.5 0 0 1 366,120.1094 L366,299.5 A2.5,2.5 0 0 1 363.5,302 L32.5,302 A2.5,2.5 0 0 1 30,299.5 L30,96.5 A2.5,2.5 0 0 1 32.5,94 " fill="none" style="stroke:#000000;stroke-width:1.5;"/>
            <line style="stroke:#000000;stroke-width:1.5;" x1="30" x2="65" y1="117.6094" y2="117.6094"/>
            <text fill="#000000" font-family="sans-serif" font-size="14" font-weight="bold" lengthAdjust="spacing" textLength="22" x="34" y="110.5332">util</text>
        </g>
        <!--cluster org-->
        <g id="cluster_org">
            <path d="M1208.5,6 L1233.5,6 A3.75,3.75 0 0 1 1236,8.5 L1243,29.6094 L2037.5,29.6094 A2.5,2.5 0 0 1 2040,32.1094 L2040,455.5 A2.5,2.5 0 0 1 2037.5,458 L1208.5,458 A2.5,2.5 0 0 1 1206,455.5 L1206,8.5 A2.5,2.5 0 0 1 1208.5,6 " fill="none" style="stroke:#000000;stroke-width:1.5;"/>
            <line style="stroke:#000000;stroke-width:1.5;" x1="1206" x2="1243" y1="29.6094" y2="29.6094"/>
            <text fill="#000000" font-family="sans-serif" font-size="14" font-weight="bold" lengthAdjust="spacing" textLength="24" x="1210" y="22.5332">org</text>
        </g>
        <!--cluster bootcamp-->
        <g id="cluster_bootcamp">
            <path d="M1232.5,50 L1302.5,50 A3.75,3.75 0 0 1 1305,52.5 L1312,73.6094 L2013.5,73.6094 A2.5,2.5 0 0 1 2016,76.1094 L2016,431.5 A2.5,2.5 0 0 1 2013.5,434 L1232.5,434 A2.5,2.5 0 0 1 1230,431.5 L1230,52.5 A2.5,2.5 0 0 1 1232.5,50 " fill="none" style="stroke:#000000;stroke-width:1.5;"/>
            <line style="stroke:#000000;stroke-width:1.5;" x1="1230" x2="1312" y1="73.6094" y2="73.6094"/>
            <text fill="#000000" font-family="sans-serif" font-size="14" font-weight="bold" lengthAdjust="spacing" textLength="69" x="1234" y="66.5332">bootcamp</text>
        </g>
        <!--cluster models-->
        <g id="cluster_models">
            <path d="M1454.5,94 L1506.5,94 A3.75,3.75 0 0 1 1509,96.5 L1516,117.6094 L1989.5,117.6094 A2.5,2.5 0 0 1 1992,120.1094 L1992,407.5 A2.5,2.5 0 0 1 1989.5,410 L1454.5,410 A2.5,2.5 0 0 1 1452,407.5 L1452,96.5 A2.5,2.5 0 0 1 1454.5,94 " fill="none" style="stroke:#000000;stroke-width:1.5;"/>
            <line style="stroke:#000000;stroke-width:1.5;" x1="1452" x2="1516" y1="117.6094" y2="117.6094"/>
            <text fill="#000000" font-family="sans-serif" font-size="14" font-weight="bold" lengthAdjust="spacing" textLength="51" x="1456" y="110.5332">models</text>
        </g>
        <!--cluster services-->
        <g id="cluster_services">
            <path d="M1256.5,94 L1318.5,94 A3.75,3.75 0 0 1 1321,96.5 L1328,117.6094 L1425.5,117.6094 A2.5,2.5 0 0 1 1428,120.1094 L1428,191.5 A2.5,2.5 0 0 1 1425.5,194 L1256.5,194 A2.5,2.5 0 0 1 1254,191.5 L1254,96.5 A2.5,2.5 0 0 1 1256.5,94 " fill="none" style="stroke:#000000;stroke-width:1.5;"/>
            <line style="stroke:#000000;stroke-width:1.5;" x1="1254" x2="1328" y1="117.6094" y2="117.6094"/>
            <text fill="#000000" font-family="sans-serif" font-size="14" font-weight="bold" lengthAdjust="spacing" textLength="61" x="1258" y="110.5332">services</text>
        </g>
        <!--class Exception-->
        <g id="elem_Exception">
            <rect codeLine="1" fill="#F1F1F1" height="48" id="Exception" rx="2.5" ry="2.5" style="stroke:#181818;stroke-width:0.5;" width="93" x="727.5" y="130"/>
            <ellipse cx="742.5" cy="146" fill="#ADD1B2" rx="11" ry="11" style="stroke:#181818;stroke-width:1.0;"/>
            <path d="M745.2656,141.875 Q745.4219,141.6563 745.6094,141.5469 Q745.7969,141.4375 746.0156,141.4375 Q746.3906,141.4375 746.625,141.7031 Q746.8594,141.9531 746.8594,142.5625 L746.8594,144.0156 Q746.8594,144.625 746.625,144.8906 Q746.3906,145.1563 746.0156,145.1563 Q745.6719,145.1563 745.4688,144.9531 Q745.2656,144.7656 745.1563,144.25 Q745.1094,143.8906 744.9219,143.7031 Q744.5938,143.3281 743.9844,143.1094 Q743.375,142.8906 742.75,142.8906 Q741.9844,142.8906 741.3438,143.2188 Q740.7188,143.5469 740.2188,144.2969 Q739.7344,145.0469 739.7344,146.0781 L739.7344,147.1719 Q739.7344,148.4063 740.625,149.2344 Q741.5156,150.0469 743.1094,150.0469 Q744.0469,150.0469 744.7031,149.7969 Q745.0938,149.6406 745.5156,149.2031 Q745.7813,148.9375 745.9219,148.8594 Q746.0781,148.7813 746.2813,148.7813 Q746.6094,148.7813 746.8594,149.0469 Q747.125,149.2969 747.125,149.6406 Q747.125,149.9844 746.7813,150.3906 Q746.2813,150.9688 745.4844,151.2969 Q744.4063,151.75 743.1094,151.75 Q741.5938,151.75 740.3906,151.125 Q739.4063,150.625 738.7188,149.5625 Q738.0313,148.4844 738.0313,147.2031 L738.0313,146.0469 Q738.0313,144.7188 738.6406,143.5781 Q739.2656,142.4219 740.3594,141.8125 Q741.4531,141.1875 742.6875,141.1875 Q743.4219,141.1875 744.0625,141.3594 Q744.7188,141.5156 745.2656,141.875 Z " fill="#000000"/>
            <text fill="#000000" font-family="sans-serif" font-size="14" lengthAdjust="spacing" textLength="61" x="756.5" y="151.7285">Exception</text>
            <line style="stroke:#181818;stroke-width:0.5;" x1="728.5" x2="819.5" y1="162" y2="162"/>
            <line style="stroke:#181818;stroke-width:0.5;" x1="728.5" x2="819.5" y1="170" y2="170"/>
        </g>
        <!--class BigDecimal-->
        <g id="elem_BigDecimal">
            <rect codeLine="2" fill="#F1F1F1" height="48" id="BigDecimal" rx="2.5" ry="2.5" style="stroke:#181818;stroke-width:0.5;" width="102" x="1040" y="130"/>
            <ellipse cx="1055" cy="146" fill="#ADD1B2" rx="11" ry="11" style="stroke:#181818;stroke-width:1.0;"/>
            <path d="M1057.7656,141.875 Q1057.9219,141.6563 1058.1094,141.5469 Q1058.2969,141.4375 1058.5156,141.4375 Q1058.8906,141.4375 1059.125,141.7031 Q1059.3594,141.9531 1059.3594,142.5625 L1059.3594,144.0156 Q1059.3594,144.625 1059.125,144.8906 Q1058.8906,145.1563 1058.5156,145.1563 Q1058.1719,145.1563 1057.9688,144.9531 Q1057.7656,144.7656 1057.6563,144.25 Q1057.6094,143.8906 1057.4219,143.7031 Q1057.0938,143.3281 1056.4844,143.1094 Q1055.875,142.8906 1055.25,142.8906 Q1054.4844,142.8906 1053.8438,143.2188 Q1053.2188,143.5469 1052.7188,144.2969 Q1052.2344,145.0469 1052.2344,146.0781 L1052.2344,147.1719 Q1052.2344,148.4063 1053.125,149.2344 Q1054.0156,150.0469 1055.6094,150.0469 Q1056.5469,150.0469 1057.2031,149.7969 Q1057.5938,149.6406 1058.0156,149.2031 Q1058.2813,148.9375 1058.4219,148.8594 Q1058.5781,148.7813 1058.7813,148.7813 Q1059.1094,148.7813 1059.3594,149.0469 Q1059.625,149.2969 1059.625,149.6406 Q1059.625,149.9844 1059.2813,150.3906 Q1058.7813,150.9688 1057.9844,151.2969 Q1056.9063,151.75 1055.6094,151.75 Q1054.0938,151.75 1052.8906,151.125 Q1051.9063,150.625 1051.2188,149.5625 Q1050.5313,148.4844 1050.5313,147.2031 L1050.5313,146.0469 Q1050.5313,144.7188 1051.1406,143.5781 Q1051.7656,142.4219 1052.8594,141.8125 Q1053.9531,141.1875 1055.1875,141.1875 Q1055.9219,141.1875 1056.5625,141.3594 Q1057.2188,141.5156 1057.7656,141.875 Z " fill="#000000"/>
            <text fill="#000000" font-family="sans-serif" font-size="14" lengthAdjust="spacing" textLength="70" x="1069" y="151.7285">BigDecimal</text>
            <line style="stroke:#181818;stroke-width:0.5;" x1="1041" x2="1141" y1="162" y2="162"/>
            <line style="stroke:#181818;stroke-width:0.5;" x1="1041" x2="1141" y1="170" y2="170"/>
        </g>
        <!--class RoundingMode-->
        <g id="elem_RoundingMode">
            <rect codeLine="3" fill="#F1F1F1" height="48" id="RoundingMode" rx="2.5" ry="2.5" style="stroke:#181818;stroke-width:0.5;" width="128" x="877" y="130"/>
            <ellipse cx="892" cy="146" fill="#ADD1B2" rx="11" ry="11" style="stroke:#181818;stroke-width:1.0;"/>
            <path d="M894.7656,141.875 Q894.9219,141.6563 895.1094,141.5469 Q895.2969,141.4375 895.5156,141.4375 Q895.8906,141.4375 896.125,141.7031 Q896.3594,141.9531 896.3594,142.5625 L896.3594,144.0156 Q896.3594,144.625 896.125,144.8906 Q895.8906,145.1563 895.5156,145.1563 Q895.1719,145.1563 894.9688,144.9531 Q894.7656,144.7656 894.6563,144.25 Q894.6094,143.8906 894.4219,143.7031 Q894.0938,143.3281 893.4844,143.1094 Q892.875,142.8906 892.25,142.8906 Q891.4844,142.8906 890.8438,143.2188 Q890.2188,143.5469 889.7188,144.2969 Q889.2344,145.0469 889.2344,146.0781 L889.2344,147.1719 Q889.2344,148.4063 890.125,149.2344 Q891.0156,150.0469 892.6094,150.0469 Q893.5469,150.0469 894.2031,149.7969 Q894.5938,149.6406 895.0156,149.2031 Q895.2813,148.9375 895.4219,148.8594 Q895.5781,148.7813 895.7813,148.7813 Q896.1094,148.7813 896.3594,149.0469 Q896.625,149.2969 896.625,149.6406 Q896.625,149.9844 896.2813,150.3906 Q895.7813,150.9688 894.9844,151.2969 Q893.9063,151.75 892.6094,151.75 Q891.0938,151.75 889.8906,151.125 Q888.9063,150.625 888.2188,149.5625 Q887.5313,148.4844 887.5313,147.2031 L887.5313,146.0469 Q887.5313,144.7188 888.1406,143.5781 Q888.7656,142.4219 889.8594,141.8125 Q890.9531,141.1875 892.1875,141.1875 Q892.9219,141.1875 893.5625,141.3594 Q894.2188,141.5156 894.7656,141.875 Z " fill="#000000"/>
            <text fill="#000000" font-family="sans-serif" font-size="14" lengthAdjust="spacing" textLength="96" x="906" y="151.7285">RoundingMode</text>
            <line style="stroke:#181818;stroke-width:0.5;" x1="878" x2="1004" y1="162" y2="162"/>
            <line style="stroke:#181818;stroke-width:0.5;" x1="878" x2="1004" y1="170" y2="170"/>
        </g>
        <!--class LocalDateTime-->
        <g id="elem_LocalDateTime">
            <rect codeLine="4" fill="#F1F1F1" height="48" id="LocalDateTime" rx="2.5" ry="2.5" style="stroke:#181818;stroke-width:0.5;" width="127" x="543.5" y="130"/>
            <ellipse cx="558.5" cy="146" fill="#ADD1B2" rx="11" ry="11" style="stroke:#181818;stroke-width:1.0;"/>
            <path d="M561.2656,141.875 Q561.4219,141.6563 561.6094,141.5469 Q561.7969,141.4375 562.0156,141.4375 Q562.3906,141.4375 562.625,141.7031 Q562.8594,141.9531 562.8594,142.5625 L562.8594,144.0156 Q562.8594,144.625 562.625,144.8906 Q562.3906,145.1563 562.0156,145.1563 Q561.6719,145.1563 561.4688,144.9531 Q561.2656,144.7656 561.1563,144.25 Q561.1094,143.8906 560.9219,143.7031 Q560.5938,143.3281 559.9844,143.1094 Q559.375,142.8906 558.75,142.8906 Q557.9844,142.8906 557.3438,143.2188 Q556.7188,143.5469 556.2188,144.2969 Q555.7344,145.0469 555.7344,146.0781 L555.7344,147.1719 Q555.7344,148.4063 556.625,149.2344 Q557.5156,150.0469 559.1094,150.0469 Q560.0469,150.0469 560.7031,149.7969 Q561.0938,149.6406 561.5156,149.2031 Q561.7813,148.9375 561.9219,148.8594 Q562.0781,148.7813 562.2813,148.7813 Q562.6094,148.7813 562.8594,149.0469 Q563.125,149.2969 563.125,149.6406 Q563.125,149.9844 562.7813,150.3906 Q562.2813,150.9688 561.4844,151.2969 Q560.4063,151.75 559.1094,151.75 Q557.5938,151.75 556.3906,151.125 Q555.4063,150.625 554.7188,149.5625 Q554.0313,148.4844 554.0313,147.2031 L554.0313,146.0469 Q554.0313,144.7188 554.6406,143.5781 Q555.2656,142.4219 556.3594,141.8125 Q557.4531,141.1875 558.6875,141.1875 Q559.4219,141.1875 560.0625,141.3594 Q560.7188,141.5156 561.2656,141.875 Z " fill="#000000"/>
            <text fill="#000000" font-family="sans-serif" font-size="14" lengthAdjust="spacing" textLength="95" x="572.5" y="151.7285">LocalDateTime</text>
            <line style="stroke:#181818;stroke-width:0.5;" x1="544.5" x2="669.5" y1="162" y2="162"/>
            <line style="stroke:#181818;stroke-width:0.5;" x1="544.5" x2="669.5" y1="170" y2="170"/>
        </g>
        <!--class ZoneOffset-->
        <g id="elem_ZoneOffset">
            <rect codeLine="5" fill="#F1F1F1" height="48" id="ZoneOffset" rx="2.5" ry="2.5" style="stroke:#181818;stroke-width:0.5;" width="102" x="406" y="130"/>
            <ellipse cx="421" cy="146" fill="#ADD1B2" rx="11" ry="11" style="stroke:#181818;stroke-width:1.0;"/>
            <path d="M423.7656,141.875 Q423.9219,141.6563 424.1094,141.5469 Q424.2969,141.4375 424.5156,141.4375 Q424.8906,141.4375 425.125,141.7031 Q425.3594,141.9531 425.3594,142.5625 L425.3594,144.0156 Q425.3594,144.625 425.125,144.8906 Q424.8906,145.1563 424.5156,145.1563 Q424.1719,145.1563 423.9688,144.9531 Q423.7656,144.7656 423.6563,144.25 Q423.6094,143.8906 423.4219,143.7031 Q423.0938,143.3281 422.4844,143.1094 Q421.875,142.8906 421.25,142.8906 Q420.4844,142.8906 419.8438,143.2188 Q419.2188,143.5469 418.7188,144.2969 Q418.2344,145.0469 418.2344,146.0781 L418.2344,147.1719 Q418.2344,148.4063 419.125,149.2344 Q420.0156,150.0469 421.6094,150.0469 Q422.5469,150.0469 423.2031,149.7969 Q423.5938,149.6406 424.0156,149.2031 Q424.2813,148.9375 424.4219,148.8594 Q424.5781,148.7813 424.7813,148.7813 Q425.1094,148.7813 425.3594,149.0469 Q425.625,149.2969 425.625,149.6406 Q425.625,149.9844 425.2813,150.3906 Q424.7813,150.9688 423.9844,151.2969 Q422.9063,151.75 421.6094,151.75 Q420.0938,151.75 418.8906,151.125 Q417.9063,150.625 417.2188,149.5625 Q416.5313,148.4844 416.5313,147.2031 L416.5313,146.0469 Q416.5313,144.7188 417.1406,143.5781 Q417.7656,142.4219 418.8594,141.8125 Q419.9531,141.1875 421.1875,141.1875 Q421.9219,141.1875 422.5625,141.3594 Q423.2188,141.5156 423.7656,141.875 Z " fill="#000000"/>
            <text fill="#000000" font-family="sans-serif" font-size="14" lengthAdjust="spacing" textLength="70" x="435" y="151.7285">ZoneOffset</text>
            <line style="stroke:#181818;stroke-width:0.5;" x1="407" x2="507" y1="162" y2="162"/>
            <line style="stroke:#181818;stroke-width:0.5;" x1="407" x2="507" y1="170" y2="170"/>
        </g>
        <!--class ArrayList-->
        <g id="elem_ArrayList">
            <rect codeLine="6" fill="#F1F1F1" height="48" id="ArrayList" rx="2.5" ry="2.5" style="stroke:#181818;stroke-width:0.5;" width="88" x="46" y="130"/>
            <ellipse cx="61" cy="146" fill="#ADD1B2" rx="11" ry="11" style="stroke:#181818;stroke-width:1.0;"/>
            <path d="M63.7656,141.875 Q63.9219,141.6563 64.1094,141.5469 Q64.2969,141.4375 64.5156,141.4375 Q64.8906,141.4375 65.125,141.7031 Q65.3594,141.9531 65.3594,142.5625 L65.3594,144.0156 Q65.3594,144.625 65.125,144.8906 Q64.8906,145.1563 64.5156,145.1563 Q64.1719,145.1563 63.9688,144.9531 Q63.7656,144.7656 63.6563,144.25 Q63.6094,143.8906 63.4219,143.7031 Q63.0938,143.3281 62.4844,143.1094 Q61.875,142.8906 61.25,142.8906 Q60.4844,142.8906 59.8438,143.2188 Q59.2188,143.5469 58.7188,144.2969 Q58.2344,145.0469 58.2344,146.0781 L58.2344,147.1719 Q58.2344,148.4063 59.125,149.2344 Q60.0156,150.0469 61.6094,150.0469 Q62.5469,150.0469 63.2031,149.7969 Q63.5938,149.6406 64.0156,149.2031 Q64.2813,148.9375 64.4219,148.8594 Q64.5781,148.7813 64.7813,148.7813 Q65.1094,148.7813 65.3594,149.0469 Q65.625,149.2969 65.625,149.6406 Q65.625,149.9844 65.2813,150.3906 Q64.7813,150.9688 63.9844,151.2969 Q62.9063,151.75 61.6094,151.75 Q60.0938,151.75 58.8906,151.125 Q57.9063,150.625 57.2188,149.5625 Q56.5313,148.4844 56.5313,147.2031 L56.5313,146.0469 Q56.5313,144.7188 57.1406,143.5781 Q57.7656,142.4219 58.8594,141.8125 Q59.9531,141.1875 61.1875,141.1875 Q61.9219,141.1875 62.5625,141.3594 Q63.2188,141.5156 63.7656,141.875 Z " fill="#000000"/>
            <text fill="#000000" font-family="sans-serif" font-size="14" lengthAdjust="spacing" textLength="56" x="75" y="151.7285">ArrayList</text>
            <line style="stroke:#181818;stroke-width:0.5;" x1="47" x2="133" y1="162" y2="162"/>
            <line style="stroke:#181818;stroke-width:0.5;" x1="47" x2="133" y1="170" y2="170"/>
        </g>
        <!--class HashMap-->
        <g id="elem_HashMap">
            <rect codeLine="7" fill="#F1F1F1" height="48" id="HashMap" rx="2.5" ry="2.5" style="stroke:#181818;stroke-width:0.5;" width="91" x="169.5" y="130"/>
            <ellipse cx="184.5" cy="146" fill="#ADD1B2" rx="11" ry="11" style="stroke:#181818;stroke-width:1.0;"/>
            <path d="M187.2656,141.875 Q187.4219,141.6563 187.6094,141.5469 Q187.7969,141.4375 188.0156,141.4375 Q188.3906,141.4375 188.625,141.7031 Q188.8594,141.9531 188.8594,142.5625 L188.8594,144.0156 Q188.8594,144.625 188.625,144.8906 Q188.3906,145.1563 188.0156,145.1563 Q187.6719,145.1563 187.4688,144.9531 Q187.2656,144.7656 187.1563,144.25 Q187.1094,143.8906 186.9219,143.7031 Q186.5938,143.3281 185.9844,143.1094 Q185.375,142.8906 184.75,142.8906 Q183.9844,142.8906 183.3438,143.2188 Q182.7188,143.5469 182.2188,144.2969 Q181.7344,145.0469 181.7344,146.0781 L181.7344,147.1719 Q181.7344,148.4063 182.625,149.2344 Q183.5156,150.0469 185.1094,150.0469 Q186.0469,150.0469 186.7031,149.7969 Q187.0938,149.6406 187.5156,149.2031 Q187.7813,148.9375 187.9219,148.8594 Q188.0781,148.7813 188.2813,148.7813 Q188.6094,148.7813 188.8594,149.0469 Q189.125,149.2969 189.125,149.6406 Q189.125,149.9844 188.7813,150.3906 Q188.2813,150.9688 187.4844,151.2969 Q186.4063,151.75 185.1094,151.75 Q183.5938,151.75 182.3906,151.125 Q181.4063,150.625 180.7188,149.5625 Q180.0313,148.4844 180.0313,147.2031 L180.0313,146.0469 Q180.0313,144.7188 180.6406,143.5781 Q181.2656,142.4219 182.3594,141.8125 Q183.4531,141.1875 184.6875,141.1875 Q185.4219,141.1875 186.0625,141.3594 Q186.7188,141.5156 187.2656,141.875 Z " fill="#000000"/>
            <text fill="#000000" font-family="sans-serif" font-size="14" lengthAdjust="spacing" textLength="59" x="198.5" y="151.7285">HashMap</text>
            <line style="stroke:#181818;stroke-width:0.5;" x1="170.5" x2="259.5" y1="162" y2="162"/>
            <line style="stroke:#181818;stroke-width:0.5;" x1="170.5" x2="259.5" y1="170" y2="170"/>
        </g>
        <!--class List-->
        <g id="elem_List">
            <rect codeLine="8" fill="#F1F1F1" height="48" id="List" rx="2.5" ry="2.5" style="stroke:#181818;stroke-width:0.5;" width="54" x="296" y="130"/>
            <ellipse cx="311" cy="146" fill="#ADD1B2" rx="11" ry="11" style="stroke:#181818;stroke-width:1.0;"/>
            <path d="M313.7656,141.875 Q313.9219,141.6563 314.1094,141.5469 Q314.2969,141.4375 314.5156,141.4375 Q314.8906,141.4375 315.125,141.7031 Q315.3594,141.9531 315.3594,142.5625 L315.3594,144.0156 Q315.3594,144.625 315.125,144.8906 Q314.8906,145.1563 314.5156,145.1563 Q314.1719,145.1563 313.9688,144.9531 Q313.7656,144.7656 313.6563,144.25 Q313.6094,143.8906 313.4219,143.7031 Q313.0938,143.3281 312.4844,143.1094 Q311.875,142.8906 311.25,142.8906 Q310.4844,142.8906 309.8438,143.2188 Q309.2188,143.5469 308.7188,144.2969 Q308.2344,145.0469 308.2344,146.0781 L308.2344,147.1719 Q308.2344,148.4063 309.125,149.2344 Q310.0156,150.0469 311.6094,150.0469 Q312.5469,150.0469 313.2031,149.7969 Q313.5938,149.6406 314.0156,149.2031 Q314.2813,148.9375 314.4219,148.8594 Q314.5781,148.7813 314.7813,148.7813 Q315.1094,148.7813 315.3594,149.0469 Q315.625,149.2969 315.625,149.6406 Q315.625,149.9844 315.2813,150.3906 Q314.7813,150.9688 313.9844,151.2969 Q312.9063,151.75 311.6094,151.75 Q310.0938,151.75 308.8906,151.125 Q307.9063,150.625 307.2188,149.5625 Q306.5313,148.4844 306.5313,147.2031 L306.5313,146.0469 Q306.5313,144.7188 307.1406,143.5781 Q307.7656,142.4219 308.8594,141.8125 Q309.9531,141.1875 311.1875,141.1875 Q311.9219,141.1875 312.5625,141.3594 Q313.2188,141.5156 313.7656,141.875 Z " fill="#000000"/>
            <text fill="#000000" font-family="sans-serif" font-size="14" lengthAdjust="spacing" textLength="22" x="325" y="151.7285">List</text>
            <line style="stroke:#181818;stroke-width:0.5;" x1="297" x2="349" y1="162" y2="162"/>
            <line style="stroke:#181818;stroke-width:0.5;" x1="297" x2="349" y1="170" y2="170"/>
        </g>
        <!--class Map-->
        <g id="elem_Map">
            <rect codeLine="9" fill="#F1F1F1" height="48" id="Map" rx="2.5" ry="2.5" style="stroke:#181818;stroke-width:0.5;" width="59" x="60.5" y="238"/>
            <ellipse cx="75.5" cy="254" fill="#ADD1B2" rx="11" ry="11" style="stroke:#181818;stroke-width:1.0;"/>
            <path d="M78.2656,249.875 Q78.4219,249.6563 78.6094,249.5469 Q78.7969,249.4375 79.0156,249.4375 Q79.3906,249.4375 79.625,249.7031 Q79.8594,249.9531 79.8594,250.5625 L79.8594,252.0156 Q79.8594,252.625 79.625,252.8906 Q79.3906,253.1563 79.0156,253.1563 Q78.6719,253.1563 78.4688,252.9531 Q78.2656,252.7656 78.1563,252.25 Q78.1094,251.8906 77.9219,251.7031 Q77.5938,251.3281 76.9844,251.1094 Q76.375,250.8906 75.75,250.8906 Q74.9844,250.8906 74.3438,251.2188 Q73.7188,251.5469 73.2188,252.2969 Q72.7344,253.0469 72.7344,254.0781 L72.7344,255.1719 Q72.7344,256.4063 73.625,257.2344 Q74.5156,258.0469 76.1094,258.0469 Q77.0469,258.0469 77.7031,257.7969 Q78.0938,257.6406 78.5156,257.2031 Q78.7813,256.9375 78.9219,256.8594 Q79.0781,256.7813 79.2813,256.7813 Q79.6094,256.7813 79.8594,257.0469 Q80.125,257.2969 80.125,257.6406 Q80.125,257.9844 79.7813,258.3906 Q79.2813,258.9688 78.4844,259.2969 Q77.4063,259.75 76.1094,259.75 Q74.5938,259.75 73.3906,259.125 Q72.4063,258.625 71.7188,257.5625 Q71.0313,256.4844 71.0313,255.2031 L71.0313,254.0469 Q71.0313,252.7188 71.6406,251.5781 Q72.2656,250.4219 73.3594,249.8125 Q74.4531,249.1875 75.6875,249.1875 Q76.4219,249.1875 77.0625,249.3594 Q77.7188,249.5156 78.2656,249.875 Z " fill="#000000"/>
            <text fill="#000000" font-family="sans-serif" font-size="14" lengthAdjust="spacing" textLength="27" x="89.5" y="259.7285">Map</text>
            <line style="stroke:#181818;stroke-width:0.5;" x1="61.5" x2="118.5" y1="270" y2="270"/>
            <line style="stroke:#181818;stroke-width:0.5;" x1="61.5" x2="118.5" y1="278" y2="278"/>
        </g>
        <!--class Objects-->
        <g id="elem_Objects">
            <rect codeLine="10" fill="#F1F1F1" height="48" id="Objects" rx="2.5" ry="2.5" style="stroke:#181818;stroke-width:0.5;" width="80" x="155" y="238"/>
            <ellipse cx="170" cy="254" fill="#ADD1B2" rx="11" ry="11" style="stroke:#181818;stroke-width:1.0;"/>
            <path d="M172.7656,249.875 Q172.9219,249.6563 173.1094,249.5469 Q173.2969,249.4375 173.5156,249.4375 Q173.8906,249.4375 174.125,249.7031 Q174.3594,249.9531 174.3594,250.5625 L174.3594,252.0156 Q174.3594,252.625 174.125,252.8906 Q173.8906,253.1563 173.5156,253.1563 Q173.1719,253.1563 172.9688,252.9531 Q172.7656,252.7656 172.6563,252.25 Q172.6094,251.8906 172.4219,251.7031 Q172.0938,251.3281 171.4844,251.1094 Q170.875,250.8906 170.25,250.8906 Q169.4844,250.8906 168.8438,251.2188 Q168.2188,251.5469 167.7188,252.2969 Q167.2344,253.0469 167.2344,254.0781 L167.2344,255.1719 Q167.2344,256.4063 168.125,257.2344 Q169.0156,258.0469 170.6094,258.0469 Q171.5469,258.0469 172.2031,257.7969 Q172.5938,257.6406 173.0156,257.2031 Q173.2813,256.9375 173.4219,256.8594 Q173.5781,256.7813 173.7813,256.7813 Q174.1094,256.7813 174.3594,257.0469 Q174.625,257.2969 174.625,257.6406 Q174.625,257.9844 174.2813,258.3906 Q173.7813,258.9688 172.9844,259.2969 Q171.9063,259.75 170.6094,259.75 Q169.0938,259.75 167.8906,259.125 Q166.9063,258.625 166.2188,257.5625 Q165.5313,256.4844 165.5313,255.2031 L165.5313,254.0469 Q165.5313,252.7188 166.1406,251.5781 Q166.7656,250.4219 167.8594,249.8125 Q168.9531,249.1875 170.1875,249.1875 Q170.9219,249.1875 171.5625,249.3594 Q172.2188,249.5156 172.7656,249.875 Z " fill="#000000"/>
            <text fill="#000000" font-family="sans-serif" font-size="14" lengthAdjust="spacing" textLength="48" x="184" y="259.7285">Objects</text>
            <line style="stroke:#181818;stroke-width:0.5;" x1="156" x2="234" y1="270" y2="270"/>
            <line style="stroke:#181818;stroke-width:0.5;" x1="156" x2="234" y1="278" y2="278"/>
        </g>
        <!--class CryptoCurrency-->
        <g id="elem_CryptoCurrency">
            <rect codeLine="11" fill="#F1F1F1" height="48" id="CryptoCurrency" rx="2.5" ry="2.5" style="stroke:#181818;stroke-width:0.5;" width="132" x="1468" y="130"/>
            <ellipse cx="1483" cy="146" fill="#ADD1B2" rx="11" ry="11" style="stroke:#181818;stroke-width:1.0;"/>
            <path d="M1485.7656,141.875 Q1485.9219,141.6563 1486.1094,141.5469 Q1486.2969,141.4375 1486.5156,141.4375 Q1486.8906,141.4375 1487.125,141.7031 Q1487.3594,141.9531 1487.3594,142.5625 L1487.3594,144.0156 Q1487.3594,144.625 1487.125,144.8906 Q1486.8906,145.1563 1486.5156,145.1563 Q1486.1719,145.1563 1485.9688,144.9531 Q1485.7656,144.7656 1485.6563,144.25 Q1485.6094,143.8906 1485.4219,143.7031 Q1485.0938,143.3281 1484.4844,143.1094 Q1483.875,142.8906 1483.25,142.8906 Q1482.4844,142.8906 1481.8438,143.2188 Q1481.2188,143.5469 1480.7188,144.2969 Q1480.2344,145.0469 1480.2344,146.0781 L1480.2344,147.1719 Q1480.2344,148.4063 1481.125,149.2344 Q1482.0156,150.0469 1483.6094,150.0469 Q1484.5469,150.0469 1485.2031,149.7969 Q1485.5938,149.6406 1486.0156,149.2031 Q1486.2813,148.9375 1486.4219,148.8594 Q1486.5781,148.7813 1486.7813,148.7813 Q1487.1094,148.7813 1487.3594,149.0469 Q1487.625,149.2969 1487.625,149.6406 Q1487.625,149.9844 1487.2813,150.3906 Q1486.7813,150.9688 1485.9844,151.2969 Q1484.9063,151.75 1483.6094,151.75 Q1482.0938,151.75 1480.8906,151.125 Q1479.9063,150.625 1479.2188,149.5625 Q1478.5313,148.4844 1478.5313,147.2031 L1478.5313,146.0469 Q1478.5313,144.7188 1479.1406,143.5781 Q1479.7656,142.4219 1480.8594,141.8125 Q1481.9531,141.1875 1483.1875,141.1875 Q1483.9219,141.1875 1484.5625,141.3594 Q1485.2188,141.5156 1485.7656,141.875 Z " fill="#000000"/>
            <text fill="#000000" font-family="sans-serif" font-size="14" lengthAdjust="spacing" textLength="100" x="1497" y="151.7285">CryptoCurrency</text>
            <line style="stroke:#181818;stroke-width:0.5;" x1="1469" x2="1599" y1="162" y2="162"/>
            <line style="stroke:#181818;stroke-width:0.5;" x1="1469" x2="1599" y1="170" y2="170"/>
        </g>
        <!--class CryptoCurrencyException-->
        <g id="elem_CryptoCurrencyException">
            <rect codeLine="12" fill="#F1F1F1" height="48" id="CryptoCurrencyException" rx="2.5" ry="2.5" style="stroke:#181818;stroke-width:0.5;" width="193" x="1635.5" y="130"/>
            <ellipse cx="1650.5" cy="146" fill="#ADD1B2" rx="11" ry="11" style="stroke:#181818;stroke-width:1.0;"/>
            <path d="M1653.2656,141.875 Q1653.4219,141.6563 1653.6094,141.5469 Q1653.7969,141.4375 1654.0156,141.4375 Q1654.3906,141.4375 1654.625,141.7031 Q1654.8594,141.9531 1654.8594,142.5625 L1654.8594,144.0156 Q1654.8594,144.625 1654.625,144.8906 Q1654.3906,145.1563 1654.0156,145.1563 Q1653.6719,145.1563 1653.4688,144.9531 Q1653.2656,144.7656 1653.1563,144.25 Q1653.1094,143.8906 1652.9219,143.7031 Q1652.5938,143.3281 1651.9844,143.1094 Q1651.375,142.8906 1650.75,142.8906 Q1649.9844,142.8906 1649.3438,143.2188 Q1648.7188,143.5469 1648.2188,144.2969 Q1647.7344,145.0469 1647.7344,146.0781 L1647.7344,147.1719 Q1647.7344,148.4063 1648.625,149.2344 Q1649.5156,150.0469 1651.1094,150.0469 Q1652.0469,150.0469 1652.7031,149.7969 Q1653.0938,149.6406 1653.5156,149.2031 Q1653.7813,148.9375 1653.9219,148.8594 Q1654.0781,148.7813 1654.2813,148.7813 Q1654.6094,148.7813 1654.8594,149.0469 Q1655.125,149.2969 1655.125,149.6406 Q1655.125,149.9844 1654.7813,150.3906 Q1654.2813,150.9688 1653.4844,151.2969 Q1652.4063,151.75 1651.1094,151.75 Q1649.5938,151.75 1648.3906,151.125 Q1647.4063,150.625 1646.7188,149.5625 Q1646.0313,148.4844 1646.0313,147.2031 L1646.0313,146.0469 Q1646.0313,144.7188 1646.6406,143.5781 Q1647.2656,142.4219 1648.3594,141.8125 Q1649.4531,141.1875 1650.6875,141.1875 Q1651.4219,141.1875 1652.0625,141.3594 Q1652.7188,141.5156 1653.2656,141.875 Z " fill="#000000"/>
            <text fill="#000000" font-family="sans-serif" font-size="14" lengthAdjust="spacing" textLength="161" x="1664.5" y="151.7285">CryptoCurrencyException</text>
            <line style="stroke:#181818;stroke-width:0.5;" x1="1636.5" x2="1827.5" y1="162" y2="162"/>
            <line style="stroke:#181818;stroke-width:0.5;" x1="1636.5" x2="1827.5" y1="170" y2="170"/>
        </g>
        <!--class MarketOrder-->
        <g id="elem_MarketOrder">
            <rect codeLine="13" fill="#F1F1F1" height="48" id="MarketOrder" rx="2.5" ry="2.5" style="stroke:#181818;stroke-width:0.5;" width="112" x="1864" y="130"/>
            <ellipse cx="1879" cy="146" fill="#ADD1B2" rx="11" ry="11" style="stroke:#181818;stroke-width:1.0;"/>
            <path d="M1881.7656,141.875 Q1881.9219,141.6563 1882.1094,141.5469 Q1882.2969,141.4375 1882.5156,141.4375 Q1882.8906,141.4375 1883.125,141.7031 Q1883.3594,141.9531 1883.3594,142.5625 L1883.3594,144.0156 Q1883.3594,144.625 1883.125,144.8906 Q1882.8906,145.1563 1882.5156,145.1563 Q1882.1719,145.1563 1881.9688,144.9531 Q1881.7656,144.7656 1881.6563,144.25 Q1881.6094,143.8906 1881.4219,143.7031 Q1881.0938,143.3281 1880.4844,143.1094 Q1879.875,142.8906 1879.25,142.8906 Q1878.4844,142.8906 1877.8438,143.2188 Q1877.2188,143.5469 1876.7188,144.2969 Q1876.2344,145.0469 1876.2344,146.0781 L1876.2344,147.1719 Q1876.2344,148.4063 1877.125,149.2344 Q1878.0156,150.0469 1879.6094,150.0469 Q1880.5469,150.0469 1881.2031,149.7969 Q1881.5938,149.6406 1882.0156,149.2031 Q1882.2813,148.9375 1882.4219,148.8594 Q1882.5781,148.7813 1882.7813,148.7813 Q1883.1094,148.7813 1883.3594,149.0469 Q1883.625,149.2969 1883.625,149.6406 Q1883.625,149.9844 1883.2813,150.3906 Q1882.7813,150.9688 1881.9844,151.2969 Q1880.9063,151.75 1879.6094,151.75 Q1878.0938,151.75 1876.8906,151.125 Q1875.9063,150.625 1875.2188,149.5625 Q1874.5313,148.4844 1874.5313,147.2031 L1874.5313,146.0469 Q1874.5313,144.7188 1875.1406,143.5781 Q1875.7656,142.4219 1876.8594,141.8125 Q1877.9531,141.1875 1879.1875,141.1875 Q1879.9219,141.1875 1880.5625,141.3594 Q1881.2188,141.5156 1881.7656,141.875 Z " fill="#000000"/>
            <text fill="#000000" font-family="sans-serif" font-size="14" lengthAdjust="spacing" textLength="80" x="1893" y="151.7285">MarketOrder</text>
            <line style="stroke:#181818;stroke-width:0.5;" x1="1865" x2="1975" y1="162" y2="162"/>
            <line style="stroke:#181818;stroke-width:0.5;" x1="1865" x2="1975" y1="170" y2="170"/>
        </g>
        <!--class Transaction-->
        <g id="elem_Transaction">
            <rect codeLine="14" fill="#F1F1F1" height="48" id="Transaction" rx="2.5" ry="2.5" style="stroke:#181818;stroke-width:0.5;" width="107" x="1480.5" y="238"/>
            <ellipse cx="1495.5" cy="254" fill="#ADD1B2" rx="11" ry="11" style="stroke:#181818;stroke-width:1.0;"/>
            <path d="M1498.2656,249.875 Q1498.4219,249.6563 1498.6094,249.5469 Q1498.7969,249.4375 1499.0156,249.4375 Q1499.3906,249.4375 1499.625,249.7031 Q1499.8594,249.9531 1499.8594,250.5625 L1499.8594,252.0156 Q1499.8594,252.625 1499.625,252.8906 Q1499.3906,253.1563 1499.0156,253.1563 Q1498.6719,253.1563 1498.4688,252.9531 Q1498.2656,252.7656 1498.1563,252.25 Q1498.1094,251.8906 1497.9219,251.7031 Q1497.5938,251.3281 1496.9844,251.1094 Q1496.375,250.8906 1495.75,250.8906 Q1494.9844,250.8906 1494.3438,251.2188 Q1493.7188,251.5469 1493.2188,252.2969 Q1492.7344,253.0469 1492.7344,254.0781 L1492.7344,255.1719 Q1492.7344,256.4063 1493.625,257.2344 Q1494.5156,258.0469 1496.1094,258.0469 Q1497.0469,258.0469 1497.7031,257.7969 Q1498.0938,257.6406 1498.5156,257.2031 Q1498.7813,256.9375 1498.9219,256.8594 Q1499.0781,256.7813 1499.2813,256.7813 Q1499.6094,256.7813 1499.8594,257.0469 Q1500.125,257.2969 1500.125,257.6406 Q1500.125,257.9844 1499.7813,258.3906 Q1499.2813,258.9688 1498.4844,259.2969 Q1497.4063,259.75 1496.1094,259.75 Q1494.5938,259.75 1493.3906,259.125 Q1492.4063,258.625 1491.7188,257.5625 Q1491.0313,256.4844 1491.0313,255.2031 L1491.0313,254.0469 Q1491.0313,252.7188 1491.6406,251.5781 Q1492.2656,250.4219 1493.3594,249.8125 Q1494.4531,249.1875 1495.6875,249.1875 Q1496.4219,249.1875 1497.0625,249.3594 Q1497.7188,249.5156 1498.2656,249.875 Z " fill="#000000"/>
            <text fill="#000000" font-family="sans-serif" font-size="14" lengthAdjust="spacing" textLength="75" x="1509.5" y="259.7285">Transaction</text>
            <line style="stroke:#181818;stroke-width:0.5;" x1="1481.5" x2="1586.5" y1="270" y2="270"/>
            <line style="stroke:#181818;stroke-width:0.5;" x1="1481.5" x2="1586.5" y1="278" y2="278"/>
        </g>
        <!--class User-->
        <g id="elem_User">
            <rect codeLine="15" fill="#F1F1F1" height="48" id="User" rx="2.5" ry="2.5" style="stroke:#181818;stroke-width:0.5;" width="61" x="1622.5" y="238"/>
            <ellipse cx="1637.5" cy="254" fill="#ADD1B2" rx="11" ry="11" style="stroke:#181818;stroke-width:1.0;"/>
            <path d="M1640.2656,249.875 Q1640.4219,249.6563 1640.6094,249.5469 Q1640.7969,249.4375 1641.0156,249.4375 Q1641.3906,249.4375 1641.625,249.7031 Q1641.8594,249.9531 1641.8594,250.5625 L1641.8594,252.0156 Q1641.8594,252.625 1641.625,252.8906 Q1641.3906,253.1563 1641.0156,253.1563 Q1640.6719,253.1563 1640.4688,252.9531 Q1640.2656,252.7656 1640.1563,252.25 Q1640.1094,251.8906 1639.9219,251.7031 Q1639.5938,251.3281 1638.9844,251.1094 Q1638.375,250.8906 1637.75,250.8906 Q1636.9844,250.8906 1636.3438,251.2188 Q1635.7188,251.5469 1635.2188,252.2969 Q1634.7344,253.0469 1634.7344,254.0781 L1634.7344,255.1719 Q1634.7344,256.4063 1635.625,257.2344 Q1636.5156,258.0469 1638.1094,258.0469 Q1639.0469,258.0469 1639.7031,257.7969 Q1640.0938,257.6406 1640.5156,257.2031 Q1640.7813,256.9375 1640.9219,256.8594 Q1641.0781,256.7813 1641.2813,256.7813 Q1641.6094,256.7813 1641.8594,257.0469 Q1642.125,257.2969 1642.125,257.6406 Q1642.125,257.9844 1641.7813,258.3906 Q1641.2813,258.9688 1640.4844,259.2969 Q1639.4063,259.75 1638.1094,259.75 Q1636.5938,259.75 1635.3906,259.125 Q1634.4063,258.625 1633.7188,257.5625 Q1633.0313,256.4844 1633.0313,255.2031 L1633.0313,254.0469 Q1633.0313,252.7188 1633.6406,251.5781 Q1634.2656,250.4219 1635.3594,249.8125 Q1636.4531,249.1875 1637.6875,249.1875 Q1638.4219,249.1875 1639.0625,249.3594 Q1639.7188,249.5156 1640.2656,249.875 Z " fill="#000000"/>
            <text fill="#000000" font-family="sans-serif" font-size="14" lengthAdjust="spacing" textLength="29" x="1651.5" y="259.7285">User</text>
            <line style="stroke:#181818;stroke-width:0.5;" x1="1623.5" x2="1682.5" y1="270" y2="270"/>
            <line style="stroke:#181818;stroke-width:0.5;" x1="1623.5" x2="1682.5" y1="278" y2="278"/>
        </g>
        <!--class Wallet-->
        <g id="elem_Wallet">
            <rect codeLine="16" fill="#F1F1F1" height="48" id="Wallet" rx="2.5" ry="2.5" style="stroke:#181818;stroke-width:0.5;" width="71" x="1718.5" y="238"/>
            <ellipse cx="1733.5" cy="254" fill="#ADD1B2" rx="11" ry="11" style="stroke:#181818;stroke-width:1.0;"/>
            <path d="M1736.2656,249.875 Q1736.4219,249.6563 1736.6094,249.5469 Q1736.7969,249.4375 1737.0156,249.4375 Q1737.3906,249.4375 1737.625,249.7031 Q1737.8594,249.9531 1737.8594,250.5625 L1737.8594,252.0156 Q1737.8594,252.625 1737.625,252.8906 Q1737.3906,253.1563 1737.0156,253.1563 Q1736.6719,253.1563 1736.4688,252.9531 Q1736.2656,252.7656 1736.1563,252.25 Q1736.1094,251.8906 1735.9219,251.7031 Q1735.5938,251.3281 1734.9844,251.1094 Q1734.375,250.8906 1733.75,250.8906 Q1732.9844,250.8906 1732.3438,251.2188 Q1731.7188,251.5469 1731.2188,252.2969 Q1730.7344,253.0469 1730.7344,254.0781 L1730.7344,255.1719 Q1730.7344,256.4063 1731.625,257.2344 Q1732.5156,258.0469 1734.1094,258.0469 Q1735.0469,258.0469 1735.7031,257.7969 Q1736.0938,257.6406 1736.5156,257.2031 Q1736.7813,256.9375 1736.9219,256.8594 Q1737.0781,256.7813 1737.2813,256.7813 Q1737.6094,256.7813 1737.8594,257.0469 Q1738.125,257.2969 1738.125,257.6406 Q1738.125,257.9844 1737.7813,258.3906 Q1737.2813,258.9688 1736.4844,259.2969 Q1735.4063,259.75 1734.1094,259.75 Q1732.5938,259.75 1731.3906,259.125 Q1730.4063,258.625 1729.7188,257.5625 Q1729.0313,256.4844 1729.0313,255.2031 L1729.0313,254.0469 Q1729.0313,252.7188 1729.6406,251.5781 Q1730.2656,250.4219 1731.3594,249.8125 Q1732.4531,249.1875 1733.6875,249.1875 Q1734.4219,249.1875 1735.0625,249.3594 Q1735.7188,249.5156 1736.2656,249.875 Z " fill="#000000"/>
            <text fill="#000000" font-family="sans-serif" font-size="14" lengthAdjust="spacing" textLength="39" x="1747.5" y="259.7285">Wallet</text>
            <line style="stroke:#181818;stroke-width:0.5;" x1="1719.5" x2="1788.5" y1="270" y2="270"/>
            <line style="stroke:#181818;stroke-width:0.5;" x1="1719.5" x2="1788.5" y1="278" y2="278"/>
        </g>
        <!--class OrderType-->
        <g id="elem_OrderType">
            <rect codeLine="18" fill="#F1F1F1" height="48" id="OrderType" rx="2.5" ry="2.5" style="stroke:#181818;stroke-width:0.5;" width="101" x="1483.5" y="346"/>
            <ellipse cx="1498.5" cy="362" fill="#EB937F" rx="11" ry="11" style="stroke:#181818;stroke-width:1.0;"/>
            <path d="M1497.3594,362.7969 L1497.3594,365.2969 L1501.6875,365.2969 L1501.6875,364.375 Q1501.6875,363.7656 1501.9219,363.5 Q1502.1719,363.2344 1502.5469,363.2344 Q1502.9219,363.2344 1503.1563,363.5 Q1503.3906,363.7656 1503.3906,364.375 L1503.3906,367 L1495.3906,367 Q1494.7656,367 1494.5,366.7656 Q1494.25,366.5313 1494.25,366.1406 Q1494.25,365.7656 1494.5156,365.5313 Q1494.7813,365.2969 1495.3906,365.2969 L1495.6563,365.2969 L1495.6563,358.6406 L1495.3906,358.6406 Q1494.7656,358.6406 1494.5,358.4063 Q1494.25,358.1719 1494.25,357.7813 Q1494.25,357.4063 1494.5,357.1719 Q1494.7656,356.9375 1495.3906,356.9375 L1503.0156,356.9375 L1503.0156,359.5313 Q1503.0156,360.1406 1502.7813,360.4063 Q1502.5625,360.6563 1502.1719,360.6563 Q1501.7969,360.6563 1501.5625,360.4063 Q1501.3281,360.1406 1501.3281,359.5313 L1501.3281,358.6406 L1497.3594,358.6406 L1497.3594,361.0938 L1498.8438,361.0938 Q1498.8438,360.4375 1498.9688,360.25 Q1499.2344,359.8438 1499.7031,359.8438 Q1500.0781,359.8438 1500.3125,360.1094 Q1500.5469,360.3594 1500.5469,360.9688 L1500.5469,362.9375 Q1500.5469,363.4844 1500.4219,363.6719 Q1500.1563,364.0625 1499.7031,364.0625 Q1499.2344,364.0625 1498.9688,363.6563 Q1498.8438,363.4688 1498.8438,362.7969 L1497.3594,362.7969 Z " fill="#000000"/>
            <text fill="#000000" font-family="sans-serif" font-size="14" lengthAdjust="spacing" textLength="69" x="1512.5" y="367.7285">OrderType</text>
            <line style="stroke:#181818;stroke-width:0.5;" x1="1484.5" x2="1583.5" y1="378" y2="378"/>
            <line style="stroke:#181818;stroke-width:0.5;" x1="1484.5" x2="1583.5" y1="386" y2="386"/>
        </g>
        <!--class TransactionAction-->
        <g id="elem_TransactionAction">
            <rect codeLine="19" fill="#F1F1F1" height="48" id="TransactionAction" rx="2.5" ry="2.5" style="stroke:#181818;stroke-width:0.5;" width="146" x="1620" y="346"/>
            <ellipse cx="1635" cy="362" fill="#EB937F" rx="11" ry="11" style="stroke:#181818;stroke-width:1.0;"/>
            <path d="M1633.8594,362.7969 L1633.8594,365.2969 L1638.1875,365.2969 L1638.1875,364.375 Q1638.1875,363.7656 1638.4219,363.5 Q1638.6719,363.2344 1639.0469,363.2344 Q1639.4219,363.2344 1639.6563,363.5 Q1639.8906,363.7656 1639.8906,364.375 L1639.8906,367 L1631.8906,367 Q1631.2656,367 1631,366.7656 Q1630.75,366.5313 1630.75,366.1406 Q1630.75,365.7656 1631.0156,365.5313 Q1631.2813,365.2969 1631.8906,365.2969 L1632.1563,365.2969 L1632.1563,358.6406 L1631.8906,358.6406 Q1631.2656,358.6406 1631,358.4063 Q1630.75,358.1719 1630.75,357.7813 Q1630.75,357.4063 1631,357.1719 Q1631.2656,356.9375 1631.8906,356.9375 L1639.5156,356.9375 L1639.5156,359.5313 Q1639.5156,360.1406 1639.2813,360.4063 Q1639.0625,360.6563 1638.6719,360.6563 Q1638.2969,360.6563 1638.0625,360.4063 Q1637.8281,360.1406 1637.8281,359.5313 L1637.8281,358.6406 L1633.8594,358.6406 L1633.8594,361.0938 L1635.3438,361.0938 Q1635.3438,360.4375 1635.4688,360.25 Q1635.7344,359.8438 1636.2031,359.8438 Q1636.5781,359.8438 1636.8125,360.1094 Q1637.0469,360.3594 1637.0469,360.9688 L1637.0469,362.9375 Q1637.0469,363.4844 1636.9219,363.6719 Q1636.6563,364.0625 1636.2031,364.0625 Q1635.7344,364.0625 1635.4688,363.6563 Q1635.3438,363.4688 1635.3438,362.7969 L1633.8594,362.7969 Z " fill="#000000"/>
            <text fill="#000000" font-family="sans-serif" font-size="14" lengthAdjust="spacing" textLength="114" x="1649" y="367.7285">TransactionAction</text>
            <line style="stroke:#181818;stroke-width:0.5;" x1="1621" x2="1765" y1="378" y2="378"/>
            <line style="stroke:#181818;stroke-width:0.5;" x1="1621" x2="1765" y1="386" y2="386"/>
        </g>
        <!--class ExchangeService-->
        <g id="elem_ExchangeService">
            <rect codeLine="17" fill="#F1F1F1" height="48" id="ExchangeService" rx="2.5" ry="2.5" style="stroke:#181818;stroke-width:0.5;" width="141" x="1270.5" y="130"/>
            <ellipse cx="1285.5" cy="146" fill="#ADD1B2" rx="11" ry="11" style="stroke:#181818;stroke-width:1.0;"/>
            <path d="M1288.2656,141.875 Q1288.4219,141.6563 1288.6094,141.5469 Q1288.7969,141.4375 1289.0156,141.4375 Q1289.3906,141.4375 1289.625,141.7031 Q1289.8594,141.9531 1289.8594,142.5625 L1289.8594,144.0156 Q1289.8594,144.625 1289.625,144.8906 Q1289.3906,145.1563 1289.0156,145.1563 Q1288.6719,145.1563 1288.4688,144.9531 Q1288.2656,144.7656 1288.1563,144.25 Q1288.1094,143.8906 1287.9219,143.7031 Q1287.5938,143.3281 1286.9844,143.1094 Q1286.375,142.8906 1285.75,142.8906 Q1284.9844,142.8906 1284.3438,143.2188 Q1283.7188,143.5469 1283.2188,144.2969 Q1282.7344,145.0469 1282.7344,146.0781 L1282.7344,147.1719 Q1282.7344,148.4063 1283.625,149.2344 Q1284.5156,150.0469 1286.1094,150.0469 Q1287.0469,150.0469 1287.7031,149.7969 Q1288.0938,149.6406 1288.5156,149.2031 Q1288.7813,148.9375 1288.9219,148.8594 Q1289.0781,148.7813 1289.2813,148.7813 Q1289.6094,148.7813 1289.8594,149.0469 Q1290.125,149.2969 1290.125,149.6406 Q1290.125,149.9844 1289.7813,150.3906 Q1289.2813,150.9688 1288.4844,151.2969 Q1287.4063,151.75 1286.1094,151.75 Q1284.5938,151.75 1283.3906,151.125 Q1282.4063,150.625 1281.7188,149.5625 Q1281.0313,148.4844 1281.0313,147.2031 L1281.0313,146.0469 Q1281.0313,144.7188 1281.6406,143.5781 Q1282.2656,142.4219 1283.3594,141.8125 Q1284.4531,141.1875 1285.6875,141.1875 Q1286.4219,141.1875 1287.0625,141.3594 Q1287.7188,141.5156 1288.2656,141.875 Z " fill="#000000"/>
            <text fill="#000000" font-family="sans-serif" font-size="14" lengthAdjust="spacing" textLength="109" x="1299.5" y="151.7285">ExchangeService</text>
            <line style="stroke:#181818;stroke-width:0.5;" x1="1271.5" x2="1410.5" y1="162" y2="162"/>
            <line style="stroke:#181818;stroke-width:0.5;" x1="1271.5" x2="1410.5" y1="170" y2="170"/>
        </g>
        <!--SRC=[ZP5DJiD038NtFGKdc3kK5eb5eqYG2ecTwxZ9b9dno7QgvlOD1K4WKM0pqhpl-Sa_643rxWHdS05IunukIDayfnL-amZMkdlVR0bzX311JzobsgUcu9h6q7majsE4i0MZQlXDw2idAez79HkZpdnmQn7eTrwdv16qBI1Fz5dpdB4yd0XDFtMMnXsO3I5c5uSPWhgDzDbuqubGmlxVnj_hcwieGDx8Igb95boLG5B0FxBskXZo0Y5yRVQ7OQWxUoHzFtWx79wUFuGLfIxEPjqQhlgyO1drlBwzLm00]-->
    </g>
</svg>
