<?xml version="1.0" encoding="UTF-8"?><svg xmlns="http://www.w3.org/2000/svg" xmlns:xlink="http://www.w3.org/1999/xlink" contentStyleType="text/css" height="589px" preserveAspectRatio="none" style="width:2268px;height:589px;background:#FFFFFF;" version="1.1" viewBox="0 0 2268 589" width="2268px" zoomAndPan="magnify">
    <defs/>
    <g>
        <!--cluster java-->
        <g id="cluster_java">
            <path d="M1308.5,218 L1338.5,218 A3.75,3.75 0 0 1 1341,220.5 L1348,241.6094 L2258.5,241.6094 A2.5,2.5 0 0 1 2261,244.1094 L2261,579.5 A2.5,2.5 0 0 1 2258.5,582 L1308.5,582 A2.5,2.5 0 0 1 1306,579.5 L1306,220.5 A2.5,2.5 0 0 1 1308.5,218 " fill="none" style="stroke:#000000;stroke-width:1.5;"/>
            <line style="stroke:#000000;stroke-width:1.5;" x1="1306" x2="1348" y1="241.6094" y2="241.6094"/>
            <text fill="#000000" font-family="sans-serif" font-size="14" font-weight="bold" lengthAdjust="spacing" textLength="29" x="1310" y="234.5332">java</text>
        </g>
        <!--cluster lang-->
        <g id="cluster_lang">
            <path d="M1955.5,306 L1986.5,306 A3.75,3.75 0 0 1 1989,308.5 L1996,329.6094 L2076.5,329.6094 A2.5,2.5 0 0 1 2079,332.1094 L2079,403.5 A2.5,2.5 0 0 1 2076.5,406 L1955.5,406 A2.5,2.5 0 0 1 1953,403.5 L1953,308.5 A2.5,2.5 0 0 1 1955.5,306 " fill="none" style="stroke:#000000;stroke-width:1.5;"/>
            <line style="stroke:#000000;stroke-width:1.5;" x1="1953" x2="1996" y1="329.6094" y2="329.6094"/>
            <text fill="#000000" font-family="sans-serif" font-size="14" font-weight="bold" lengthAdjust="spacing" textLength="30" x="1957" y="322.5332">lang</text>
        </g>
        <!--cluster math-->
        <g id="cluster_math">
            <path d="M2105.5,306 L2140.5,306 A3.75,3.75 0 0 1 2143,308.5 L2150,329.6094 L2234.5,329.6094 A2.5,2.5 0 0 1 2237,332.1094 L2237,403.5 A2.5,2.5 0 0 1 2234.5,406 L2105.5,406 A2.5,2.5 0 0 1 2103,403.5 L2103,308.5 A2.5,2.5 0 0 1 2105.5,306 " fill="none" style="stroke:#000000;stroke-width:1.5;"/>
            <line style="stroke:#000000;stroke-width:1.5;" x1="2103" x2="2150" y1="329.6094" y2="329.6094"/>
            <text fill="#000000" font-family="sans-serif" font-size="14" font-weight="bold" lengthAdjust="spacing" textLength="34" x="2107" y="322.5332">math</text>
        </g>
        <!--cluster util-->
        <g id="cluster_util">
            <path d="M1332.5,262 L1355.5,262 A3.75,3.75 0 0 1 1358,264.5 L1365,285.6094 L1926.5,285.6094 A2.5,2.5 0 0 1 1929,288.1094 L1929,555.5 A2.5,2.5 0 0 1 1926.5,558 L1332.5,558 A2.5,2.5 0 0 1 1330,555.5 L1330,264.5 A2.5,2.5 0 0 1 1332.5,262 " fill="none" style="stroke:#000000;stroke-width:1.5;"/>
            <line style="stroke:#000000;stroke-width:1.5;" x1="1330" x2="1365" y1="285.6094" y2="285.6094"/>
            <text fill="#000000" font-family="sans-serif" font-size="14" font-weight="bold" lengthAdjust="spacing" textLength="22" x="1334" y="278.5332">util</text>
        </g>
        <!--cluster concurrent-->
        <g id="cluster_concurrent">
            <path d="M1544.5,306 L1623.5,306 A3.75,3.75 0 0 1 1626,308.5 L1633,329.6094 L1902.5,329.6094 A2.5,2.5 0 0 1 1905,332.1094 L1905,531.5 A2.5,2.5 0 0 1 1902.5,534 L1544.5,534 A2.5,2.5 0 0 1 1542,531.5 L1542,308.5 A2.5,2.5 0 0 1 1544.5,306 " fill="none" style="stroke:#000000;stroke-width:1.5;"/>
            <line style="stroke:#000000;stroke-width:1.5;" x1="1542" x2="1633" y1="329.6094" y2="329.6094"/>
            <text fill="#000000" font-family="sans-serif" font-size="14" font-weight="bold" lengthAdjust="spacing" textLength="78" x="1546" y="322.5332">concurrent</text>
        </g>
        <!--cluster org-->
        <g id="cluster_org">
            <path d="M8.5,6 L33.5,6 A3.75,3.75 0 0 1 36,8.5 L43,29.6094 L1279.5,29.6094 A2.5,2.5 0 0 1 1282,32.1094 L1282,451.5 A2.5,2.5 0 0 1 1279.5,454 L8.5,454 A2.5,2.5 0 0 1 6,451.5 L6,8.5 A2.5,2.5 0 0 1 8.5,6 " fill="none" style="stroke:#000000;stroke-width:1.5;"/>
            <line style="stroke:#000000;stroke-width:1.5;" x1="6" x2="43" y1="29.6094" y2="29.6094"/>
            <text fill="#000000" font-family="sans-serif" font-size="14" font-weight="bold" lengthAdjust="spacing" textLength="24" x="10" y="22.5332">org</text>
        </g>
        <!--cluster bootcamp-->
        <g id="cluster_bootcamp">
            <path d="M32.5,50 L102.5,50 A3.75,3.75 0 0 1 105,52.5 L112,73.6094 L1255.5,73.6094 A2.5,2.5 0 0 1 1258,76.1094 L1258,427.5 A2.5,2.5 0 0 1 1255.5,430 L32.5,430 A2.5,2.5 0 0 1 30,427.5 L30,52.5 A2.5,2.5 0 0 1 32.5,50 " fill="none" style="stroke:#000000;stroke-width:1.5;"/>
            <line style="stroke:#000000;stroke-width:1.5;" x1="30" x2="112" y1="73.6094" y2="73.6094"/>
            <text fill="#000000" font-family="sans-serif" font-size="14" font-weight="bold" lengthAdjust="spacing" textLength="69" x="34" y="66.5332">bootcamp</text>
        </g>
        <!--cluster models-->
        <g id="cluster_models">
            <path d="M1142.5,94 L1194.5,94 A3.75,3.75 0 0 1 1197,96.5 L1204,117.6094 L1231.5,117.6094 A2.5,2.5 0 0 1 1234,120.1094 L1234,191.5 A2.5,2.5 0 0 1 1231.5,194 L1142.5,194 A2.5,2.5 0 0 1 1140,191.5 L1140,96.5 A2.5,2.5 0 0 1 1142.5,94 " fill="none" style="stroke:#000000;stroke-width:1.5;"/>
            <line style="stroke:#000000;stroke-width:1.5;" x1="1140" x2="1204" y1="117.6094" y2="117.6094"/>
            <text fill="#000000" font-family="sans-serif" font-size="14" font-weight="bold" lengthAdjust="spacing" textLength="51" x="1144" y="110.5332">models</text>
        </g>
        <!--cluster services-->
        <g id="cluster_services">
            <path d="M553.5,94 L615.5,94 A3.75,3.75 0 0 1 618,96.5 L625,117.6094 L1113.5,117.6094 A2.5,2.5 0 0 1 1116,120.1094 L1116,403.5 A2.5,2.5 0 0 1 1113.5,406 L553.5,406 A2.5,2.5 0 0 1 551,403.5 L551,96.5 A2.5,2.5 0 0 1 553.5,94 " fill="none" style="stroke:#000000;stroke-width:1.5;"/>
            <line style="stroke:#000000;stroke-width:1.5;" x1="551" x2="625" y1="117.6094" y2="117.6094"/>
            <text fill="#000000" font-family="sans-serif" font-size="14" font-weight="bold" lengthAdjust="spacing" textLength="61" x="555" y="110.5332">services</text>
        </g>
        <!--cluster views-->
        <g id="cluster_views">
            <path d="M56.5,94 L98.5,94 A3.75,3.75 0 0 1 101,96.5 L108,117.6094 L524.5,117.6094 A2.5,2.5 0 0 1 527,120.1094 L527,191.5 A2.5,2.5 0 0 1 524.5,194 L56.5,194 A2.5,2.5 0 0 1 54,191.5 L54,96.5 A2.5,2.5 0 0 1 56.5,94 " fill="none" style="stroke:#000000;stroke-width:1.5;"/>
            <line style="stroke:#000000;stroke-width:1.5;" x1="54" x2="108" y1="117.6094" y2="117.6094"/>
            <text fill="#000000" font-family="sans-serif" font-size="14" font-weight="bold" lengthAdjust="spacing" textLength="41" x="58" y="110.5332">views</text>
        </g>
        <!--class Exception-->
        <g id="elem_Exception">
            <rect codeLine="1" fill="#F1F1F1" height="48" id="Exception" rx="2.5" ry="2.5" style="stroke:#181818;stroke-width:0.5;" width="93" x="1969.5" y="342"/>
            <ellipse cx="1984.5" cy="358" fill="#ADD1B2" rx="11" ry="11" style="stroke:#181818;stroke-width:1.0;"/>
            <path d="M1987.2656,353.875 Q1987.4219,353.6563 1987.6094,353.5469 Q1987.7969,353.4375 1988.0156,353.4375 Q1988.3906,353.4375 1988.625,353.7031 Q1988.8594,353.9531 1988.8594,354.5625 L1988.8594,356.0156 Q1988.8594,356.625 1988.625,356.8906 Q1988.3906,357.1563 1988.0156,357.1563 Q1987.6719,357.1563 1987.4688,356.9531 Q1987.2656,356.7656 1987.1563,356.25 Q1987.1094,355.8906 1986.9219,355.7031 Q1986.5938,355.3281 1985.9844,355.1094 Q1985.375,354.8906 1984.75,354.8906 Q1983.9844,354.8906 1983.3438,355.2188 Q1982.7188,355.5469 1982.2188,356.2969 Q1981.7344,357.0469 1981.7344,358.0781 L1981.7344,359.1719 Q1981.7344,360.4063 1982.625,361.2344 Q1983.5156,362.0469 1985.1094,362.0469 Q1986.0469,362.0469 1986.7031,361.7969 Q1987.0938,361.6406 1987.5156,361.2031 Q1987.7813,360.9375 1987.9219,360.8594 Q1988.0781,360.7813 1988.2813,360.7813 Q1988.6094,360.7813 1988.8594,361.0469 Q1989.125,361.2969 1989.125,361.6406 Q1989.125,361.9844 1988.7813,362.3906 Q1988.2813,362.9688 1987.4844,363.2969 Q1986.4063,363.75 1985.1094,363.75 Q1983.5938,363.75 1982.3906,363.125 Q1981.4063,362.625 1980.7188,361.5625 Q1980.0313,360.4844 1980.0313,359.2031 L1980.0313,358.0469 Q1980.0313,356.7188 1980.6406,355.5781 Q1981.2656,354.4219 1982.3594,353.8125 Q1983.4531,353.1875 1984.6875,353.1875 Q1985.4219,353.1875 1986.0625,353.3594 Q1986.7188,353.5156 1987.2656,353.875 Z " fill="#000000"/>
            <text fill="#000000" font-family="sans-serif" font-size="14" lengthAdjust="spacing" textLength="61" x="1998.5" y="363.7285">Exception</text>
            <line style="stroke:#181818;stroke-width:0.5;" x1="1970.5" x2="2061.5" y1="374" y2="374"/>
            <line style="stroke:#181818;stroke-width:0.5;" x1="1970.5" x2="2061.5" y1="382" y2="382"/>
        </g>
        <!--class BigDecimal-->
        <g id="elem_BigDecimal">
            <rect codeLine="2" fill="#F1F1F1" height="48" id="BigDecimal" rx="2.5" ry="2.5" style="stroke:#181818;stroke-width:0.5;" width="102" x="2119" y="342"/>
            <ellipse cx="2134" cy="358" fill="#ADD1B2" rx="11" ry="11" style="stroke:#181818;stroke-width:1.0;"/>
            <path d="M2136.7656,353.875 Q2136.9219,353.6563 2137.1094,353.5469 Q2137.2969,353.4375 2137.5156,353.4375 Q2137.8906,353.4375 2138.125,353.7031 Q2138.3594,353.9531 2138.3594,354.5625 L2138.3594,356.0156 Q2138.3594,356.625 2138.125,356.8906 Q2137.8906,357.1563 2137.5156,357.1563 Q2137.1719,357.1563 2136.9688,356.9531 Q2136.7656,356.7656 2136.6563,356.25 Q2136.6094,355.8906 2136.4219,355.7031 Q2136.0938,355.3281 2135.4844,355.1094 Q2134.875,354.8906 2134.25,354.8906 Q2133.4844,354.8906 2132.8438,355.2188 Q2132.2188,355.5469 2131.7188,356.2969 Q2131.2344,357.0469 2131.2344,358.0781 L2131.2344,359.1719 Q2131.2344,360.4063 2132.125,361.2344 Q2133.0156,362.0469 2134.6094,362.0469 Q2135.5469,362.0469 2136.2031,361.7969 Q2136.5938,361.6406 2137.0156,361.2031 Q2137.2813,360.9375 2137.4219,360.8594 Q2137.5781,360.7813 2137.7813,360.7813 Q2138.1094,360.7813 2138.3594,361.0469 Q2138.625,361.2969 2138.625,361.6406 Q2138.625,361.9844 2138.2813,362.3906 Q2137.7813,362.9688 2136.9844,363.2969 Q2135.9063,363.75 2134.6094,363.75 Q2133.0938,363.75 2131.8906,363.125 Q2130.9063,362.625 2130.2188,361.5625 Q2129.5313,360.4844 2129.5313,359.2031 L2129.5313,358.0469 Q2129.5313,356.7188 2130.1406,355.5781 Q2130.7656,354.4219 2131.8594,353.8125 Q2132.9531,353.1875 2134.1875,353.1875 Q2134.9219,353.1875 2135.5625,353.3594 Q2136.2188,353.5156 2136.7656,353.875 Z " fill="#000000"/>
            <text fill="#000000" font-family="sans-serif" font-size="14" lengthAdjust="spacing" textLength="70" x="2148" y="363.7285">BigDecimal</text>
            <line style="stroke:#181818;stroke-width:0.5;" x1="2120" x2="2220" y1="374" y2="374"/>
            <line style="stroke:#181818;stroke-width:0.5;" x1="2120" x2="2220" y1="382" y2="382"/>
        </g>
        <!--class ArrayList-->
        <g id="elem_ArrayList">
            <rect codeLine="3" fill="#F1F1F1" height="48" id="ArrayList" rx="2.5" ry="2.5" style="stroke:#181818;stroke-width:0.5;" width="88" x="1435" y="342"/>
            <ellipse cx="1450" cy="358" fill="#ADD1B2" rx="11" ry="11" style="stroke:#181818;stroke-width:1.0;"/>
            <path d="M1452.7656,353.875 Q1452.9219,353.6563 1453.1094,353.5469 Q1453.2969,353.4375 1453.5156,353.4375 Q1453.8906,353.4375 1454.125,353.7031 Q1454.3594,353.9531 1454.3594,354.5625 L1454.3594,356.0156 Q1454.3594,356.625 1454.125,356.8906 Q1453.8906,357.1563 1453.5156,357.1563 Q1453.1719,357.1563 1452.9688,356.9531 Q1452.7656,356.7656 1452.6563,356.25 Q1452.6094,355.8906 1452.4219,355.7031 Q1452.0938,355.3281 1451.4844,355.1094 Q1450.875,354.8906 1450.25,354.8906 Q1449.4844,354.8906 1448.8438,355.2188 Q1448.2188,355.5469 1447.7188,356.2969 Q1447.2344,357.0469 1447.2344,358.0781 L1447.2344,359.1719 Q1447.2344,360.4063 1448.125,361.2344 Q1449.0156,362.0469 1450.6094,362.0469 Q1451.5469,362.0469 1452.2031,361.7969 Q1452.5938,361.6406 1453.0156,361.2031 Q1453.2813,360.9375 1453.4219,360.8594 Q1453.5781,360.7813 1453.7813,360.7813 Q1454.1094,360.7813 1454.3594,361.0469 Q1454.625,361.2969 1454.625,361.6406 Q1454.625,361.9844 1454.2813,362.3906 Q1453.7813,362.9688 1452.9844,363.2969 Q1451.9063,363.75 1450.6094,363.75 Q1449.0938,363.75 1447.8906,363.125 Q1446.9063,362.625 1446.2188,361.5625 Q1445.5313,360.4844 1445.5313,359.2031 L1445.5313,358.0469 Q1445.5313,356.7188 1446.1406,355.5781 Q1446.7656,354.4219 1447.8594,353.8125 Q1448.9531,353.1875 1450.1875,353.1875 Q1450.9219,353.1875 1451.5625,353.3594 Q1452.2188,353.5156 1452.7656,353.875 Z " fill="#000000"/>
            <text fill="#000000" font-family="sans-serif" font-size="14" lengthAdjust="spacing" textLength="56" x="1464" y="363.7285">ArrayList</text>
            <line style="stroke:#181818;stroke-width:0.5;" x1="1436" x2="1522" y1="374" y2="374"/>
            <line style="stroke:#181818;stroke-width:0.5;" x1="1436" x2="1522" y1="382" y2="382"/>
        </g>
        <!--class List-->
        <g id="elem_List">
            <rect codeLine="4" fill="#F1F1F1" height="48" id="List" rx="2.5" ry="2.5" style="stroke:#181818;stroke-width:0.5;" width="54" x="1346" y="342"/>
            <ellipse cx="1361" cy="358" fill="#ADD1B2" rx="11" ry="11" style="stroke:#181818;stroke-width:1.0;"/>
            <path d="M1363.7656,353.875 Q1363.9219,353.6563 1364.1094,353.5469 Q1364.2969,353.4375 1364.5156,353.4375 Q1364.8906,353.4375 1365.125,353.7031 Q1365.3594,353.9531 1365.3594,354.5625 L1365.3594,356.0156 Q1365.3594,356.625 1365.125,356.8906 Q1364.8906,357.1563 1364.5156,357.1563 Q1364.1719,357.1563 1363.9688,356.9531 Q1363.7656,356.7656 1363.6563,356.25 Q1363.6094,355.8906 1363.4219,355.7031 Q1363.0938,355.3281 1362.4844,355.1094 Q1361.875,354.8906 1361.25,354.8906 Q1360.4844,354.8906 1359.8438,355.2188 Q1359.2188,355.5469 1358.7188,356.2969 Q1358.2344,357.0469 1358.2344,358.0781 L1358.2344,359.1719 Q1358.2344,360.4063 1359.125,361.2344 Q1360.0156,362.0469 1361.6094,362.0469 Q1362.5469,362.0469 1363.2031,361.7969 Q1363.5938,361.6406 1364.0156,361.2031 Q1364.2813,360.9375 1364.4219,360.8594 Q1364.5781,360.7813 1364.7813,360.7813 Q1365.1094,360.7813 1365.3594,361.0469 Q1365.625,361.2969 1365.625,361.6406 Q1365.625,361.9844 1365.2813,362.3906 Q1364.7813,362.9688 1363.9844,363.2969 Q1362.9063,363.75 1361.6094,363.75 Q1360.0938,363.75 1358.8906,363.125 Q1357.9063,362.625 1357.2188,361.5625 Q1356.5313,360.4844 1356.5313,359.2031 L1356.5313,358.0469 Q1356.5313,356.7188 1357.1406,355.5781 Q1357.7656,354.4219 1358.8594,353.8125 Q1359.9531,353.1875 1361.1875,353.1875 Q1361.9219,353.1875 1362.5625,353.3594 Q1363.2188,353.5156 1363.7656,353.875 Z " fill="#000000"/>
            <text fill="#000000" font-family="sans-serif" font-size="14" lengthAdjust="spacing" textLength="22" x="1375" y="363.7285">List</text>
            <line style="stroke:#181818;stroke-width:0.5;" x1="1347" x2="1399" y1="374" y2="374"/>
            <line style="stroke:#181818;stroke-width:0.5;" x1="1347" x2="1399" y1="382" y2="382"/>
        </g>
        <!--class Executors-->
        <g id="elem_Executors">
            <rect codeLine="5" fill="#F1F1F1" height="48" id="Executors" rx="2.5" ry="2.5" style="stroke:#181818;stroke-width:0.5;" width="94" x="1558" y="342"/>
            <ellipse cx="1573" cy="358" fill="#ADD1B2" rx="11" ry="11" style="stroke:#181818;stroke-width:1.0;"/>
            <path d="M1575.7656,353.875 Q1575.9219,353.6563 1576.1094,353.5469 Q1576.2969,353.4375 1576.5156,353.4375 Q1576.8906,353.4375 1577.125,353.7031 Q1577.3594,353.9531 1577.3594,354.5625 L1577.3594,356.0156 Q1577.3594,356.625 1577.125,356.8906 Q1576.8906,357.1563 1576.5156,357.1563 Q1576.1719,357.1563 1575.9688,356.9531 Q1575.7656,356.7656 1575.6563,356.25 Q1575.6094,355.8906 1575.4219,355.7031 Q1575.0938,355.3281 1574.4844,355.1094 Q1573.875,354.8906 1573.25,354.8906 Q1572.4844,354.8906 1571.8438,355.2188 Q1571.2188,355.5469 1570.7188,356.2969 Q1570.2344,357.0469 1570.2344,358.0781 L1570.2344,359.1719 Q1570.2344,360.4063 1571.125,361.2344 Q1572.0156,362.0469 1573.6094,362.0469 Q1574.5469,362.0469 1575.2031,361.7969 Q1575.5938,361.6406 1576.0156,361.2031 Q1576.2813,360.9375 1576.4219,360.8594 Q1576.5781,360.7813 1576.7813,360.7813 Q1577.1094,360.7813 1577.3594,361.0469 Q1577.625,361.2969 1577.625,361.6406 Q1577.625,361.9844 1577.2813,362.3906 Q1576.7813,362.9688 1575.9844,363.2969 Q1574.9063,363.75 1573.6094,363.75 Q1572.0938,363.75 1570.8906,363.125 Q1569.9063,362.625 1569.2188,361.5625 Q1568.5313,360.4844 1568.5313,359.2031 L1568.5313,358.0469 Q1568.5313,356.7188 1569.1406,355.5781 Q1569.7656,354.4219 1570.8594,353.8125 Q1571.9531,353.1875 1573.1875,353.1875 Q1573.9219,353.1875 1574.5625,353.3594 Q1575.2188,353.5156 1575.7656,353.875 Z " fill="#000000"/>
            <text fill="#000000" font-family="sans-serif" font-size="14" lengthAdjust="spacing" textLength="62" x="1587" y="363.7285">Executors</text>
            <line style="stroke:#181818;stroke-width:0.5;" x1="1559" x2="1651" y1="374" y2="374"/>
            <line style="stroke:#181818;stroke-width:0.5;" x1="1559" x2="1651" y1="382" y2="382"/>
        </g>
        <!--class ScheduledExecutorService-->
        <g id="elem_ScheduledExecutorService">
            <rect codeLine="6" fill="#F1F1F1" height="48" id="ScheduledExecutorService" rx="2.5" ry="2.5" style="stroke:#181818;stroke-width:0.5;" width="201" x="1687.5" y="342"/>
            <ellipse cx="1702.5" cy="358" fill="#ADD1B2" rx="11" ry="11" style="stroke:#181818;stroke-width:1.0;"/>
            <path d="M1705.2656,353.875 Q1705.4219,353.6563 1705.6094,353.5469 Q1705.7969,353.4375 1706.0156,353.4375 Q1706.3906,353.4375 1706.625,353.7031 Q1706.8594,353.9531 1706.8594,354.5625 L1706.8594,356.0156 Q1706.8594,356.625 1706.625,356.8906 Q1706.3906,357.1563 1706.0156,357.1563 Q1705.6719,357.1563 1705.4688,356.9531 Q1705.2656,356.7656 1705.1563,356.25 Q1705.1094,355.8906 1704.9219,355.7031 Q1704.5938,355.3281 1703.9844,355.1094 Q1703.375,354.8906 1702.75,354.8906 Q1701.9844,354.8906 1701.3438,355.2188 Q1700.7188,355.5469 1700.2188,356.2969 Q1699.7344,357.0469 1699.7344,358.0781 L1699.7344,359.1719 Q1699.7344,360.4063 1700.625,361.2344 Q1701.5156,362.0469 1703.1094,362.0469 Q1704.0469,362.0469 1704.7031,361.7969 Q1705.0938,361.6406 1705.5156,361.2031 Q1705.7813,360.9375 1705.9219,360.8594 Q1706.0781,360.7813 1706.2813,360.7813 Q1706.6094,360.7813 1706.8594,361.0469 Q1707.125,361.2969 1707.125,361.6406 Q1707.125,361.9844 1706.7813,362.3906 Q1706.2813,362.9688 1705.4844,363.2969 Q1704.4063,363.75 1703.1094,363.75 Q1701.5938,363.75 1700.3906,363.125 Q1699.4063,362.625 1698.7188,361.5625 Q1698.0313,360.4844 1698.0313,359.2031 L1698.0313,358.0469 Q1698.0313,356.7188 1698.6406,355.5781 Q1699.2656,354.4219 1700.3594,353.8125 Q1701.4531,353.1875 1702.6875,353.1875 Q1703.4219,353.1875 1704.0625,353.3594 Q1704.7188,353.5156 1705.2656,353.875 Z " fill="#000000"/>
            <text fill="#000000" font-family="sans-serif" font-size="14" lengthAdjust="spacing" textLength="169" x="1716.5" y="363.7285">ScheduledExecutorService</text>
            <line style="stroke:#181818;stroke-width:0.5;" x1="1688.5" x2="1887.5" y1="374" y2="374"/>
            <line style="stroke:#181818;stroke-width:0.5;" x1="1688.5" x2="1887.5" y1="382" y2="382"/>
        </g>
        <!--class TimeUnit-->
        <g id="elem_TimeUnit">
            <rect codeLine="7" fill="#F1F1F1" height="48" id="TimeUnit" rx="2.5" ry="2.5" style="stroke:#181818;stroke-width:0.5;" width="87" x="1561.5" y="470"/>
            <ellipse cx="1576.5" cy="486" fill="#ADD1B2" rx="11" ry="11" style="stroke:#181818;stroke-width:1.0;"/>
            <path d="M1579.2656,481.875 Q1579.4219,481.6563 1579.6094,481.5469 Q1579.7969,481.4375 1580.0156,481.4375 Q1580.3906,481.4375 1580.625,481.7031 Q1580.8594,481.9531 1580.8594,482.5625 L1580.8594,484.0156 Q1580.8594,484.625 1580.625,484.8906 Q1580.3906,485.1563 1580.0156,485.1563 Q1579.6719,485.1563 1579.4688,484.9531 Q1579.2656,484.7656 1579.1563,484.25 Q1579.1094,483.8906 1578.9219,483.7031 Q1578.5938,483.3281 1577.9844,483.1094 Q1577.375,482.8906 1576.75,482.8906 Q1575.9844,482.8906 1575.3438,483.2188 Q1574.7188,483.5469 1574.2188,484.2969 Q1573.7344,485.0469 1573.7344,486.0781 L1573.7344,487.1719 Q1573.7344,488.4063 1574.625,489.2344 Q1575.5156,490.0469 1577.1094,490.0469 Q1578.0469,490.0469 1578.7031,489.7969 Q1579.0938,489.6406 1579.5156,489.2031 Q1579.7813,488.9375 1579.9219,488.8594 Q1580.0781,488.7813 1580.2813,488.7813 Q1580.6094,488.7813 1580.8594,489.0469 Q1581.125,489.2969 1581.125,489.6406 Q1581.125,489.9844 1580.7813,490.3906 Q1580.2813,490.9688 1579.4844,491.2969 Q1578.4063,491.75 1577.1094,491.75 Q1575.5938,491.75 1574.3906,491.125 Q1573.4063,490.625 1572.7188,489.5625 Q1572.0313,488.4844 1572.0313,487.2031 L1572.0313,486.0469 Q1572.0313,484.7188 1572.6406,483.5781 Q1573.2656,482.4219 1574.3594,481.8125 Q1575.4531,481.1875 1576.6875,481.1875 Q1577.4219,481.1875 1578.0625,481.3594 Q1578.7188,481.5156 1579.2656,481.875 Z " fill="#000000"/>
            <text fill="#000000" font-family="sans-serif" font-size="14" lengthAdjust="spacing" textLength="55" x="1590.5" y="491.7285">TimeUnit</text>
            <line style="stroke:#181818;stroke-width:0.5;" x1="1562.5" x2="1647.5" y1="502" y2="502"/>
            <line style="stroke:#181818;stroke-width:0.5;" x1="1562.5" x2="1647.5" y1="510" y2="510"/>
        </g>
        <!--class User-->
        <g id="elem_User">
            <rect codeLine="8" fill="#F1F1F1" height="48" id="User" rx="2.5" ry="2.5" style="stroke:#181818;stroke-width:0.5;" width="61" x="1156.5" y="130"/>
            <ellipse cx="1171.5" cy="146" fill="#ADD1B2" rx="11" ry="11" style="stroke:#181818;stroke-width:1.0;"/>
            <path d="M1174.2656,141.875 Q1174.4219,141.6563 1174.6094,141.5469 Q1174.7969,141.4375 1175.0156,141.4375 Q1175.3906,141.4375 1175.625,141.7031 Q1175.8594,141.9531 1175.8594,142.5625 L1175.8594,144.0156 Q1175.8594,144.625 1175.625,144.8906 Q1175.3906,145.1563 1175.0156,145.1563 Q1174.6719,145.1563 1174.4688,144.9531 Q1174.2656,144.7656 1174.1563,144.25 Q1174.1094,143.8906 1173.9219,143.7031 Q1173.5938,143.3281 1172.9844,143.1094 Q1172.375,142.8906 1171.75,142.8906 Q1170.9844,142.8906 1170.3438,143.2188 Q1169.7188,143.5469 1169.2188,144.2969 Q1168.7344,145.0469 1168.7344,146.0781 L1168.7344,147.1719 Q1168.7344,148.4063 1169.625,149.2344 Q1170.5156,150.0469 1172.1094,150.0469 Q1173.0469,150.0469 1173.7031,149.7969 Q1174.0938,149.6406 1174.5156,149.2031 Q1174.7813,148.9375 1174.9219,148.8594 Q1175.0781,148.7813 1175.2813,148.7813 Q1175.6094,148.7813 1175.8594,149.0469 Q1176.125,149.2969 1176.125,149.6406 Q1176.125,149.9844 1175.7813,150.3906 Q1175.2813,150.9688 1174.4844,151.2969 Q1173.4063,151.75 1172.1094,151.75 Q1170.5938,151.75 1169.3906,151.125 Q1168.4063,150.625 1167.7188,149.5625 Q1167.0313,148.4844 1167.0313,147.2031 L1167.0313,146.0469 Q1167.0313,144.7188 1167.6406,143.5781 Q1168.2656,142.4219 1169.3594,141.8125 Q1170.4531,141.1875 1171.6875,141.1875 Q1172.4219,141.1875 1173.0625,141.3594 Q1173.7188,141.5156 1174.2656,141.875 Z " fill="#000000"/>
            <text fill="#000000" font-family="sans-serif" font-size="14" lengthAdjust="spacing" textLength="29" x="1185.5" y="151.7285">User</text>
            <line style="stroke:#181818;stroke-width:0.5;" x1="1157.5" x2="1216.5" y1="162" y2="162"/>
            <line style="stroke:#181818;stroke-width:0.5;" x1="1157.5" x2="1216.5" y1="170" y2="170"/>
        </g>
        <!--class AccountService-->
        <g id="elem_AccountService">
            <rect codeLine="9" fill="#F1F1F1" height="48" id="AccountService" rx="2.5" ry="2.5" style="stroke:#181818;stroke-width:0.5;" width="130" x="567" y="130"/>
            <ellipse cx="582" cy="146" fill="#ADD1B2" rx="11" ry="11" style="stroke:#181818;stroke-width:1.0;"/>
            <path d="M584.7656,141.875 Q584.9219,141.6563 585.1094,141.5469 Q585.2969,141.4375 585.5156,141.4375 Q585.8906,141.4375 586.125,141.7031 Q586.3594,141.9531 586.3594,142.5625 L586.3594,144.0156 Q586.3594,144.625 586.125,144.8906 Q585.8906,145.1563 585.5156,145.1563 Q585.1719,145.1563 584.9688,144.9531 Q584.7656,144.7656 584.6563,144.25 Q584.6094,143.8906 584.4219,143.7031 Q584.0938,143.3281 583.4844,143.1094 Q582.875,142.8906 582.25,142.8906 Q581.4844,142.8906 580.8438,143.2188 Q580.2188,143.5469 579.7188,144.2969 Q579.2344,145.0469 579.2344,146.0781 L579.2344,147.1719 Q579.2344,148.4063 580.125,149.2344 Q581.0156,150.0469 582.6094,150.0469 Q583.5469,150.0469 584.2031,149.7969 Q584.5938,149.6406 585.0156,149.2031 Q585.2813,148.9375 585.4219,148.8594 Q585.5781,148.7813 585.7813,148.7813 Q586.1094,148.7813 586.3594,149.0469 Q586.625,149.2969 586.625,149.6406 Q586.625,149.9844 586.2813,150.3906 Q585.7813,150.9688 584.9844,151.2969 Q583.9063,151.75 582.6094,151.75 Q581.0938,151.75 579.8906,151.125 Q578.9063,150.625 578.2188,149.5625 Q577.5313,148.4844 577.5313,147.2031 L577.5313,146.0469 Q577.5313,144.7188 578.1406,143.5781 Q578.7656,142.4219 579.8594,141.8125 Q580.9531,141.1875 582.1875,141.1875 Q582.9219,141.1875 583.5625,141.3594 Q584.2188,141.5156 584.7656,141.875 Z " fill="#000000"/>
            <text fill="#000000" font-family="sans-serif" font-size="14" lengthAdjust="spacing" textLength="98" x="596" y="151.7285">AccountService</text>
            <line style="stroke:#181818;stroke-width:0.5;" x1="568" x2="696" y1="162" y2="162"/>
            <line style="stroke:#181818;stroke-width:0.5;" x1="568" x2="696" y1="170" y2="170"/>
        </g>
        <!--class AccountServiceException-->
        <g id="elem_AccountServiceException">
            <rect codeLine="10" fill="#F1F1F1" height="48" id="AccountServiceException" rx="2.5" ry="2.5" style="stroke:#181818;stroke-width:0.5;" width="191" x="732.5" y="130"/>
            <ellipse cx="747.5" cy="146" fill="#ADD1B2" rx="11" ry="11" style="stroke:#181818;stroke-width:1.0;"/>
            <path d="M750.2656,141.875 Q750.4219,141.6563 750.6094,141.5469 Q750.7969,141.4375 751.0156,141.4375 Q751.3906,141.4375 751.625,141.7031 Q751.8594,141.9531 751.8594,142.5625 L751.8594,144.0156 Q751.8594,144.625 751.625,144.8906 Q751.3906,145.1563 751.0156,145.1563 Q750.6719,145.1563 750.4688,144.9531 Q750.2656,144.7656 750.1563,144.25 Q750.1094,143.8906 749.9219,143.7031 Q749.5938,143.3281 748.9844,143.1094 Q748.375,142.8906 747.75,142.8906 Q746.9844,142.8906 746.3438,143.2188 Q745.7188,143.5469 745.2188,144.2969 Q744.7344,145.0469 744.7344,146.0781 L744.7344,147.1719 Q744.7344,148.4063 745.625,149.2344 Q746.5156,150.0469 748.1094,150.0469 Q749.0469,150.0469 749.7031,149.7969 Q750.0938,149.6406 750.5156,149.2031 Q750.7813,148.9375 750.9219,148.8594 Q751.0781,148.7813 751.2813,148.7813 Q751.6094,148.7813 751.8594,149.0469 Q752.125,149.2969 752.125,149.6406 Q752.125,149.9844 751.7813,150.3906 Q751.2813,150.9688 750.4844,151.2969 Q749.4063,151.75 748.1094,151.75 Q746.5938,151.75 745.3906,151.125 Q744.4063,150.625 743.7188,149.5625 Q743.0313,148.4844 743.0313,147.2031 L743.0313,146.0469 Q743.0313,144.7188 743.6406,143.5781 Q744.2656,142.4219 745.3594,141.8125 Q746.4531,141.1875 747.6875,141.1875 Q748.4219,141.1875 749.0625,141.3594 Q749.7188,141.5156 750.2656,141.875 Z " fill="#000000"/>
            <text fill="#000000" font-family="sans-serif" font-size="14" lengthAdjust="spacing" textLength="159" x="761.5" y="151.7285">AccountServiceException</text>
            <line style="stroke:#181818;stroke-width:0.5;" x1="733.5" x2="922.5" y1="162" y2="162"/>
            <line style="stroke:#181818;stroke-width:0.5;" x1="733.5" x2="922.5" y1="170" y2="170"/>
        </g>
        <!--class ExchangeService-->
        <g id="elem_ExchangeService">
            <rect codeLine="11" fill="#F1F1F1" height="48" id="ExchangeService" rx="2.5" ry="2.5" style="stroke:#181818;stroke-width:0.5;" width="141" x="958.5" y="130"/>
            <ellipse cx="973.5" cy="146" fill="#ADD1B2" rx="11" ry="11" style="stroke:#181818;stroke-width:1.0;"/>
            <path d="M976.2656,141.875 Q976.4219,141.6563 976.6094,141.5469 Q976.7969,141.4375 977.0156,141.4375 Q977.3906,141.4375 977.625,141.7031 Q977.8594,141.9531 977.8594,142.5625 L977.8594,144.0156 Q977.8594,144.625 977.625,144.8906 Q977.3906,145.1563 977.0156,145.1563 Q976.6719,145.1563 976.4688,144.9531 Q976.2656,144.7656 976.1563,144.25 Q976.1094,143.8906 975.9219,143.7031 Q975.5938,143.3281 974.9844,143.1094 Q974.375,142.8906 973.75,142.8906 Q972.9844,142.8906 972.3438,143.2188 Q971.7188,143.5469 971.2188,144.2969 Q970.7344,145.0469 970.7344,146.0781 L970.7344,147.1719 Q970.7344,148.4063 971.625,149.2344 Q972.5156,150.0469 974.1094,150.0469 Q975.0469,150.0469 975.7031,149.7969 Q976.0938,149.6406 976.5156,149.2031 Q976.7813,148.9375 976.9219,148.8594 Q977.0781,148.7813 977.2813,148.7813 Q977.6094,148.7813 977.8594,149.0469 Q978.125,149.2969 978.125,149.6406 Q978.125,149.9844 977.7813,150.3906 Q977.2813,150.9688 976.4844,151.2969 Q975.4063,151.75 974.1094,151.75 Q972.5938,151.75 971.3906,151.125 Q970.4063,150.625 969.7188,149.5625 Q969.0313,148.4844 969.0313,147.2031 L969.0313,146.0469 Q969.0313,144.7188 969.6406,143.5781 Q970.2656,142.4219 971.3594,141.8125 Q972.4531,141.1875 973.6875,141.1875 Q974.4219,141.1875 975.0625,141.3594 Q975.7188,141.5156 976.2656,141.875 Z " fill="#000000"/>
            <text fill="#000000" font-family="sans-serif" font-size="14" lengthAdjust="spacing" textLength="109" x="987.5" y="151.7285">ExchangeService</text>
            <line style="stroke:#181818;stroke-width:0.5;" x1="959.5" x2="1098.5" y1="162" y2="162"/>
            <line style="stroke:#181818;stroke-width:0.5;" x1="959.5" x2="1098.5" y1="170" y2="170"/>
        </g>
        <!--class TradingService-->
        <g id="elem_TradingService">
            <rect codeLine="12" fill="#F1F1F1" height="48" id="TradingService" rx="2.5" ry="2.5" style="stroke:#181818;stroke-width:0.5;" width="128" x="568" y="342"/>
            <ellipse cx="583" cy="358" fill="#ADD1B2" rx="11" ry="11" style="stroke:#181818;stroke-width:1.0;"/>
            <path d="M585.7656,353.875 Q585.9219,353.6563 586.1094,353.5469 Q586.2969,353.4375 586.5156,353.4375 Q586.8906,353.4375 587.125,353.7031 Q587.3594,353.9531 587.3594,354.5625 L587.3594,356.0156 Q587.3594,356.625 587.125,356.8906 Q586.8906,357.1563 586.5156,357.1563 Q586.1719,357.1563 585.9688,356.9531 Q585.7656,356.7656 585.6563,356.25 Q585.6094,355.8906 585.4219,355.7031 Q585.0938,355.3281 584.4844,355.1094 Q583.875,354.8906 583.25,354.8906 Q582.4844,354.8906 581.8438,355.2188 Q581.2188,355.5469 580.7188,356.2969 Q580.2344,357.0469 580.2344,358.0781 L580.2344,359.1719 Q580.2344,360.4063 581.125,361.2344 Q582.0156,362.0469 583.6094,362.0469 Q584.5469,362.0469 585.2031,361.7969 Q585.5938,361.6406 586.0156,361.2031 Q586.2813,360.9375 586.4219,360.8594 Q586.5781,360.7813 586.7813,360.7813 Q587.1094,360.7813 587.3594,361.0469 Q587.625,361.2969 587.625,361.6406 Q587.625,361.9844 587.2813,362.3906 Q586.7813,362.9688 585.9844,363.2969 Q584.9063,363.75 583.6094,363.75 Q582.0938,363.75 580.8906,363.125 Q579.9063,362.625 579.2188,361.5625 Q578.5313,360.4844 578.5313,359.2031 L578.5313,358.0469 Q578.5313,356.7188 579.1406,355.5781 Q579.7656,354.4219 580.8594,353.8125 Q581.9531,353.1875 583.1875,353.1875 Q583.9219,353.1875 584.5625,353.3594 Q585.2188,353.5156 585.7656,353.875 Z " fill="#000000"/>
            <text fill="#000000" font-family="sans-serif" font-size="14" lengthAdjust="spacing" textLength="96" x="597" y="363.7285">TradingService</text>
            <line style="stroke:#181818;stroke-width:0.5;" x1="569" x2="695" y1="374" y2="374"/>
            <line style="stroke:#181818;stroke-width:0.5;" x1="569" x2="695" y1="382" y2="382"/>
        </g>
        <!--class ExchangeServiceSubscriber-->
        <g id="elem_ExchangeServiceSubscriber">
            <rect codeLine="13" fill="#F1F1F1" height="48" id="ExchangeServiceSubscriber" rx="2.5" ry="2.5" style="stroke:#181818;stroke-width:0.5;" width="209" x="301.5" y="130"/>
            <ellipse cx="316.5" cy="146" fill="#ADD1B2" rx="11" ry="11" style="stroke:#181818;stroke-width:1.0;"/>
            <path d="M319.2656,141.875 Q319.4219,141.6563 319.6094,141.5469 Q319.7969,141.4375 320.0156,141.4375 Q320.3906,141.4375 320.625,141.7031 Q320.8594,141.9531 320.8594,142.5625 L320.8594,144.0156 Q320.8594,144.625 320.625,144.8906 Q320.3906,145.1563 320.0156,145.1563 Q319.6719,145.1563 319.4688,144.9531 Q319.2656,144.7656 319.1563,144.25 Q319.1094,143.8906 318.9219,143.7031 Q318.5938,143.3281 317.9844,143.1094 Q317.375,142.8906 316.75,142.8906 Q315.9844,142.8906 315.3438,143.2188 Q314.7188,143.5469 314.2188,144.2969 Q313.7344,145.0469 313.7344,146.0781 L313.7344,147.1719 Q313.7344,148.4063 314.625,149.2344 Q315.5156,150.0469 317.1094,150.0469 Q318.0469,150.0469 318.7031,149.7969 Q319.0938,149.6406 319.5156,149.2031 Q319.7813,148.9375 319.9219,148.8594 Q320.0781,148.7813 320.2813,148.7813 Q320.6094,148.7813 320.8594,149.0469 Q321.125,149.2969 321.125,149.6406 Q321.125,149.9844 320.7813,150.3906 Q320.2813,150.9688 319.4844,151.2969 Q318.4063,151.75 317.1094,151.75 Q315.5938,151.75 314.3906,151.125 Q313.4063,150.625 312.7188,149.5625 Q312.0313,148.4844 312.0313,147.2031 L312.0313,146.0469 Q312.0313,144.7188 312.6406,143.5781 Q313.2656,142.4219 314.3594,141.8125 Q315.4531,141.1875 316.6875,141.1875 Q317.4219,141.1875 318.0625,141.3594 Q318.7188,141.5156 319.2656,141.875 Z " fill="#000000"/>
            <text fill="#000000" font-family="sans-serif" font-size="14" lengthAdjust="spacing" textLength="177" x="330.5" y="151.7285">ExchangeServiceSubscriber</text>
            <line style="stroke:#181818;stroke-width:0.5;" x1="302.5" x2="509.5" y1="162" y2="162"/>
            <line style="stroke:#181818;stroke-width:0.5;" x1="302.5" x2="509.5" y1="170" y2="170"/>
        </g>
        <!--class TradingServiceSubscriber-->
        <g id="elem_TradingServiceSubscriber">
            <rect codeLine="14" fill="#F1F1F1" height="48" id="TradingServiceSubscriber" rx="2.5" ry="2.5" style="stroke:#181818;stroke-width:0.5;" width="196" x="70" y="130"/>
            <ellipse cx="85" cy="146" fill="#ADD1B2" rx="11" ry="11" style="stroke:#181818;stroke-width:1.0;"/>
            <path d="M87.7656,141.875 Q87.9219,141.6563 88.1094,141.5469 Q88.2969,141.4375 88.5156,141.4375 Q88.8906,141.4375 89.125,141.7031 Q89.3594,141.9531 89.3594,142.5625 L89.3594,144.0156 Q89.3594,144.625 89.125,144.8906 Q88.8906,145.1563 88.5156,145.1563 Q88.1719,145.1563 87.9688,144.9531 Q87.7656,144.7656 87.6563,144.25 Q87.6094,143.8906 87.4219,143.7031 Q87.0938,143.3281 86.4844,143.1094 Q85.875,142.8906 85.25,142.8906 Q84.4844,142.8906 83.8438,143.2188 Q83.2188,143.5469 82.7188,144.2969 Q82.2344,145.0469 82.2344,146.0781 L82.2344,147.1719 Q82.2344,148.4063 83.125,149.2344 Q84.0156,150.0469 85.6094,150.0469 Q86.5469,150.0469 87.2031,149.7969 Q87.5938,149.6406 88.0156,149.2031 Q88.2813,148.9375 88.4219,148.8594 Q88.5781,148.7813 88.7813,148.7813 Q89.1094,148.7813 89.3594,149.0469 Q89.625,149.2969 89.625,149.6406 Q89.625,149.9844 89.2813,150.3906 Q88.7813,150.9688 87.9844,151.2969 Q86.9063,151.75 85.6094,151.75 Q84.0938,151.75 82.8906,151.125 Q81.9063,150.625 81.2188,149.5625 Q80.5313,148.4844 80.5313,147.2031 L80.5313,146.0469 Q80.5313,144.7188 81.1406,143.5781 Q81.7656,142.4219 82.8594,141.8125 Q83.9531,141.1875 85.1875,141.1875 Q85.9219,141.1875 86.5625,141.3594 Q87.2188,141.5156 87.7656,141.875 Z " fill="#000000"/>
            <text fill="#000000" font-family="sans-serif" font-size="14" lengthAdjust="spacing" textLength="164" x="99" y="151.7285">TradingServiceSubscriber</text>
            <line style="stroke:#181818;stroke-width:0.5;" x1="71" x2="265" y1="162" y2="162"/>
            <line style="stroke:#181818;stroke-width:0.5;" x1="71" x2="265" y1="170" y2="170"/>
        </g>
        <!--link AccountServiceException to Exception-->
        <g id="link_AccountServiceException_Exception">
            <path codeLine="15" d="M872.36,178.12 C892.7,187.48 917.47,197.2 941,202 C967.24,207.35 1881.23,197.66 1905,210 C1959.05,238.06 1985.9427,289.1968 2000.6127,325.1068 " fill="none" id="AccountServiceException-to-Exception" style="stroke:#181818;stroke-width:1.0;"/>
            <polygon fill="none" points="2007.42,341.77,2006.1671,322.8377,1995.0584,327.3759,2007.42,341.77" style="stroke:#181818;stroke-width:1.0;"/>
        </g>
        <!--SRC=[bP9D2i9038Ntdi8BE4SG5Dsvgpr0cWbjP7vACbCLFBo58luDHRTvttkFXA03rUK91Z0EGcls5wG-SGmBV2eUKcUstEu8sODxbN9YPpOYS3smfY-bECGOC8jGI6CTOKvHT0wgi2ER7Ta7NP4CZ3JdERAdEl2ZF4fhcXWJWk-DZvQScbf9Ih9EwMesY367zDxs2_fvnB9dfBhnvFHB_b70ScXdq87f_9LPvKPHk2alEbdUerySVsswNArkwz8VtG40]-->
    </g>
</svg>
