<?xml version="1.0" encoding="UTF-8"?><svg xmlns="http://www.w3.org/2000/svg" xmlns:xlink="http://www.w3.org/1999/xlink" contentStyleType="text/css" height="357px" preserveAspectRatio="none" style="width:1577px;height:357px;background:#FFFFFF;" version="1.1" viewBox="0 0 1577 357" width="1577px" zoomAndPan="magnify">
    <defs/>
    <g>
        <!--cluster org-->
        <g id="cluster_org">
            <path d="M8.5,6 L33.5,6 A3.75,3.75 0 0 1 36,8.5 L43,29.6094 L1032.5,29.6094 A2.5,2.5 0 0 1 1035,32.1094 L1035,347.5 A2.5,2.5 0 0 1 1032.5,350 L8.5,350 A2.5,2.5 0 0 1 6,347.5 L6,8.5 A2.5,2.5 0 0 1 8.5,6 " fill="none" style="stroke:#000000;stroke-width:1.5;"/>
            <line style="stroke:#000000;stroke-width:1.5;" x1="6" x2="43" y1="29.6094" y2="29.6094"/>
            <text fill="#000000" font-family="sans-serif" font-size="14" font-weight="bold" lengthAdjust="spacing" textLength="24" x="10" y="22.5332">org</text>
        </g>
        <!--cluster bootcamp-->
        <g id="cluster_bootcamp">
            <path d="M32.5,50 L102.5,50 A3.75,3.75 0 0 1 105,52.5 L112,73.6094 L1008.5,73.6094 A2.5,2.5 0 0 1 1011,76.1094 L1011,323.5 A2.5,2.5 0 0 1 1008.5,326 L32.5,326 A2.5,2.5 0 0 1 30,323.5 L30,52.5 A2.5,2.5 0 0 1 32.5,50 " fill="none" style="stroke:#000000;stroke-width:1.5;"/>
            <line style="stroke:#000000;stroke-width:1.5;" x1="30" x2="112" y1="73.6094" y2="73.6094"/>
            <text fill="#000000" font-family="sans-serif" font-size="14" font-weight="bold" lengthAdjust="spacing" textLength="69" x="34" y="66.5332">bootcamp</text>
        </g>
        <!--cluster views-->
        <g id="cluster_views">
            <path d="M391.5,94 L433.5,94 A3.75,3.75 0 0 1 436,96.5 L443,117.6094 L984.5,117.6094 A2.5,2.5 0 0 1 987,120.1094 L987,299.5 A2.5,2.5 0 0 1 984.5,302 L391.5,302 A2.5,2.5 0 0 1 389,299.5 L389,96.5 A2.5,2.5 0 0 1 391.5,94 " fill="none" style="stroke:#000000;stroke-width:1.5;"/>
            <line style="stroke:#000000;stroke-width:1.5;" x1="389" x2="443" y1="117.6094" y2="117.6094"/>
            <text fill="#000000" font-family="sans-serif" font-size="14" font-weight="bold" lengthAdjust="spacing" textLength="41" x="393" y="110.5332">views</text>
        </g>
        <!--cluster models-->
        <g id="cluster_models">
            <path d="M56.5,94 L108.5,94 A3.75,3.75 0 0 1 111,96.5 L118,117.6094 L362.5,117.6094 A2.5,2.5 0 0 1 365,120.1094 L365,299.5 A2.5,2.5 0 0 1 362.5,302 L56.5,302 A2.5,2.5 0 0 1 54,299.5 L54,96.5 A2.5,2.5 0 0 1 56.5,94 " fill="none" style="stroke:#000000;stroke-width:1.5;"/>
            <line style="stroke:#000000;stroke-width:1.5;" x1="54" x2="118" y1="117.6094" y2="117.6094"/>
            <text fill="#000000" font-family="sans-serif" font-size="14" font-weight="bold" lengthAdjust="spacing" textLength="51" x="58" y="110.5332">models</text>
        </g>
        <!--cluster java-->
        <g id="cluster_java">
            <path d="M1061.5,50 L1091.5,50 A3.75,3.75 0 0 1 1094,52.5 L1101,73.6094 L1567.5,73.6094 A2.5,2.5 0 0 1 1570,76.1094 L1570,323.5 A2.5,2.5 0 0 1 1567.5,326 L1061.5,326 A2.5,2.5 0 0 1 1059,323.5 L1059,52.5 A2.5,2.5 0 0 1 1061.5,50 " fill="none" style="stroke:#000000;stroke-width:1.5;"/>
            <line style="stroke:#000000;stroke-width:1.5;" x1="1059" x2="1101" y1="73.6094" y2="73.6094"/>
            <text fill="#000000" font-family="sans-serif" font-size="14" font-weight="bold" lengthAdjust="spacing" textLength="29" x="1063" y="66.5332">java</text>
        </g>
        <!--cluster math-->
        <g id="cluster_math">
            <path d="M1414.5,94 L1449.5,94 A3.75,3.75 0 0 1 1452,96.5 L1459,117.6094 L1543.5,117.6094 A2.5,2.5 0 0 1 1546,120.1094 L1546,191.5 A2.5,2.5 0 0 1 1543.5,194 L1414.5,194 A2.5,2.5 0 0 1 1412,191.5 L1412,96.5 A2.5,2.5 0 0 1 1414.5,94 " fill="none" style="stroke:#000000;stroke-width:1.5;"/>
            <line style="stroke:#000000;stroke-width:1.5;" x1="1412" x2="1459" y1="117.6094" y2="117.6094"/>
            <text fill="#000000" font-family="sans-serif" font-size="14" font-weight="bold" lengthAdjust="spacing" textLength="34" x="1416" y="110.5332">math</text>
        </g>
        <!--cluster util-->
        <g id="cluster_util">
            <path d="M1085.5,94 L1108.5,94 A3.75,3.75 0 0 1 1111,96.5 L1118,117.6094 L1385.5,117.6094 A2.5,2.5 0 0 1 1388,120.1094 L1388,299.5 A2.5,2.5 0 0 1 1385.5,302 L1085.5,302 A2.5,2.5 0 0 1 1083,299.5 L1083,96.5 A2.5,2.5 0 0 1 1085.5,94 " fill="none" style="stroke:#000000;stroke-width:1.5;"/>
            <line style="stroke:#000000;stroke-width:1.5;" x1="1083" x2="1118" y1="117.6094" y2="117.6094"/>
            <text fill="#000000" font-family="sans-serif" font-size="14" font-weight="bold" lengthAdjust="spacing" textLength="22" x="1087" y="110.5332">util</text>
        </g>
        <!--class View-->
        <g id="elem_View">
            <rect codeLine="1" fill="#F1F1F1" height="48" id="View" rx="2.5" ry="2.5" style="stroke:#181818;stroke-width:0.5;" width="61" x="420.5" y="130"/>
            <ellipse cx="435.5" cy="146" fill="#A9DCDF" rx="11" ry="11" style="stroke:#181818;stroke-width:1.0;"/>
            <path d="M437.6875,147.7656 L433.5469,147.7656 L433.125,148.7969 L433.5469,148.7969 Q434.1563,148.7969 434.4219,149.0313 Q434.6875,149.2656 434.6875,149.6563 Q434.6875,150.0313 434.4219,150.2656 Q434.1563,150.5 433.5469,150.5 L431.25,150.5 Q430.6406,150.5 430.3906,150.2656 Q430.125,150.0313 430.125,149.6406 Q430.125,149.2656 430.4063,149.0313 Q430.6719,148.7813 431.2969,148.7969 L433.9688,142.1406 L432.8594,142.1406 Q432.25,142.1406 431.9844,141.9063 Q431.7188,141.6719 431.7188,141.2813 Q431.7188,140.9063 431.9844,140.6719 Q432.25,140.4375 432.8594,140.4375 L436.5313,140.4375 L439.9219,148.7969 Q440.5156,148.7969 440.7031,148.9375 Q441.0938,149.2031 441.0938,149.6563 Q441.0938,150.0313 440.8281,150.2656 Q440.5781,150.5 439.9688,150.5 L437.6719,150.5 Q437.0625,150.5 436.7969,150.2656 Q436.5313,150.0313 436.5313,149.6406 Q436.5313,149.2656 436.7969,149.0313 Q437.0625,148.7969 437.6719,148.7969 L438.0938,148.7969 L437.6875,147.7656 Z M436.9688,146.0625 L435.6094,142.6875 L434.2344,146.0625 L436.9688,146.0625 Z " fill="#000000"/>
            <text fill="#000000" font-family="sans-serif" font-size="14" font-style="italic" lengthAdjust="spacing" textLength="29" x="449.5" y="151.7285">View</text>
            <line style="stroke:#181818;stroke-width:0.5;" x1="421.5" x2="480.5" y1="162" y2="162"/>
            <line style="stroke:#181818;stroke-width:0.5;" x1="421.5" x2="480.5" y1="170" y2="170"/>
        </g>
        <!--class HomeView-->
        <g id="elem_HomeView">
            <rect codeLine="9" fill="#F1F1F1" height="48" id="HomeView" rx="2.5" ry="2.5" style="stroke:#181818;stroke-width:0.5;" width="97" x="516.5" y="130"/>
            <ellipse cx="531.5" cy="146" fill="#ADD1B2" rx="11" ry="11" style="stroke:#181818;stroke-width:1.0;"/>
            <path d="M534.2656,141.875 Q534.4219,141.6563 534.6094,141.5469 Q534.7969,141.4375 535.0156,141.4375 Q535.3906,141.4375 535.625,141.7031 Q535.8594,141.9531 535.8594,142.5625 L535.8594,144.0156 Q535.8594,144.625 535.625,144.8906 Q535.3906,145.1563 535.0156,145.1563 Q534.6719,145.1563 534.4688,144.9531 Q534.2656,144.7656 534.1563,144.25 Q534.1094,143.8906 533.9219,143.7031 Q533.5938,143.3281 532.9844,143.1094 Q532.375,142.8906 531.75,142.8906 Q530.9844,142.8906 530.3438,143.2188 Q529.7188,143.5469 529.2188,144.2969 Q528.7344,145.0469 528.7344,146.0781 L528.7344,147.1719 Q528.7344,148.4063 529.625,149.2344 Q530.5156,150.0469 532.1094,150.0469 Q533.0469,150.0469 533.7031,149.7969 Q534.0938,149.6406 534.5156,149.2031 Q534.7813,148.9375 534.9219,148.8594 Q535.0781,148.7813 535.2813,148.7813 Q535.6094,148.7813 535.8594,149.0469 Q536.125,149.2969 536.125,149.6406 Q536.125,149.9844 535.7813,150.3906 Q535.2813,150.9688 534.4844,151.2969 Q533.4063,151.75 532.1094,151.75 Q530.5938,151.75 529.3906,151.125 Q528.4063,150.625 527.7188,149.5625 Q527.0313,148.4844 527.0313,147.2031 L527.0313,146.0469 Q527.0313,144.7188 527.6406,143.5781 Q528.2656,142.4219 529.3594,141.8125 Q530.4531,141.1875 531.6875,141.1875 Q532.4219,141.1875 533.0625,141.3594 Q533.7188,141.5156 534.2656,141.875 Z " fill="#000000"/>
            <text fill="#000000" font-family="sans-serif" font-size="14" lengthAdjust="spacing" textLength="65" x="545.5" y="151.7285">HomeView</text>
            <line style="stroke:#181818;stroke-width:0.5;" x1="517.5" x2="612.5" y1="162" y2="162"/>
            <line style="stroke:#181818;stroke-width:0.5;" x1="517.5" x2="612.5" y1="170" y2="170"/>
        </g>
        <!--class MarketView-->
        <g id="elem_MarketView">
            <rect codeLine="10" fill="#F1F1F1" height="48" id="MarketView" rx="2.5" ry="2.5" style="stroke:#181818;stroke-width:0.5;" width="104" x="649" y="130"/>
            <ellipse cx="664" cy="146" fill="#ADD1B2" rx="11" ry="11" style="stroke:#181818;stroke-width:1.0;"/>
            <path d="M666.7656,141.875 Q666.9219,141.6563 667.1094,141.5469 Q667.2969,141.4375 667.5156,141.4375 Q667.8906,141.4375 668.125,141.7031 Q668.3594,141.9531 668.3594,142.5625 L668.3594,144.0156 Q668.3594,144.625 668.125,144.8906 Q667.8906,145.1563 667.5156,145.1563 Q667.1719,145.1563 666.9688,144.9531 Q666.7656,144.7656 666.6563,144.25 Q666.6094,143.8906 666.4219,143.7031 Q666.0938,143.3281 665.4844,143.1094 Q664.875,142.8906 664.25,142.8906 Q663.4844,142.8906 662.8438,143.2188 Q662.2188,143.5469 661.7188,144.2969 Q661.2344,145.0469 661.2344,146.0781 L661.2344,147.1719 Q661.2344,148.4063 662.125,149.2344 Q663.0156,150.0469 664.6094,150.0469 Q665.5469,150.0469 666.2031,149.7969 Q666.5938,149.6406 667.0156,149.2031 Q667.2813,148.9375 667.4219,148.8594 Q667.5781,148.7813 667.7813,148.7813 Q668.1094,148.7813 668.3594,149.0469 Q668.625,149.2969 668.625,149.6406 Q668.625,149.9844 668.2813,150.3906 Q667.7813,150.9688 666.9844,151.2969 Q665.9063,151.75 664.6094,151.75 Q663.0938,151.75 661.8906,151.125 Q660.9063,150.625 660.2188,149.5625 Q659.5313,148.4844 659.5313,147.2031 L659.5313,146.0469 Q659.5313,144.7188 660.1406,143.5781 Q660.7656,142.4219 661.8594,141.8125 Q662.9531,141.1875 664.1875,141.1875 Q664.9219,141.1875 665.5625,141.3594 Q666.2188,141.5156 666.7656,141.875 Z " fill="#000000"/>
            <text fill="#000000" font-family="sans-serif" font-size="14" lengthAdjust="spacing" textLength="72" x="678" y="151.7285">MarketView</text>
            <line style="stroke:#181818;stroke-width:0.5;" x1="650" x2="752" y1="162" y2="162"/>
            <line style="stroke:#181818;stroke-width:0.5;" x1="650" x2="752" y1="170" y2="170"/>
        </g>
        <!--class RootView-->
        <g id="elem_RootView">
            <rect codeLine="11" fill="#F1F1F1" height="48" id="RootView" rx="2.5" ry="2.5" style="stroke:#181818;stroke-width:0.5;" width="91" x="405.5" y="238"/>
            <ellipse cx="420.5" cy="254" fill="#ADD1B2" rx="11" ry="11" style="stroke:#181818;stroke-width:1.0;"/>
            <path d="M423.2656,249.875 Q423.4219,249.6563 423.6094,249.5469 Q423.7969,249.4375 424.0156,249.4375 Q424.3906,249.4375 424.625,249.7031 Q424.8594,249.9531 424.8594,250.5625 L424.8594,252.0156 Q424.8594,252.625 424.625,252.8906 Q424.3906,253.1563 424.0156,253.1563 Q423.6719,253.1563 423.4688,252.9531 Q423.2656,252.7656 423.1563,252.25 Q423.1094,251.8906 422.9219,251.7031 Q422.5938,251.3281 421.9844,251.1094 Q421.375,250.8906 420.75,250.8906 Q419.9844,250.8906 419.3438,251.2188 Q418.7188,251.5469 418.2188,252.2969 Q417.7344,253.0469 417.7344,254.0781 L417.7344,255.1719 Q417.7344,256.4063 418.625,257.2344 Q419.5156,258.0469 421.1094,258.0469 Q422.0469,258.0469 422.7031,257.7969 Q423.0938,257.6406 423.5156,257.2031 Q423.7813,256.9375 423.9219,256.8594 Q424.0781,256.7813 424.2813,256.7813 Q424.6094,256.7813 424.8594,257.0469 Q425.125,257.2969 425.125,257.6406 Q425.125,257.9844 424.7813,258.3906 Q424.2813,258.9688 423.4844,259.2969 Q422.4063,259.75 421.1094,259.75 Q419.5938,259.75 418.3906,259.125 Q417.4063,258.625 416.7188,257.5625 Q416.0313,256.4844 416.0313,255.2031 L416.0313,254.0469 Q416.0313,252.7188 416.6406,251.5781 Q417.2656,250.4219 418.3594,249.8125 Q419.4531,249.1875 420.6875,249.1875 Q421.4219,249.1875 422.0625,249.3594 Q422.7188,249.5156 423.2656,249.875 Z " fill="#000000"/>
            <text fill="#000000" font-family="sans-serif" font-size="14" lengthAdjust="spacing" textLength="59" x="434.5" y="259.7285">RootView</text>
            <line style="stroke:#181818;stroke-width:0.5;" x1="406.5" x2="495.5" y1="270" y2="270"/>
            <line style="stroke:#181818;stroke-width:0.5;" x1="406.5" x2="495.5" y1="278" y2="278"/>
        </g>
        <!--class ExchangeServiceSubscriber-->
        <g id="elem_ExchangeServiceSubscriber">
            <rect codeLine="12" fill="#F1F1F1" height="48" id="ExchangeServiceSubscriber" rx="2.5" ry="2.5" style="stroke:#181818;stroke-width:0.5;" width="208" x="532" y="238"/>
            <ellipse cx="547" cy="254" fill="#B4A7E5" rx="11" ry="11" style="stroke:#181818;stroke-width:1.0;"/>
            <path d="M547.9531,250.6406 L547.9531,257.2969 L549.6719,257.2969 Q550.2813,257.2969 550.5469,257.5313 Q550.8125,257.7656 550.8125,258.1563 Q550.8125,258.5313 550.5469,258.7656 Q550.2813,259 549.6719,259 L544.5313,259 Q543.9219,259 543.6563,258.7656 Q543.3906,258.5313 543.3906,258.1406 Q543.3906,257.7656 543.6563,257.5313 Q543.9219,257.2969 544.5313,257.2969 L546.25,257.2969 L546.25,250.6406 L544.5313,250.6406 Q543.9219,250.6406 543.6563,250.4063 Q543.3906,250.1719 543.3906,249.7813 Q543.3906,249.4063 543.6563,249.1719 Q543.9219,248.9375 544.5313,248.9375 L549.6719,248.9375 Q550.2813,248.9375 550.5469,249.1719 Q550.8125,249.4063 550.8125,249.7813 Q550.8125,250.1719 550.5469,250.4063 Q550.2813,250.6406 549.6719,250.6406 L547.9531,250.6406 Z " fill="#000000"/>
            <text fill="#000000" font-family="sans-serif" font-size="14" font-style="italic" lengthAdjust="spacing" textLength="176" x="561" y="259.7285">ExchangeServiceSubscriber</text>
            <line style="stroke:#181818;stroke-width:0.5;" x1="533" x2="739" y1="270" y2="270"/>
            <line style="stroke:#181818;stroke-width:0.5;" x1="533" x2="739" y1="278" y2="278"/>
        </g>
        <!--class TradingServiceSubscriber-->
        <g id="elem_TradingServiceSubscriber">
            <rect codeLine="13" fill="#F1F1F1" height="48" id="TradingServiceSubscriber" rx="2.5" ry="2.5" style="stroke:#181818;stroke-width:0.5;" width="195" x="775.5" y="238"/>
            <ellipse cx="790.5" cy="254" fill="#B4A7E5" rx="11" ry="11" style="stroke:#181818;stroke-width:1.0;"/>
            <path d="M791.4531,250.6406 L791.4531,257.2969 L793.1719,257.2969 Q793.7813,257.2969 794.0469,257.5313 Q794.3125,257.7656 794.3125,258.1563 Q794.3125,258.5313 794.0469,258.7656 Q793.7813,259 793.1719,259 L788.0313,259 Q787.4219,259 787.1563,258.7656 Q786.8906,258.5313 786.8906,258.1406 Q786.8906,257.7656 787.1563,257.5313 Q787.4219,257.2969 788.0313,257.2969 L789.75,257.2969 L789.75,250.6406 L788.0313,250.6406 Q787.4219,250.6406 787.1563,250.4063 Q786.8906,250.1719 786.8906,249.7813 Q786.8906,249.4063 787.1563,249.1719 Q787.4219,248.9375 788.0313,248.9375 L793.1719,248.9375 Q793.7813,248.9375 794.0469,249.1719 Q794.3125,249.4063 794.3125,249.7813 Q794.3125,250.1719 794.0469,250.4063 Q793.7813,250.6406 793.1719,250.6406 L791.4531,250.6406 Z " fill="#000000"/>
            <text fill="#000000" font-family="sans-serif" font-size="14" font-style="italic" lengthAdjust="spacing" textLength="163" x="804.5" y="259.7285">TradingServiceSubscriber</text>
            <line style="stroke:#181818;stroke-width:0.5;" x1="776.5" x2="969.5" y1="270" y2="270"/>
            <line style="stroke:#181818;stroke-width:0.5;" x1="776.5" x2="969.5" y1="278" y2="278"/>
        </g>
        <!--class CryptoCurrency-->
        <g id="elem_CryptoCurrency">
            <rect codeLine="6" fill="#F1F1F1" height="48" id="CryptoCurrency" rx="2.5" ry="2.5" style="stroke:#181818;stroke-width:0.5;" width="132" x="70" y="130"/>
            <ellipse cx="85" cy="146" fill="#ADD1B2" rx="11" ry="11" style="stroke:#181818;stroke-width:1.0;"/>
            <path d="M87.7656,141.875 Q87.9219,141.6563 88.1094,141.5469 Q88.2969,141.4375 88.5156,141.4375 Q88.8906,141.4375 89.125,141.7031 Q89.3594,141.9531 89.3594,142.5625 L89.3594,144.0156 Q89.3594,144.625 89.125,144.8906 Q88.8906,145.1563 88.5156,145.1563 Q88.1719,145.1563 87.9688,144.9531 Q87.7656,144.7656 87.6563,144.25 Q87.6094,143.8906 87.4219,143.7031 Q87.0938,143.3281 86.4844,143.1094 Q85.875,142.8906 85.25,142.8906 Q84.4844,142.8906 83.8438,143.2188 Q83.2188,143.5469 82.7188,144.2969 Q82.2344,145.0469 82.2344,146.0781 L82.2344,147.1719 Q82.2344,148.4063 83.125,149.2344 Q84.0156,150.0469 85.6094,150.0469 Q86.5469,150.0469 87.2031,149.7969 Q87.5938,149.6406 88.0156,149.2031 Q88.2813,148.9375 88.4219,148.8594 Q88.5781,148.7813 88.7813,148.7813 Q89.1094,148.7813 89.3594,149.0469 Q89.625,149.2969 89.625,149.6406 Q89.625,149.9844 89.2813,150.3906 Q88.7813,150.9688 87.9844,151.2969 Q86.9063,151.75 85.6094,151.75 Q84.0938,151.75 82.8906,151.125 Q81.9063,150.625 81.2188,149.5625 Q80.5313,148.4844 80.5313,147.2031 L80.5313,146.0469 Q80.5313,144.7188 81.1406,143.5781 Q81.7656,142.4219 82.8594,141.8125 Q83.9531,141.1875 85.1875,141.1875 Q85.9219,141.1875 86.5625,141.3594 Q87.2188,141.5156 87.7656,141.875 Z " fill="#000000"/>
            <text fill="#000000" font-family="sans-serif" font-size="14" lengthAdjust="spacing" textLength="100" x="99" y="151.7285">CryptoCurrency</text>
            <line style="stroke:#181818;stroke-width:0.5;" x1="71" x2="201" y1="162" y2="162"/>
            <line style="stroke:#181818;stroke-width:0.5;" x1="71" x2="201" y1="170" y2="170"/>
        </g>
        <!--class MarketOrder-->
        <g id="elem_MarketOrder">
            <rect codeLine="7" fill="#F1F1F1" height="48" id="MarketOrder" rx="2.5" ry="2.5" style="stroke:#181818;stroke-width:0.5;" width="112" x="237" y="130"/>
            <ellipse cx="252" cy="146" fill="#ADD1B2" rx="11" ry="11" style="stroke:#181818;stroke-width:1.0;"/>
            <path d="M254.7656,141.875 Q254.9219,141.6563 255.1094,141.5469 Q255.2969,141.4375 255.5156,141.4375 Q255.8906,141.4375 256.125,141.7031 Q256.3594,141.9531 256.3594,142.5625 L256.3594,144.0156 Q256.3594,144.625 256.125,144.8906 Q255.8906,145.1563 255.5156,145.1563 Q255.1719,145.1563 254.9688,144.9531 Q254.7656,144.7656 254.6563,144.25 Q254.6094,143.8906 254.4219,143.7031 Q254.0938,143.3281 253.4844,143.1094 Q252.875,142.8906 252.25,142.8906 Q251.4844,142.8906 250.8438,143.2188 Q250.2188,143.5469 249.7188,144.2969 Q249.2344,145.0469 249.2344,146.0781 L249.2344,147.1719 Q249.2344,148.4063 250.125,149.2344 Q251.0156,150.0469 252.6094,150.0469 Q253.5469,150.0469 254.2031,149.7969 Q254.5938,149.6406 255.0156,149.2031 Q255.2813,148.9375 255.4219,148.8594 Q255.5781,148.7813 255.7813,148.7813 Q256.1094,148.7813 256.3594,149.0469 Q256.625,149.2969 256.625,149.6406 Q256.625,149.9844 256.2813,150.3906 Q255.7813,150.9688 254.9844,151.2969 Q253.9063,151.75 252.6094,151.75 Q251.0938,151.75 249.8906,151.125 Q248.9063,150.625 248.2188,149.5625 Q247.5313,148.4844 247.5313,147.2031 L247.5313,146.0469 Q247.5313,144.7188 248.1406,143.5781 Q248.7656,142.4219 249.8594,141.8125 Q250.9531,141.1875 252.1875,141.1875 Q252.9219,141.1875 253.5625,141.3594 Q254.2188,141.5156 254.7656,141.875 Z " fill="#000000"/>
            <text fill="#000000" font-family="sans-serif" font-size="14" lengthAdjust="spacing" textLength="80" x="266" y="151.7285">MarketOrder</text>
            <line style="stroke:#181818;stroke-width:0.5;" x1="238" x2="348" y1="162" y2="162"/>
            <line style="stroke:#181818;stroke-width:0.5;" x1="238" x2="348" y1="170" y2="170"/>
        </g>
        <!--class Wallet-->
        <g id="elem_Wallet">
            <rect codeLine="8" fill="#F1F1F1" height="48" id="Wallet" rx="2.5" ry="2.5" style="stroke:#181818;stroke-width:0.5;" width="71" x="100.5" y="238"/>
            <ellipse cx="115.5" cy="254" fill="#ADD1B2" rx="11" ry="11" style="stroke:#181818;stroke-width:1.0;"/>
            <path d="M118.2656,249.875 Q118.4219,249.6563 118.6094,249.5469 Q118.7969,249.4375 119.0156,249.4375 Q119.3906,249.4375 119.625,249.7031 Q119.8594,249.9531 119.8594,250.5625 L119.8594,252.0156 Q119.8594,252.625 119.625,252.8906 Q119.3906,253.1563 119.0156,253.1563 Q118.6719,253.1563 118.4688,252.9531 Q118.2656,252.7656 118.1563,252.25 Q118.1094,251.8906 117.9219,251.7031 Q117.5938,251.3281 116.9844,251.1094 Q116.375,250.8906 115.75,250.8906 Q114.9844,250.8906 114.3438,251.2188 Q113.7188,251.5469 113.2188,252.2969 Q112.7344,253.0469 112.7344,254.0781 L112.7344,255.1719 Q112.7344,256.4063 113.625,257.2344 Q114.5156,258.0469 116.1094,258.0469 Q117.0469,258.0469 117.7031,257.7969 Q118.0938,257.6406 118.5156,257.2031 Q118.7813,256.9375 118.9219,256.8594 Q119.0781,256.7813 119.2813,256.7813 Q119.6094,256.7813 119.8594,257.0469 Q120.125,257.2969 120.125,257.6406 Q120.125,257.9844 119.7813,258.3906 Q119.2813,258.9688 118.4844,259.2969 Q117.4063,259.75 116.1094,259.75 Q114.5938,259.75 113.3906,259.125 Q112.4063,258.625 111.7188,257.5625 Q111.0313,256.4844 111.0313,255.2031 L111.0313,254.0469 Q111.0313,252.7188 111.6406,251.5781 Q112.2656,250.4219 113.3594,249.8125 Q114.4531,249.1875 115.6875,249.1875 Q116.4219,249.1875 117.0625,249.3594 Q117.7188,249.5156 118.2656,249.875 Z " fill="#000000"/>
            <text fill="#000000" font-family="sans-serif" font-size="14" lengthAdjust="spacing" textLength="39" x="129.5" y="259.7285">Wallet</text>
            <line style="stroke:#181818;stroke-width:0.5;" x1="101.5" x2="170.5" y1="270" y2="270"/>
            <line style="stroke:#181818;stroke-width:0.5;" x1="101.5" x2="170.5" y1="278" y2="278"/>
        </g>
        <!--class BigDecimal-->
        <g id="elem_BigDecimal">
            <rect codeLine="2" fill="#F1F1F1" height="48" id="BigDecimal" rx="2.5" ry="2.5" style="stroke:#181818;stroke-width:0.5;" width="102" x="1428" y="130"/>
            <ellipse cx="1443" cy="146" fill="#ADD1B2" rx="11" ry="11" style="stroke:#181818;stroke-width:1.0;"/>
            <path d="M1445.7656,141.875 Q1445.9219,141.6563 1446.1094,141.5469 Q1446.2969,141.4375 1446.5156,141.4375 Q1446.8906,141.4375 1447.125,141.7031 Q1447.3594,141.9531 1447.3594,142.5625 L1447.3594,144.0156 Q1447.3594,144.625 1447.125,144.8906 Q1446.8906,145.1563 1446.5156,145.1563 Q1446.1719,145.1563 1445.9688,144.9531 Q1445.7656,144.7656 1445.6563,144.25 Q1445.6094,143.8906 1445.4219,143.7031 Q1445.0938,143.3281 1444.4844,143.1094 Q1443.875,142.8906 1443.25,142.8906 Q1442.4844,142.8906 1441.8438,143.2188 Q1441.2188,143.5469 1440.7188,144.2969 Q1440.2344,145.0469 1440.2344,146.0781 L1440.2344,147.1719 Q1440.2344,148.4063 1441.125,149.2344 Q1442.0156,150.0469 1443.6094,150.0469 Q1444.5469,150.0469 1445.2031,149.7969 Q1445.5938,149.6406 1446.0156,149.2031 Q1446.2813,148.9375 1446.4219,148.8594 Q1446.5781,148.7813 1446.7813,148.7813 Q1447.1094,148.7813 1447.3594,149.0469 Q1447.625,149.2969 1447.625,149.6406 Q1447.625,149.9844 1447.2813,150.3906 Q1446.7813,150.9688 1445.9844,151.2969 Q1444.9063,151.75 1443.6094,151.75 Q1442.0938,151.75 1440.8906,151.125 Q1439.9063,150.625 1439.2188,149.5625 Q1438.5313,148.4844 1438.5313,147.2031 L1438.5313,146.0469 Q1438.5313,144.7188 1439.1406,143.5781 Q1439.7656,142.4219 1440.8594,141.8125 Q1441.9531,141.1875 1443.1875,141.1875 Q1443.9219,141.1875 1444.5625,141.3594 Q1445.2188,141.5156 1445.7656,141.875 Z " fill="#000000"/>
            <text fill="#000000" font-family="sans-serif" font-size="14" lengthAdjust="spacing" textLength="70" x="1457" y="151.7285">BigDecimal</text>
            <line style="stroke:#181818;stroke-width:0.5;" x1="1429" x2="1529" y1="162" y2="162"/>
            <line style="stroke:#181818;stroke-width:0.5;" x1="1429" x2="1529" y1="170" y2="170"/>
        </g>
        <!--class InputMismatchException-->
        <g id="elem_InputMismatchException">
            <rect codeLine="3" fill="#F1F1F1" height="48" id="InputMismatchException" rx="2.5" ry="2.5" style="stroke:#181818;stroke-width:0.5;" width="183" x="1099.5" y="130"/>
            <ellipse cx="1114.5" cy="146" fill="#ADD1B2" rx="11" ry="11" style="stroke:#181818;stroke-width:1.0;"/>
            <path d="M1117.2656,141.875 Q1117.4219,141.6563 1117.6094,141.5469 Q1117.7969,141.4375 1118.0156,141.4375 Q1118.3906,141.4375 1118.625,141.7031 Q1118.8594,141.9531 1118.8594,142.5625 L1118.8594,144.0156 Q1118.8594,144.625 1118.625,144.8906 Q1118.3906,145.1563 1118.0156,145.1563 Q1117.6719,145.1563 1117.4688,144.9531 Q1117.2656,144.7656 1117.1563,144.25 Q1117.1094,143.8906 1116.9219,143.7031 Q1116.5938,143.3281 1115.9844,143.1094 Q1115.375,142.8906 1114.75,142.8906 Q1113.9844,142.8906 1113.3438,143.2188 Q1112.7188,143.5469 1112.2188,144.2969 Q1111.7344,145.0469 1111.7344,146.0781 L1111.7344,147.1719 Q1111.7344,148.4063 1112.625,149.2344 Q1113.5156,150.0469 1115.1094,150.0469 Q1116.0469,150.0469 1116.7031,149.7969 Q1117.0938,149.6406 1117.5156,149.2031 Q1117.7813,148.9375 1117.9219,148.8594 Q1118.0781,148.7813 1118.2813,148.7813 Q1118.6094,148.7813 1118.8594,149.0469 Q1119.125,149.2969 1119.125,149.6406 Q1119.125,149.9844 1118.7813,150.3906 Q1118.2813,150.9688 1117.4844,151.2969 Q1116.4063,151.75 1115.1094,151.75 Q1113.5938,151.75 1112.3906,151.125 Q1111.4063,150.625 1110.7188,149.5625 Q1110.0313,148.4844 1110.0313,147.2031 L1110.0313,146.0469 Q1110.0313,144.7188 1110.6406,143.5781 Q1111.2656,142.4219 1112.3594,141.8125 Q1113.4531,141.1875 1114.6875,141.1875 Q1115.4219,141.1875 1116.0625,141.3594 Q1116.7188,141.5156 1117.2656,141.875 Z " fill="#000000"/>
            <text fill="#000000" font-family="sans-serif" font-size="14" lengthAdjust="spacing" textLength="151" x="1128.5" y="151.7285">InputMismatchException</text>
            <line style="stroke:#181818;stroke-width:0.5;" x1="1100.5" x2="1281.5" y1="162" y2="162"/>
            <line style="stroke:#181818;stroke-width:0.5;" x1="1100.5" x2="1281.5" y1="170" y2="170"/>
        </g>
        <!--class List-->
        <g id="elem_List">
            <rect codeLine="4" fill="#F1F1F1" height="48" id="List" rx="2.5" ry="2.5" style="stroke:#181818;stroke-width:0.5;" width="54" x="1318" y="130"/>
            <ellipse cx="1333" cy="146" fill="#ADD1B2" rx="11" ry="11" style="stroke:#181818;stroke-width:1.0;"/>
            <path d="M1335.7656,141.875 Q1335.9219,141.6563 1336.1094,141.5469 Q1336.2969,141.4375 1336.5156,141.4375 Q1336.8906,141.4375 1337.125,141.7031 Q1337.3594,141.9531 1337.3594,142.5625 L1337.3594,144.0156 Q1337.3594,144.625 1337.125,144.8906 Q1336.8906,145.1563 1336.5156,145.1563 Q1336.1719,145.1563 1335.9688,144.9531 Q1335.7656,144.7656 1335.6563,144.25 Q1335.6094,143.8906 1335.4219,143.7031 Q1335.0938,143.3281 1334.4844,143.1094 Q1333.875,142.8906 1333.25,142.8906 Q1332.4844,142.8906 1331.8438,143.2188 Q1331.2188,143.5469 1330.7188,144.2969 Q1330.2344,145.0469 1330.2344,146.0781 L1330.2344,147.1719 Q1330.2344,148.4063 1331.125,149.2344 Q1332.0156,150.0469 1333.6094,150.0469 Q1334.5469,150.0469 1335.2031,149.7969 Q1335.5938,149.6406 1336.0156,149.2031 Q1336.2813,148.9375 1336.4219,148.8594 Q1336.5781,148.7813 1336.7813,148.7813 Q1337.1094,148.7813 1337.3594,149.0469 Q1337.625,149.2969 1337.625,149.6406 Q1337.625,149.9844 1337.2813,150.3906 Q1336.7813,150.9688 1335.9844,151.2969 Q1334.9063,151.75 1333.6094,151.75 Q1332.0938,151.75 1330.8906,151.125 Q1329.9063,150.625 1329.2188,149.5625 Q1328.5313,148.4844 1328.5313,147.2031 L1328.5313,146.0469 Q1328.5313,144.7188 1329.1406,143.5781 Q1329.7656,142.4219 1330.8594,141.8125 Q1331.9531,141.1875 1333.1875,141.1875 Q1333.9219,141.1875 1334.5625,141.3594 Q1335.2188,141.5156 1335.7656,141.875 Z " fill="#000000"/>
            <text fill="#000000" font-family="sans-serif" font-size="14" lengthAdjust="spacing" textLength="22" x="1347" y="151.7285">List</text>
            <line style="stroke:#181818;stroke-width:0.5;" x1="1319" x2="1371" y1="162" y2="162"/>
            <line style="stroke:#181818;stroke-width:0.5;" x1="1319" x2="1371" y1="170" y2="170"/>
        </g>
        <!--class Scanner-->
        <g id="elem_Scanner">
            <rect codeLine="5" fill="#F1F1F1" height="48" id="Scanner" rx="2.5" ry="2.5" style="stroke:#181818;stroke-width:0.5;" width="85" x="1148.5" y="238"/>
            <ellipse cx="1163.5" cy="254" fill="#ADD1B2" rx="11" ry="11" style="stroke:#181818;stroke-width:1.0;"/>
            <path d="M1166.2656,249.875 Q1166.4219,249.6563 1166.6094,249.5469 Q1166.7969,249.4375 1167.0156,249.4375 Q1167.3906,249.4375 1167.625,249.7031 Q1167.8594,249.9531 1167.8594,250.5625 L1167.8594,252.0156 Q1167.8594,252.625 1167.625,252.8906 Q1167.3906,253.1563 1167.0156,253.1563 Q1166.6719,253.1563 1166.4688,252.9531 Q1166.2656,252.7656 1166.1563,252.25 Q1166.1094,251.8906 1165.9219,251.7031 Q1165.5938,251.3281 1164.9844,251.1094 Q1164.375,250.8906 1163.75,250.8906 Q1162.9844,250.8906 1162.3438,251.2188 Q1161.7188,251.5469 1161.2188,252.2969 Q1160.7344,253.0469 1160.7344,254.0781 L1160.7344,255.1719 Q1160.7344,256.4063 1161.625,257.2344 Q1162.5156,258.0469 1164.1094,258.0469 Q1165.0469,258.0469 1165.7031,257.7969 Q1166.0938,257.6406 1166.5156,257.2031 Q1166.7813,256.9375 1166.9219,256.8594 Q1167.0781,256.7813 1167.2813,256.7813 Q1167.6094,256.7813 1167.8594,257.0469 Q1168.125,257.2969 1168.125,257.6406 Q1168.125,257.9844 1167.7813,258.3906 Q1167.2813,258.9688 1166.4844,259.2969 Q1165.4063,259.75 1164.1094,259.75 Q1162.5938,259.75 1161.3906,259.125 Q1160.4063,258.625 1159.7188,257.5625 Q1159.0313,256.4844 1159.0313,255.2031 L1159.0313,254.0469 Q1159.0313,252.7188 1159.6406,251.5781 Q1160.2656,250.4219 1161.3594,249.8125 Q1162.4531,249.1875 1163.6875,249.1875 Q1164.4219,249.1875 1165.0625,249.3594 Q1165.7188,249.5156 1166.2656,249.875 Z " fill="#000000"/>
            <text fill="#000000" font-family="sans-serif" font-size="14" lengthAdjust="spacing" textLength="53" x="1177.5" y="259.7285">Scanner</text>
            <line style="stroke:#181818;stroke-width:0.5;" x1="1149.5" x2="1232.5" y1="270" y2="270"/>
            <line style="stroke:#181818;stroke-width:0.5;" x1="1149.5" x2="1232.5" y1="278" y2="278"/>
        </g>
        <!--SRC=[VP1B3e9038Rtd88Jp25y99f8JCJekfGArNcGJa6vlHFTc81ichJz_Zv-gA8AeEPe8SOyI6Eg41J1TMPWUaPpIJ7xTkymW76WhLbnio5a1_QtrIjRi_TThmN7n66xVI5roi5Fi0D7dHHB1Ez9ifbZNAZ9HhEMiTEmxaN8uxW05Y0FqgFKY-EkO2rfzlVvNN3qOy0CyTspp9nI-Y7OAyaDaEQev5KBlg6IP62aigyY2bVf_aNPMQ1ctqnKRm00]-->
    </g>
</svg>
